<?xml version="1.0" encoding="UTF-8"?>
<svg width="1200pt" height="1200pt" version="1.1" viewBox="0 0 1200 1200" xmlns="http://www.w3.org/2000/svg">
 <path d="m993 565.69h-17.25c7.125-15 12.938-28.875 18-42.188 9.9375-25.125 7.5-52.875-6.375-75.938s-37.125-37.875-63-40.5c-3-0.5625-5.8125-0.75-9-0.75h-2.625c7.5-49.312 4.3125-89.625-10.312-119.25 21.188-2.25 38.812-10.312 51.938-23.062 27.938-27.75 25.312-65.062 8.4375-87.938-11.25-15-29.438-24-48.375-24-3.75 0-7.5 0.375-11.25 0.9375 4.5-27.75-8.625-48.938-23.062-59.812-11.062-8.0625-24.75-12.562-38.812-12.562-11.812 0-29.062 3.1875-45.188 17.438-18.375-36.562-46.875-67.125-84.75-91.312-4.125-2.625-8.625-3.9375-13.5-3.9375-8.4375 0-16.312 4.125-21.375 10.688-30.188 41.812-68.812 75.938-117.19 104.25-0.5625-65.062-53.438-117.75-118.31-117.75-35.25 0-68.062 15.375-90.562 42.375-17.062-10.125-34.875-15.188-52.875-15.188-7.125 0-14.25 0.75-21.375 2.4375-6.75 1.5-11.25 8.25-9.75 15.188 1.3125 5.8125 6.5625 10.125 12.562 10.125 0.9375 0 1.875 0 2.8125-0.1875 5.0625-1.125 10.5-1.6875 15.375-1.6875 13.125 0 25.875 3.5625 38.812 11.062-8.625 16.688-13.125 35.438-13.125 54.375 0 27.375 9.75 53.812 27.188 75-38.062 9.9375-66.938 35.062-78.188 67.688-13.125 41.062-8.4375 85.312 14.25 131.44-57 39-85.125 96-85.5 173.63-55.312 3.375-99.375 50.062-99.375 105.75 0 57.375 45.938 104.44 103.12 105.94l56.625 317.26c10.875 60.938 63.75 105.19 125.63 105.19h419.63c60.562 0 113.25-43.125 125.06-102.56l64.312-319.69c57.188-1.5 103.31-48.375 103.31-106.12 0-58.875-47.438-106.31-105.94-106.31zm-78.562-133.69 0.75-3.5625v3.5625c1.5 0 3.1875 0 5.25 0.5625 18.75 1.875 35.062 12.375 44.812 28.312 9.9375 16.312 11.625 35.812 4.3125 53.625-6.1875 17.062-13.875 34.312-22.5 51.375h-335.81c111-40.688 201.56-82.125 276.37-126.37 3.5625-2.25 7.6875-3.9375 12.938-5.0625 5.0625-1.6875 9.375-2.4375 13.875-2.4375zm-314.44 9.1875c-1.6875 0-3.375-0.375-4.875-0.9375-6.375-2.8125-9.5625-10.312-6.75-16.875l7.5-18.188c2.0625-4.875 6.5625-8.0625 11.812-8.0625 1.875 0 3.5625 0.375 4.875 1.125 6.5625 2.625 9.75 10.125 6.9375 16.688l-7.5 18.375c-2.25 4.6875-6.75 7.875-12 7.875zm98.438-105.94-7.5 18.375c-2.0625 4.6875-6.5625 7.875-12 7.875-1.6875 0-3.375-0.375-4.875-0.9375-3.1875-1.3125-5.4375-3.9375-6.75-6.9375-1.5-3.1875-1.5-6.5625-0.1875-9.75l7.6875-18.375c1.875-4.875 6.5625-8.0625 11.812-8.0625 1.875 0 3.5625 0.375 4.875 1.125 3.1875 1.3125 5.625 3.75 6.9375 6.9375s1.3125 6.5625 0 9.75zm7.5 81.375c1.3125 3.1875 1.3125 6.5625 0 9.9375l-7.5 18.188c-2.0625 4.875-6.5625 8.0625-12 8.0625-1.6875 0-3.375-0.375-4.875-1.125-3.1875-1.3125-5.4375-3.75-6.75-6.75-1.5-3.375-1.5-6.75 0-9.9375l7.5-18.375c2.0625-4.6875 6.5625-7.875 11.812-7.875 1.875 0 3.5625 0.375 4.875 0.9375 3.1875 1.3125 5.625 3.9375 6.9375 6.9375zm39.75-44.062 7.5-18.188c2.0625-4.875 6.5625-8.0625 11.812-8.0625 1.875 0 3.5625 0.375 4.875 1.125 3.1875 1.3125 5.625 3.75 6.9375 6.75 1.3125 3.375 1.3125 6.75 0 9.9375l-7.5 18.375c-2.0625 4.6875-6.5625 7.875-12 7.875-1.6875 0-3.375-0.375-4.875-0.9375-3.1875-1.3125-5.4375-3.9375-6.75-6.9375-1.3125-3.1875-1.3125-6.75 0-9.9375zm85.125 9 7.5-18.375c2.0625-4.6875 6.5625-7.875 12-7.875 1.6875 0 3.375 0.375 4.6875 0.9375 3.1875 1.3125 5.625 3.9375 6.9375 6.9375 1.3125 3.1875 1.3125 6.5625 0 9.9375l-7.5 18.375c-2.0625 4.6875-6.5625 7.875-12 7.875-1.6875 0-3.375-0.375-4.6875-1.125-3.1875-1.125-5.625-3.75-6.9375-6.75s-1.3125-6.5625 0-9.9375zm-36.375-224.63c1.125-10.688 4.6875-25.875 15.938-37.312 11.25-11.25 22.875-13.5 30.75-13.5 8.625 0 16.875 2.8125 23.438 7.6875 12.375 9.1875 20.625 27.938 6.1875 54.562-0.1875 0.9375-0.5625 1.6875-0.75 2.625v2.25l0.1875 2.625c0.1875 0.75 0.5625 1.6875 0.75 2.25l1.125 2.25c0.5625 0.75 1.125 1.5 1.6875 2.0625s1.3125 1.125 1.6875 1.5l2.4375 1.3125c0.9375 0.375 1.6875 0.75 2.625 0.75 0.9375 0.1875 1.6875 0.375 2.4375 0.375l2.0625-0.75c0.9375 0 1.875-0.375 3.9375-1.125 8.8125-4.6875 17.25-7.3125 25.312-7.3125 11.25 0 21.375 5.0625 28.125 14.062 9.9375 13.312 12.375 36-6 54.375-11.25 11.25-26.438 14.625-37.312 15.75-11.812 1.3125-26.438 1.875-45.375 1.875-18.75 0-39.188-0.5625-59.812-1.3125l-0.375-11.625c0.375-1.875 0.375-3.5625 0-4.6875-0.9375-31.875-1.3125-64.688 0.9375-88.688zm-498.37 112.31c8.8125-26.062 33.375-45.75 65.812-52.5l2.25-0.375c2.8125-0.5625 5.4375-1.3125 8.25-1.875 20.438 14.25 43.875 21.938 68.625 21.938 53.25 0 99.75-35.812 113.81-87 59.062-31.312 107.06-72.188 142.69-121.31 38.062 24.188 65.062 55.688 81 93.188-5.0625 10.125-8.4375 21.375-9.5625 33-2.4375 24-2.0625 56.062-1.3125 84.75-1.875 0.9375-3.9375 2.0625-5.625 3.1875-75 43.125-162.74 71.438-267.94 86.438-51.938 6.375-127.13 18.562-186 50.438-18.938-39.188-23.062-76.125-12-109.88zm273.74 234.56-7.5 18.188c-2.0625 4.875-6.5625 8.0625-12 8.0625-1.6875 0-3.375-0.375-4.875-1.125-6.375-2.625-9.5625-10.125-6.9375-16.688l7.6875-18.375c2.0625-4.6875 6.5625-7.875 11.812-7.875 1.875 0 3.5625 0.375 4.875 0.9375 6.5625 2.8125 9.75 10.312 6.9375 16.875zm-35.25-127.13-7.6875 18.375c-1.875 4.6875-6.5625 7.875-11.812 7.875-1.875 0-3.5625-0.375-4.875-0.9375-3.1875-1.3125-5.625-3.9375-6.9375-6.9375-1.3125-3.1875-1.3125-6.5625 0-9.9375l7.5-18.188c2.0625-4.875 6.5625-8.0625 12-8.0625 1.6875 0 3.375 0.375 4.875 1.125 3.1875 1.3125 5.4375 3.75 6.75 6.75 1.5 3.375 1.5 6.75 0.1875 9.9375zm-39.375 100.88-7.5 18.375c-2.0625 4.6875-6.75 7.875-12 7.875-1.6875 0-3.375-0.1875-4.875-0.9375-3.1875-1.3125-5.4375-3.75-6.9375-6.9375-1.3125-3.1875-1.3125-6.5625 0-9.75l7.5-18.375c2.0625-4.6875 6.75-7.875 12-7.875 1.6875 0 3.375 0.1875 4.875 0.9375 3.1875 1.3125 5.625 3.75 6.9375 6.9375s1.3125 6.75 0 9.75zm-87.188-44.438c-1.3125-3.1875-1.3125-6.5625 0-9.9375l7.5-18.188c2.0625-4.875 6.5625-8.0625 12-8.0625 1.6875 0 3.375 0.375 4.875 1.125 3.1875 1.3125 5.4375 3.75 6.75 6.75 1.5 3.375 1.5 6.75 0.1875 9.9375l-7.5 18.375c-2.0625 4.6875-6.75 7.875-12 7.875-1.875 0-3.5625-0.375-4.875-0.9375-3.1875-1.125-5.625-3.75-6.9375-6.9375zm-0.1875 79.688-7.5 18.375c-2.0625 4.875-6.5625 8.0625-12 8.0625-1.6875 0-3.375-0.375-4.875-1.125-3.1875-1.3125-5.4375-3.75-6.75-6.75-1.5-3.375-1.5-6.75 0-9.9375l7.5-18.375c2.0625-4.6875 6.5625-7.875 11.812-7.875 1.875 0 3.5625 0.375 4.875 0.9375 3.1875 1.3125 5.625 3.9375 6.9375 6.9375 1.3125 3.1875 1.3125 6.75 0 9.75zm-72.938-41.438-7.5 18.375c-2.0625 4.6875-6.5625 7.875-12 7.875-1.6875 0-3.375-0.1875-4.6875-0.9375-6.5625-2.8125-9.75-10.312-6.9375-16.688l7.5-18.375c2.0625-4.6875 6.5625-7.875 12-7.875 1.6875 0 3.375 0.1875 4.6875 0.9375 6.5625 2.8125 9.75 10.312 6.9375 16.688zm65.438 634.13c-0.9375 0-1.6875 0.1875-2.625 0.1875-6 0-11.438-4.3125-12.75-10.312l-40.688-201c-1.3125-6.9375 3.1875-13.688 10.125-15.188 0.9375-0.1875 1.6875-0.1875 2.625-0.1875 6 0 11.438 4.3125 12.75 10.312l40.5 201.19c1.3125 6.75-3.1875 13.5-9.9375 15zm111.38-4.875c-2.0625 2.8125-4.875 4.5-8.4375 4.875l-1.875 0.1875c-6.1875 0-11.812-4.6875-12.75-11.062l-27.75-201.37c-0.5625-3.375 0.375-6.5625 2.625-9.375 2.0625-2.8125 4.875-4.5 8.4375-4.875h0.375c8.0625 0 13.125 4.5 14.062 10.875l27.75 201.19c0.375 3.375-0.1875 6.75-2.4375 9.5625zm101.06-7.875c0 7.125-5.625 12.75-12.75 12.75-6.9375 0-12.75-5.625-12.75-12.75v-201c0-7.125 5.8125-12.938 12.75-12.938 7.125 0 12.75 5.625 12.75 12.938zm98.438 1.875c-0.75 6.1875-6.1875 11.062-12.75 11.062l-1.6875-0.1875c-3.5625-0.375-6.375-2.25-8.625-4.875-2.0625-2.8125-3-6-2.4375-9.5625l27.75-201.19c0.9375-6.375 6.1875-11.062 12.75-11.062 5.0625 0.5625 8.25 2.4375 10.312 5.25s3 6 2.625 9.375zm144.37-200.26-40.688 201.19c-1.125 5.8125-6.375 10.312-12.562 10.312-0.9375 0-1.875-0.1875-2.625-0.1875-6.9375-1.5-11.438-8.25-10.125-15.188l40.688-201.19c1.3125-6 6.375-10.312 12.562-10.312 0.9375 0 1.875 0 2.8125 0.1875 6.75 1.3125 11.438 8.0625 9.9375 15.188zm137.44-142.31h-786c-44.438 0-80.438-36.188-80.438-80.438 0-44.438 36-80.438 80.438-80.438h6.375l320.63-0.375 1.6875 0.375h457.31c44.25 0 80.438 36 80.438 80.438-0.1875 44.25-36.188 80.438-80.438 80.438z"/>
</svg>
