<?xml version="1.0" encoding="UTF-8"?>
<svg width="1200pt" height="1200pt" version="1.1" viewBox="0 0 1200 1200" xmlns="http://www.w3.org/2000/svg">
 <path d="m850 900h-500c-27.648 0-50-22.398-50-50s22.352-50 50-50h500c27.648 0 50 22.398 50 50s-22.352 50-50 50m-300-250c0 27.602-22.398 50-50 50s-50-22.398-50-50 22.398-50 50-50 50 22.398 50 50m-14.301-151.6c13.602 22.602-2.4492 51.602-28.848 51.602h-113.7c-26.398 0-42.449-29-28.848-51.602 17.5-29 49.348-48.398 85.699-48.398s68.199 19.398 85.699 48.398m164.3 151.6c0 27.602-22.398 50-50 50s-50-22.398-50-50 22.398-50 50-50 50 22.398 50 50m143.2-144.8c6.9023 22.102-8.8984 44.801-32.051 44.801h-222.3c-23.152 0-38.953-22.699-32.051-44.801 19.051-60.949 75.949-105.2 143.2-105.2s124.15 44.25 143.2 105.2m352.1 53c-9.6523-40.598-32.5-74.598-62.801-93.301-22.148-13.648-47.301-18.047-71.148-12.5-2.2031 0.55078-5.8516 1.7031-10.051 3.1016-53.449-128.3-138.1-202.75-220.2-245.85l15.047-40.547c9.6016-25.852-3.5469-54.652-29.5-64.25-25.699-9.5508-54.699 3.5469-64.25 29.449l-13.898 37.398c-34.352-10.199-64.648-15.551-88.5-18.398v-53.301c0-27.602-22.352-50-50-50s-50 22.398-50 50v55.898c-23.5 4.0508-53.398 10.75-87.5 22.551l-14-42.398c-8.6484-26.25-37.051-40.5-63.148-31.852-26.203 8.6992-40.5 36.949-31.801 63.199l17.449 52.75c-25.699 14.551-51.602 31.953-76.898 53.25l-58.75-58.75c-19.551-19.547-51.152-19.547-70.703 0-19.547 19.551-19.547 51.152 0 70.703l59.801 59.797c-44.648 56.301-81.898 129.6-105.2 223.05-13-2.0508-17.102-2.0977-19.25-2.0977-58.898 0-100 55.047-100 133.9s41.102 133.9 100 133.9c3.8516 0 10.25-0.69922 17.398-1.6484 14.352 53.102 37.152 103.2 69.051 147.1 84.5 116.45 215.9 170.65 413.55 170.65 184.45 0 319.8-62.852 413.55-192.1 50.598-69.75 79.25-154.65 84.801-243.45 2.9492 0.10156 5.75 0.15234 7.9492 0.15234 10 0 13.5-0.85156 17.051-1.7031 57.648-13.75 89.25-81.699 71.949-154.7" fill-rule="evenodd"/>
</svg>
