<?xml version="1.0" encoding="UTF-8"?>
<svg width="1200pt" height="1200pt" version="1.1" viewBox="0 0 1200 1200" xmlns="http://www.w3.org/2000/svg">
 <path d="m695.44 600c0-67.312-54.75-122.25-122.06-122.25v244.5c67.309 0 122.06-54.938 122.06-122.25z"/>
 <path d="m1023.6 767.17c-26.383 0-48.473 17.367-56.137 41.203-1.043-0.17969-1.9961-0.625-3.0938-0.625h-48.77v-80.949c0-10.355-8.3945-18.75-18.75-18.75h-95.254c15.566-32.816 24.535-69.359 24.535-108.05 0-38.652-8.9492-75.156-24.488-107.95h95.203c10.355 0 18.75-8.3945 18.75-18.75v-80.949h48.77c1.1094 0 2.0664-0.44531 3.1211-0.62891 7.6914 23.789 29.758 41.105 56.105 41.105 32.711 0 59.227-26.516 59.227-59.227 0-32.711-26.516-59.23-59.227-59.23-26.352 0-48.418 17.32-56.105 41.109-1.0547-0.18359-2.0156-0.62891-3.1211-0.62891h-67.52c-10.355 0-18.75 8.3945-18.75 18.75v80.949h-98.23c-22.066-31.293-50.938-57.422-84.602-76.039l0.007812-166.61h102.87c1.1055 0 2.0664-0.44531 3.1211-0.62891 7.6875 23.789 29.758 41.105 56.105 41.105 32.711 0 59.227-26.516 59.227-59.227 0-32.711-26.516-59.23-59.227-59.23-26.348 0-48.418 17.32-56.105 41.109-1.0547-0.18359-2.0117-0.62891-3.1172-0.62891h-121.62c-10.355 0-18.75 8.3945-18.75 18.75v168.7c-26.43-9.3984-54.754-14.785-84.387-14.785v93.188c87.938 0 159.56 71.625 159.56 159.75s-71.625 159.75-159.56 159.75v93.188c29.633 0 57.957-5.3828 84.387-14.785v168.7c0 10.355 8.3945 18.75 18.75 18.75h121.62c1.1055 0 2.0664-0.44531 3.1211-0.62891 7.6875 23.789 29.758 41.105 56.105 41.105 32.711 0 59.227-26.516 59.227-59.227 0-32.711-26.516-59.23-59.227-59.23-26.348 0-48.418 17.32-56.105 41.109-1.0547-0.18359-2.0117-0.62891-3.1172-0.62891h-102.87v-166.61c33.625-18.594 62.469-44.691 84.523-75.938h98.305v80.949c0 10.355 8.3945 18.75 18.75 18.75h67.52c1.1172 0 2.0859-0.44922 3.1523-0.63672 7.7188 23.738 29.762 41.016 56.078 41.016 32.711 0 59.227-26.516 59.227-59.227-0.003906-32.711-26.523-59.23-59.234-59.23z"/>
 <path d="m434.62 141c-45.188 0-83.625 29.812-96.562 70.688v0.1875c0 0.1875-0.1875 0.375-0.1875 0.5625-3 9.5625-4.5 19.5-4.5 29.812 0 13.312 10.688 24.188 24 24.188h37.125c10.312 0 18.75 8.25 18.75 18.75 0 10.312-8.4375 18.75-18.75 18.75h-37.125c-33.938 0-61.5-27.75-61.5-61.688 0-5.4375 0.375-10.875 0.9375-16.125-56.25 1.875-101.25 48-101.25 104.62 0 11.438 1.875 22.688 5.4375 33.375 12-6 24.938-10.5 38.438-13.312 10.125-2.0625 20.062 4.5 22.125 14.625s-4.5 20.062-14.625 22.125c-56.625 11.625-97.875 62.062-97.875 120.19 0 49.312 29.438 93.75 75 112.88 9.5625 4.125 13.875 15.188 9.9375 24.75-3 7.125-9.9375 11.438-17.25 11.438-2.4375 0-5.0625-0.5625-7.3125-1.5-21.375-9-39.75-22.312-54.75-38.625-24 26.25-37.5 60.562-37.5 96.75 0 58.875 36.375 111.19 90 132.75 6.5625-11.062 15-21.562 25.125-30.188 7.875-6.75 19.688-6 26.438 1.875s6 19.688-1.875 26.438c-10.312 8.8125-18.375 20.062-23.25 32.25-4.6875 11.062-6.9375 22.5-6.9375 34.312 0 48.562 39.375 87.938 87.938 87.938 3.9375 0 7.6875-0.375 11.625-0.9375-1.875-8.4375-2.8125-17.438-2.8125-26.438v-11.25c0-40.875 33-73.875 73.875-73.875 10.312 0 18.75 8.25 18.75 18.75 0 10.312-8.4375 18.75-18.75 18.75-20.062 0-36.375 16.312-36.375 36.375v11.25c0 12 2.4375 23.438 6.75 33.75 0 0.1875 0 0.1875 0.1875 0.1875v0.1875c13.312 31.312 44.25 53.438 80.438 53.438 48.188 0 87.562-39.375 87.562-87.562v-729.19c0-55.688-45.559-101.25-101.25-101.25zm13.504 547.5c-10.5 31.688-51.375 91.312-132.19 91.312h-1.5c-10.5-0.1875-18.75-8.625-18.562-18.938 0-10.312 8.4375-18.562 18.75-18.562h1.3125c73.5 0 95.625-62.812 96.562-65.625 3.375-9.75 14.062-15 23.812-11.625 9.7461 3.1875 14.996 13.688 11.812 23.438zm24.562-135c-3 1.6875-6.1875 2.625-9.375 2.625-6.5625 0-12.75-3.375-16.312-9.375-39.75-67.312-112.12-43.5-115.12-42.375-9.75 3.375-20.438-1.875-23.812-11.625-3.375-9.9375 1.875-20.625 11.625-23.812 36-12.375 115.5-15.938 159.75 58.875 5.2461 8.8125 2.2461 20.438-6.75 25.688z"/>
</svg>
