<?xml version="1.0" encoding="UTF-8"?>
<svg width="1200pt" height="1200pt" version="1.1" viewBox="0 0 1200 1200" xmlns="http://www.w3.org/2000/svg">
 <path d="m323.06 188.68 71.438 49.828c3.375 2.3438 7.5469 3.2344 11.578 2.5312s7.5938-3 9.9375-6.375l4.3594-6.2812h0.046875c4.875-6.9844 3.1406-16.641-3.8438-21.516l-71.438-49.828c-6.9844-4.875-16.641-3.1406-21.516 3.8438l-4.3594 6.2812c-4.9219 6.9844-3.1875 16.641 3.7969 21.516z"/>
 <path d="m454.08 152.21c3.0469 7.9688 11.953 12 19.922 9l7.125-2.7188h0.046875c3.8438-1.4531 6.9375-4.3594 8.625-8.1094 1.6875-3.7031 1.8281-7.9688 0.375-11.812l-30.75-81.469c-1.4531-3.8438-4.3594-6.9375-8.1094-8.625s-8.0156-1.8281-11.812-0.375l-7.1719 2.7188v-0.046875c-3.8438 1.4531-6.9375 4.3594-8.625 8.1094s-1.8281 7.9688-0.375 11.812z"/>
 <path d="m268.78 292.26h87.141c8.5312 0 15.422 6.9375 15.422 15.469v7.6406c0 8.5312-6.8906 15.469-15.469 15.469h-87.094c-8.5312 0-15.422-6.9375-15.422-15.469v-7.6406c0-8.5312 6.8906-15.469 15.422-15.469z"/>
 <path d="m697.13 532.4c0.60938-0.1875 1.2656-0.32812 1.9219-0.51562 0.84375-0.23438 1.6406-0.42188 2.4844-0.65625 1.3125-0.32812 2.6719-0.70312 3.9844-1.0312 1.9219-0.46875 3.8906-0.84375 5.8594-1.2188 0.98438-0.1875 1.9219-0.42188 2.8594-0.5625 0.70312-0.14062 1.4062-0.23438 2.1094-0.375 2.3438-0.375 4.7344-0.65625 7.0781-0.89062 1.1719-0.14062 2.2969-0.32812 3.4219-0.42188 0.32812-0.046875 0.65625-0.046875 0.98438-0.09375 3-0.23438 6.0469-0.375 9.0469-0.46875 0.65625 0 1.3594-0.046875 2.0156-0.09375h0.9375c0.60938 0 1.1719-0.09375 1.7344-0.09375 1.125 0 2.2031 0.14062 3.2812 0.14062 1.5938 0.046875 3.1406 0 4.7344 0.09375 1.1719 0.046875 2.2969 0.1875 3.4688 0.28125 1.5469 0.09375 3.0938 0.23438 4.6406 0.375 1.0312 0.09375 2.0625 0.1875 3.0938 0.32812 1.4531 0.1875 2.9062 0.42188 4.3125 0.60938 2.2969 0.32812 4.5469 0.65625 6.7969 1.0781 1.5 0.28125 2.9531 0.60938 4.4531 0.9375 1.4531 0.32812 2.8594 0.5625 4.3125 0.9375l0.09375 0.09375c21-14.109 33.562-37.781 33.469-63.094 0-27.047-14.297-52.078-37.594-65.812-23.297-13.781-52.125-14.156-75.797-1.0781s-38.672 37.688-39.422 64.688c-0.75 27.047 12.844 52.453 35.719 66.844z"/>
 <path d="m523.97 705.24c-3.9375-3.4688-7.7812-7.0781-11.578-10.734-1.125-1.0781-2.25-2.2031-3.3281-3.2812-1.1719-1.1719-2.3906-2.2969-3.5625-3.5156l-63.188 71.859 38.156 33.562 63.141-71.859c-0.75-0.5625-1.4531-1.2188-2.2031-1.7812-5.9531-4.6406-11.859-9.3281-17.438-14.25z"/>
 <path d="m133.31 1073c-12 12.375-11.766 32.156 0.51562 44.25l31.594 27.797c13.594 10.594 33.188 8.2969 43.922-5.2031l238.69-271.6-76.031-66.797z"/>
 <path d="m384.37 787.31 26.625-30.281 76.031 66.797-26.625 30.281z"/>
 <path d="m947.06 223.78c-56.531-49.969-129.37-77.484-204.84-77.391-6.8438 0-13.688 0.23438-20.531 0.65625-78.422 5.1094-152.02 39.656-206.02 96.75-54 57.141-84.375 132.56-85.031 211.13-0.65625 78.609 28.453 154.5 81.469 212.53 15.281 16.641 32.344 31.594 50.766 44.625 87.703 61.547 200.86 73.641 299.58 32.062 98.719-41.578 169.08-131.02 186.28-236.76 17.203-105.7-21.234-212.86-101.67-283.6zm-8.2969 406.92c-15.469 17.625-33.281 33.094-52.922 45.984h-0.046875c-42.75 28.266-92.812 43.312-144.05 43.359-51.234 0-101.34-14.953-144.1-43.125h-0.046875v-0.046875c-10.219-6.7969-19.922-14.203-29.156-22.266-52.266-45.938-84.141-110.77-88.641-180.24-4.4531-69.422 18.844-137.81 64.781-190.13 45.938-52.266 110.77-84.141 180.19-88.641 69.469-4.4531 137.86 18.844 190.13 64.781 52.266 45.938 84.141 110.77 88.641 180.19 4.4531 69.469-18.797 137.86-64.734 190.13z"/>
 <path d="m870.42 649.97c-0.375-3-0.84375-5.9531-1.5-8.8594-0.14062-0.75-0.32812-1.4531-0.46875-2.1562h0.046875c-12.562-47.531-51.75-83.344-100.22-91.547-0.75-0.14062-1.4531-0.23438-2.2031-0.375-3-0.51562-6.0469-0.9375-9.0938-1.2656-1.0312-0.09375-2.1094-0.1875-3.1406-0.28125-0.51562-0.046875-0.98438-0.09375-1.5-0.14062-2.4375-0.1875-4.875-0.28125-7.3594-0.32812-1.6406-0.046875-3.2344-0.09375-4.875-0.09375-3.4688 0.046875-6.9375 0.1875-10.359 0.46875-1.125 0.09375-2.2031 0.23438-3.3281 0.32812-3.2344 0.32812-6.4688 0.79688-9.6094 1.3594-1.1719 0.1875-2.3438 0.46875-3.5156 0.70312-2.8125 0.5625-5.5312 1.2188-8.2969 1.9688l-3.5156 0.98438c-2.7188 0.79688-5.3906 1.7344-8.0156 2.7188-1.0312 0.375-2.0625 0.70312-3.0469 1.125-3.5625 1.4062-7.0781 2.9531-10.5 4.6406-0.14062 0.09375-0.28125 0.14062-0.42188 0.23438-3.2344 1.6406-6.4219 3.4219-9.4688 5.2969-0.84375 0.51562-1.6406 1.0781-2.4844 1.5938-2.3438 1.5-4.6875 3.0938-6.8906 4.7344-0.89062 0.65625-1.7812 1.3125-2.625 2.0156-2.2031 1.7344-4.3594 3.5156-6.4219 5.3906-0.70312 0.60938-1.4062 1.2188-2.1094 1.875-2.6719 2.4844-5.2031 5.0156-7.6406 7.6875-0.46875 0.51562-0.89062 1.125-1.4062 1.6406-1.8281 2.1094-3.6562 4.3125-5.3438 6.5156-0.89062 1.1719-1.6875 2.3906-2.5312 3.5625-1.1719 1.6875-2.3438 3.4219-3.4219 5.1562-0.84375 1.3594-1.6875 2.7188-2.4844 4.125-0.98438 1.7812-1.9219 3.5625-2.8125 5.3906-0.70312 1.3594-1.4062 2.7188-2.0156 4.0781-1.3594 3-2.5781 6-3.6562 9.1406-0.46875 1.3125-0.84375 2.6719-1.2188 4.0312-0.65625 2.1094-1.2656 4.2188-1.7812 6.375-0.32812 1.4062-0.65625 2.8125-0.9375 4.2656-0.46875 2.2969-0.84375 4.6406-1.1719 7.0312-0.1875 1.2188-0.375 2.4375-0.46875 3.6562-0.375 3.5625-0.60938 7.1719-0.60938 10.828h-0.046875c38.859 24.469 83.812 37.453 129.74 37.453 45.938-0.046875 90.891-13.078 129.71-37.594 0-3.7031-0.23438-7.4062-0.60938-11.109-0.09375-0.89062-0.23438-1.7344-0.375-2.625z"/>
 <path d="m677.39 320.21 42.609 25.219v-0.046875c4.0312 2.4375 9.1875 1.4531 12.094-2.25l68.672-86.906c3.2344-4.0781 2.5312-9.9375-1.5469-13.172-4.0312-3.1875-9.9375-2.5312-13.172 1.5469l-63.609 80.484-35.484-21c-2.1562-1.2656-4.7344-1.6406-7.125-1.0312s-4.4531 2.1562-5.7188 4.3125c-2.6719 4.4531-1.1719 10.172 3.2812 12.844z"/>
</svg>
