<?xml version="1.0" encoding="UTF-8"?>
<svg width="1200pt" height="1200pt" version="1.1" viewBox="0 0 1200 1200" xmlns="http://www.w3.org/2000/svg">
 <path d="m40.02 740c0 99.238 251.2 180 560 180 308.52 0 559.52-80.641 559.96-179.76v-0.44141c-0.039063-6.7188 0-143.32 0-143.32-115.08 84.363-338.04 123.52-559.96 123.52-221.96 0-445-39.16-560.04-123.6 0 0 0.039062 136.84 0.039062 143.6z"/>
 <path d="m1160 876.48c-115.08 84.359-338.04 123.52-559.96 123.52-221.96 0-445-39.16-560.04-123.6v163.6c31 90 271.8 160 560.04 160s529-70 560-160z"/>
 <path d="m40.02 460c0 99.238 251.2 180 560 180 308.52 0 559.52-80.641 559.96-179.76v-0.44141c-0.039063-6.7188 0-143.32 0-143.32-115.08 84.363-338.04 123.52-559.96 123.52-221.96 0-445-39.16-560.04-123.6 0 0 0.039062 136.84 0.039062 143.6z"/>
 <path d="m1160 180c0 64.309-106.73 123.73-280 155.88-173.27 32.156-386.73 32.156-560 0-173.27-32.152-280-91.574-280-155.88s106.73-123.73 280-155.88c173.27-32.156 386.73-32.156 560 0 173.27 32.152 280 91.574 280 155.88z"/>
</svg>
