<?xml version="1.0" encoding="UTF-8"?>
<svg width="1200pt" height="1200pt" version="1.1" viewBox="0 0 1200 1200" xmlns="http://www.w3.org/2000/svg">
 <path d="m798 272-1.5-5.25-1.25-3.5-2.25-4.25c-2.3867-4.7266-5.4141-9.1016-9-13l-4.25-4.25-7-5.5c-5.2148-21.219-12.848-41.77-22.75-61.25-14.621-34.262-43.184-60.645-78.5-72.5-6.457-20.387-21.309-37.051-40.824-45.797s-41.836-8.7461-61.352 0-34.367 25.41-40.824 45.797c-35.316 11.855-63.879 38.238-78.5 72.5-9.5547 19.113-16.934 39.238-22 60l-7 5.5-4.25 4.25c-3.5859 3.8984-6.6133 8.2734-9 13l-2.25 4.25-1.25 3.5-1.5 5.25c-0.73828 2.4453-1.2422 4.957-1.5 7.5v8c-0.25781 3.1602-0.25781 6.3398 0 9.5 0.51953 2.9492 1.1875 5.8672 2 8.75 0.82422 2.7656 1.9102 5.4453 3.25 8 0 2 2 4 3.25 6 8.5078 16.211 23.824 27.77 41.75 31.5 3.6562 0.38281 7.3438 0.38281 11 0h275c3.6562 0.38281 7.3438 0.38281 11 0 17.645-3.0273 33.082-13.625 42.25-29 1.25-2 2.25-4 3.25-6 1.3398-2.5547 2.4258-5.2344 3.25-8 0.8125-2.8828 1.4805-5.8008 2-8.75 0.25781-3.1602 0.25781-6.3398 0-9.5v-8c-0.089844-2.9531-0.50781-5.8906-1.25-8.75z"/>
 <path d="m500 525c-27.391-16.969-50.02-40.629-65.75-68.75l-41.5 18.75z"/>
 <path d="m160.25 427.25c-3.2188-1.4648-6.7109-2.2344-10.25-2.25-4.7891 0.011719-9.4766 1.4023-13.5 4-7.1523 4.5898-11.484 12.5-11.5 21v75h25c33.152 0 64.945 13.168 88.387 36.613 23.445 23.441 36.613 55.234 36.613 88.387v50c0 33.152-13.168 64.945-36.613 88.387-23.441 23.445-55.234 36.613-88.387 36.613h-25v75c0.015625 4.6172 1.3047 9.1406 3.7344 13.066 2.4258 3.9258 5.8945 7.1055 10.016 9.1836l436.25 218.25v-165.5c0-8.9297 4.7656-17.184 12.5-21.652 7.7344-4.4648 17.266-4.4648 25 0 7.7344 4.4688 12.5 12.723 12.5 21.652v165.5l436.25-218.25c4.1211-2.0781 7.5898-5.2578 10.016-9.1836 2.4297-3.9258 3.7188-8.4492 3.7344-13.066v-75h-25c-33.152 0-64.945-13.168-88.387-36.613-23.445-23.441-36.613-55.234-36.613-88.387v-50c0-33.152 13.168-64.945 36.613-88.387 23.441-23.445 55.234-36.613 88.387-36.613h25v-75c-0.015625-8.5-4.3477-16.41-11.5-21-4.0234-2.5977-8.7109-3.9883-13.5-4-3.5391 0.015625-7.0312 0.78516-10.25 2.25l-175 78-211.25 94.75-28.5 56v94c0 8.9297-4.7656 17.184-12.5 21.652-7.7344 4.4648-17.266 4.4648-25 0-7.7344-4.4688-12.5-12.723-12.5-21.652v-94l-28.5-56-211-93.75z"/>
 <path d="m577.25 550 6 11.75 16.75 32.25 16.75-33.5 6-11.75c-15.121 1.6641-30.379 1.6641-45.5 0z"/>
 <path d="m765.5 455c-15.492 28.547-38.043 52.648-65.5 70l107.25-50z"/>
 <path d="m638.25 495.5h2.5c3.5586-0.97656 7.0664-2.1445 10.5-3.5l9.75-3.75 12.5-6.5 9-6.75c2.9609-1.8867 5.7227-4.0625 8.25-6.5 2.75-2.5 5.75-5 8.25-7.75s2.5-2.75 3.75-4l3.75-4.25c4.6875-5.5 8.9531-11.352 12.75-17.5 0.56641-0.75 0.98828-1.5977 1.25-2.5 2.25-3.75 4.5-7.5 6.5-11.5s4-8.5 5.75-12.75 2.25-5.5 3.25-8.25h-272.5c0 2.75 2 5.5 3.25 8.25s3.75 8.5 5.75 12.75 4.25 7.75 6.5 11.5c0.26172 0.90234 0.68359 1.75 1.25 2.5 3.7969 6.1484 8.0625 12 12.75 17.5l3.75 4.25c1.25 1.25 2.25 2.75 3.75 4s5.5 5.25 8.25 7.75c2.6406 2.3047 5.3945 4.4727 8.25 6.5l9 6 12.5 6.5 9.75 3.75c3.4336 1.3555 6.9414 2.5234 10.5 3.5h2.5c3.6094 1.0117 7.2852 1.7656 11 2.25 3.9609 0.77734 7.9688 1.2773 12 1.5h2l13.75 1.5h15.25c4.0312-0.22266 8.0391-0.72266 12-1.5 3.7344-0.73047 7.4102-1.7344 11-3z"/>
 <path d="m1075 575h-25c-19.891 0-38.969 7.9023-53.031 21.969-14.066 14.062-21.969 33.141-21.969 53.031v50c0 19.891 7.9023 38.969 21.969 53.031 14.062 14.066 33.141 21.969 53.031 21.969h25c19.891 0 38.969-7.9023 53.031-21.969 14.066-14.062 21.969-33.141 21.969-53.031v-50c0-19.891-7.9023-38.969-21.969-53.031-14.062-14.066-33.141-21.969-53.031-21.969z"/>
 <path d="m69.5 750 5.5 5.5 5.25 4.25c1.7344 1.3906 3.5703 2.6445 5.5 3.75l6 3.25 4.25 2c2.1641 1.0508 4.4258 1.8867 6.75 2.5 2.6797 0.98438 5.4414 1.7383 8.25 2.25 4.6172 0.88281 9.3008 1.3828 14 1.5h25c19.891 0 38.969-7.9023 53.031-21.969 14.066-14.062 21.969-33.141 21.969-53.031v-50c0-19.891-7.9023-38.969-21.969-53.031-14.062-14.066-33.141-21.969-53.031-21.969h-25c-4.6914 0.03125-9.375 0.44922-14 1.25-2.8086 0.51172-5.5703 1.2656-8.25 2.25-2.3047 0.67969-4.5586 1.5156-6.75 2.5l-4.25 2-6 3.25c-1.9297 1.1055-3.7656 2.3594-5.5 3.75l-5.25 4.25c-1.8945 1.4219-3.5781 3.1055-5 5-12.676 13.883-19.797 31.949-20 50.75v50c0.25 18.477 7.1758 36.234 19.5 50z"/>
</svg>
