<?xml version="1.0" encoding="UTF-8"?>
<svg width="1200pt" height="1200pt" version="1.1" viewBox="0 0 1200 1200" xmlns="http://www.w3.org/2000/svg">
 <path d="m1200 600c0 214.36-114.36 412.44-300 519.62-185.64 107.18-414.36 107.18-600 0-185.64-107.18-300-305.26-300-519.62s114.36-412.44 300-519.62c185.64-107.18 414.36-107.18 600 0 185.64 107.18 300 305.26 300 519.62z" fill="#fff"/>
 <path d="m245.23 775.44c-2.8047 2.7734-2.8047 7.3203 0 10.094l169.12 169.06c1.3594 1.3281 3.1602 2.0664 5.0469 2.0664 1.8906 0 3.7188-0.73828 5.0469-2.0664l530.33-530.04c2.7734-2.7734 2.7734-7.293 0-10.094l-169.12-169.06v0.03125c-1.3594-1.3594-3.1602-2.0977-5.0469-2.0977-1.8906 0-3.7188 0.73828-5.0469 2.0977l-80.914 80.855 72.914 72.914c2.7734 2.7734 2.7734 7.293 0 10.094-2.8047 2.7734-7.3203 2.7734-10.094 0l-72.914-72.914-79.555 79.473 72.914 72.914h0.03125c2.7734 2.8047 2.7734 7.3203 0 10.094-1.3594 1.3594-3.1602 2.0977-5.0469 2.0977-1.8906 0-3.7188-0.73828-5.0469-2.0977l-72.914-72.914-79.41 79.379 72.824 72.824h-0.03125c2.8047 2.7734 2.8047 7.293 0 10.094-2.7734 2.7734-7.293 2.7734-10.094 0l-72.824-72.824-79.645 79.613 72.766 72.766v-0.03125c2.8047 2.8047 2.8047 7.3203 0 10.094-1.3281 1.3594-3.1602 2.0977-5.0469 2.0977-1.8906 0-3.6914-0.73828-5.0469-2.0977l-72.766-72.766-79.41 79.32 72.797 72.797c2.7734 2.8047 2.7734 7.3203 0 10.094-1.3281 1.3594-3.1602 2.0977-5.0469 2.0977-1.8906 0-3.7188-0.73828-5.0469-2.0977l-72.797-72.797z"/>
</svg>
