<?xml version="1.0" encoding="UTF-8"?>
<svg width="1200pt" height="1200pt" version="1.1" viewBox="0 0 1200 1200" xmlns="http://www.w3.org/2000/svg">
 <path d="m1070.4 658.8h-388.8l74.398-116.4h314.4c55.199 0 99.602-44.398 99.602-99.602 0-55.199-44.398-99.602-99.602-99.602h-186l73.199-112.8c30-46.801 16.801-108-30-138-46.801-30-108-16.801-138 30l-142.8 219.6h-517.2c-55.199 0-99.602 44.398-99.602 99.602 0 55.199 44.398 99.602 99.602 99.602h388.8l-74.402 117.6h-314.4c-55.199 0-99.602 44.398-99.602 99.602 0 55.199 44.398 99.602 99.602 99.602h186l-73.199 112.8c-30 46.801-16.801 108 30 138 16.801 10.801 34.801 15.602 54 15.602 32.398 0 64.801-15.602 84-45.602l141.6-220.8h517.2c55.199 0 99.602-44.398 99.602-99.602 1.1953-55.203-43.203-99.602-98.406-99.602z"/>
</svg>
