<?xml version="1.0" encoding="UTF-8"?>
<svg width="1200pt" height="1200pt" version="1.1" viewBox="0 0 1200 1200" xmlns="http://www.w3.org/2000/svg">
 <path d="m1015.2 204c0 59.648-48.352 108-108 108-59.645 0-108-48.352-108-108s48.355-108 108-108c59.648 0 108 48.352 108 108z"/>
 <path d="m1165.2 601.2c-102-213.6-129.6-226.8-142.8-234-32.398-16.801-72-25.199-114-25.199s-84 9.6016-115.2 25.199c-13.199 7.1992-40.801 20.398-142.8 232.8-10.801 21.602-4.8008 49.199 15.602 62.398 8.3984 6 16.801 8.3984 26.398 8.3984 18 0 34.801-9.6016 43.199-26.398 19.199-39.602 40.801-82.801 61.199-120l-19.199 525.6c-1.1992 30 22.801 55.199 52.801 56.398 30 1.1992 55.199-22.801 56.398-52.801l12-332.4c0-6 6-12 12-12s10.801 3.6016 12 9.6016l61.203 342c4.8008 26.398 27.602 44.398 52.801 44.398 3.6016 0 7.1992 0 9.6016-1.1992 30-6 49.199-33.602 43.199-63.602l-66-358.8-6-158.4c19.199 36 42 79.199 61.199 120 13.199 26.398 46.801 36 72 16.801 19.199-13.199 24-38.398 14.398-58.801z"/>
 <path d="m406.8 366c-31.199-15.602-68.398-24-108-24-40.801 0-79.199 8.3984-109.2 24-10.801 6-37.199 19.199-152.4 208.8-13.199 22.801-6 51.602 15.602 64.801 7.1992 4.8008 15.602 7.1992 25.199 7.1992 15.602 0 31.199-8.3984 40.801-22.801 26.398-43.199 56.398-90 80.398-124.8-10.801 58.801-34.801 140.4-91.199 238.8-14.398 25.199 8.3984 45.602 48 57.602l-56.402 236.4c-6 27.602 10.801 55.199 38.398 62.398 3.6016 1.1992 8.3984 1.1992 12 1.1992 24 0 44.398-15.602 50.398-39.602l56.398-243.6c18 1.1992 36 1.1992 54 0l2.4023 231.61c0 28.801 22.801 51.602 51.602 51.602s51.602-24 51.602-51.602l-2.3984-247.2c40.801-13.199 66-33.602 54-63.602-34.801-86.398-54-164.4-63.602-223.2 22.801 33.602 50.398 76.801 73.199 115.2 13.199 22.801 43.199 30 64.801 15.602 22.801-13.199 30-43.199 15.602-64.801-114-192-140.4-205.2-151.2-210z"/>
 <path d="m405.6 202.8c0 59.645-48.355 108-108 108-59.648 0-108-48.355-108-108 0-59.648 48.352-108 108-108 59.645 0 108 48.352 108 108z"/>
</svg>
