<?xml version="1.0" encoding="UTF-8"?>
<svg width="1200pt" height="1200pt" version="1.1" viewBox="0 0 1200 1200" xmlns="http://www.w3.org/2000/svg">
 <path d="m1200 600c0 214.36-114.36 412.44-300 519.62-185.64 107.18-414.36 107.18-600 0-185.64-107.18-300-305.26-300-519.62s114.36-412.44 300-519.62c185.64-107.18 414.36-107.18 600 0 185.64 107.18 300 305.26 300 519.62z" fill="#ffd65b"/>
 <path d="m472.46 787.17c0-24.469-20.027-44.496-44.535-44.496h-21.441c-4.7305 0-8.5781 3.8398-8.5781 8.5312v127.91h-33.492v-231.05c0-7.5664-9.2188-11.449-14.602-6.0703l-13.914 13.914c-12.461 12.461-16.262 31.105-9.9922 47.488 2.2656 5.8281 1.0508 11.691-2.9102 16.219-8.457 9.6289-24.312 7.082-28.84-5.3438-10.352-28.27-3.6406-60.391 18.039-82.07l36.449-36.449c7.2773-7.2773 15.695-10.762 25.965-10.762h69.207c14.441 0 27.34-5.3438 37.535-15.531l39.805-39.805c5.3438-5.3438 11.73-5.8281 16.949-3.5234 4.2109 1.8594 6.1523 4.125 8.6992 7.4062 3.9688 5.9492 4.2852 13.586-1.9414 19.824l-88.586 88.547c-1.5781 1.5781-2.5938 3.7188-2.5938 6.1523v59.625h0.039062c0 3.3164 1.9414 6.4688 5.1406 7.8438 28.398 12.297 47.082 40.332 47.082 71.641v14.32h-33.492v-14.32zm-63.426-219.29c14.805 0 26.82-12.016 26.82-26.82s-12.016-26.82-26.82-26.82c-14.805 0-26.82 12.016-26.82 26.82s12.016 26.82 26.82 26.82zm467.41-276.68h-17.109v45.145c6.3945 1.2148 12.297 4.3672 17.109 8.8203zm-170.18 129c14.805 0 26.82-12.016 26.82-26.82 0-14.805-12.016-26.82-26.82-26.82-14.805 0-26.82 12.016-26.82 26.82 0 14.805 12.016 26.82 26.82 26.82zm-382.46 539.41h131.5v-63.391h-131.5zm445.89 0h131.46v-288.7h-131.46zm-297.23 0h131.46v-141.01h-131.46zm431.08-706.71 7.082-12.5h-51.289v33.652h51.289l-7.1562-12.621c-1.5781-2.75-1.457-5.9844 0.082031-8.5312zm-282.46 706.71h131.46v-211.07h-131.46zm148.62-305.81h33.492v-14.32c0-31.309-18.652-59.34-47.043-71.633-3.2344-1.4141-5.1758-4.5273-5.1758-7.8438h-0.039062v-59.625c0-2.4258 1.0117-4.5703 2.5938-6.1523l112.77-112.77c14.926-14.926-8.7812-38.586-23.707-23.66l-63.992 63.992c-10.195 10.195-23.059 15.531-37.5 15.531h-69.207c-10.316 0-18.727 3.4766-26.012 10.762l-81.754 81.754c4.8125 11.207 3.9219 24.555-7.1562 35.641l-1.6992 1.6992c6.6719 4.8125 14.277 4.6562 20.426-1.4961l71.355-71.355c5.3789-5.3789 14.602-1.4961 14.602 6.0703v231.05h33.531v-127.91c0-4.7305 3.8008-8.5312 8.5312-8.5312h21.477c24.469 0 44.496 20.027 44.496 44.496v14.32z"/>
</svg>
