<?xml version="1.0" encoding="UTF-8"?>
<svg width="1200pt" height="1200pt" version="1.1" viewBox="0 0 1200 1200" xmlns="http://www.w3.org/2000/svg">
 <path d="m1200 600c0 214.36-114.36 412.44-300 519.62-185.64 107.18-414.36 107.18-600 0-185.64-107.18-300-305.26-300-519.62s114.36-412.44 300-519.62c185.64-107.18 414.36-107.18 600 0 185.64 107.18 300 305.26 300 519.62z" fill="#12b0fb"/>
 <path d="m559.03 440.98c0 14.906-12.074 26.98-26.98 26.98s-26.98-12.074-26.98-26.98c0-25.27 9.9492-49.27 27.809-67.129s41.891-27.809 67.129-27.809c25.27 0 49.27 9.9492 67.129 27.809 17.859 17.859 27.809 41.891 27.809 67.129 0 15.852-3.9844 31.352-11.57 45.285-7.5586 13.902-18.508 25.742-31.793 34.363-7.6172 4.9297-14.023 11.426-18.391 19.426-4.3086 8-6.1992 16.914-6.1992 25.977v15.055c0 14.906-12.074 26.98-26.98 26.98s-26.98-12.074-26.98-26.98v-15.055c0-18.125 4.25-35.75 12.93-51.66 8.6484-15.91 21.168-29.02 36.34-38.848 5.7852-3.75 10.566-8.8867 13.844-14.938 3.2773-6.0234 4.8711-12.723 4.8711-19.57 0-10.922-4.2812-21.254-12.016-28.988-7.7031-7.7031-18.066-12.016-28.988-12.016-10.922 0-21.254 4.2812-28.988 12.016-7.7031 7.7031-11.984 18.066-11.984 28.957zm40.973 201.56c15.5 0 28.043 12.547 28.043 28.043 0 15.5-12.547 28.043-28.043 28.043s-28.043-12.547-28.043-28.043c0-15.469 12.547-28.043 28.043-28.043zm-265.15-361.44c-37.105 0-67.363 30.258-67.363 67.363v347.8c0 37.105 30.258 67.363 67.363 67.363h37.488c0 45.488-4.3984 88.828-25.832 130.78-3.2188 6.3164-2.2734 13.609 2.4492 18.895 4.7539 5.2852 11.867 7.0273 18.508 4.5156 88.645-33.652 135.38-93.105 167.05-154.21h330.62c37.105 0 67.363-30.258 67.363-67.363v-347.8c0-37.105-30.258-67.363-67.363-67.363z" fill="#fff" fill-rule="evenodd"/>
</svg>
