<?xml version="1.0" encoding="UTF-8"?>
<svg width="1200pt" height="1200pt" version="1.1" viewBox="0 0 1200 1200" xmlns="http://www.w3.org/2000/svg">
 <path d="m1067.6 507.94h-48.844c-9.8438 0-18.469-6.6094-21-15.938-9.2344-33.703-22.688-66.234-40.078-96.703-4.9219-8.3906-3.4688-19.219 3.4688-26.156l35.062-35.062c14.625-14.625 14.625-38.531 0-53.156l-77.016-76.922c-7.2188-7.0781-16.547-11.062-26.625-11.062-9.9375 0-19.453 3.9375-26.531 11.062l-34.922 35.062c-6.9375 6.8438-17.766 8.2969-26.297 3.4688-30.234-17.391-62.531-30.844-96.141-39.938-9.375-2.625-15.938-11.297-15.938-21v-49.219c0-20.625-16.922-37.547-37.547-37.547h-108.84c-20.766 0-37.547 16.922-37.547 37.547v48.609c0 9.8438-6.6094 18.469-16.078 21-33.609 9.1406-66 22.453-96.375 39.703-8.5312 4.7812-19.219 3.375-26.156-3.6094l-34.688-34.688c-14.625-14.625-38.531-14.625-53.156 0l-76.922 77.062c-7.2188 7.0781-11.062 16.453-11.062 26.531 0 9.9375 3.8438 19.453 11.062 26.531l34.078 34.219c6.9375 6.9375 8.3906 17.766 3.4688 26.297-17.859 30.703-31.547 63.703-40.781 98.062-2.625 9.375-11.297 15.938-21.141 15.938h-48.844c-20.625 0-37.453 16.922-37.453 37.547v108.94c0 20.625 16.781 37.547 37.453 37.547h48.938c9.8438 0 18.469 6.6094 21 15.938 9.1406 33.844 22.688 66.469 40.219 96.938 4.9219 8.5312 3.4688 19.312-3.4688 26.156l-34.219 34.219c-7.0781 7.0781-10.922 16.453-10.922 26.531 0 9.9375 3.8438 19.453 10.922 26.531l77.062 77.062c7.0781 7.0781 16.453 11.062 26.531 11.062s19.453-3.9375 26.531-11.062l34.219-34.219c6.9375-6.9375 17.766-8.3906 26.297-3.4688 30.609 17.531 63.375 31.078 97.453 40.219 9.4688 2.5312 16.078 11.156 16.078 21v48.703c0 20.625 16.781 37.547 37.547 37.547h108.84c20.625 0 37.547-16.922 37.547-37.547v-49.219c0-9.8438 6.6094-18.469 15.938-21 33.938-9.2344 66.609-22.922 97.219-40.547 8.5312-4.9219 19.312-3.4688 26.297 3.4688l34.547 34.453c7.0781 7.0781 16.453 11.062 26.531 10.922 9.9375 0 19.453-3.8438 26.531-10.922l77.062-77.062c14.531-14.625 14.531-38.391 0-53.062l-35.062-35.156c-6.9375-6.8438-8.3906-17.625-3.6094-26.156 17.156-30 30.375-62.156 39.375-95.297 2.625-9.4688 11.297-16.078 21-16.078h48.938c20.766 0 37.547-16.922 37.547-37.547v-108.94c0.09375-20.672-16.734-37.594-37.5-37.594zm-227.16 194.21c-0.46875 56.391-46.547 101.86-102.84 101.86h-0.9375c-9.375-0.14062-18.469-1.4531-27.375-3.9375l-0.9375 109.92c0 2.0625-0.9375 4.0781-2.3906 5.5312s-3.4688 2.2969-5.5312 2.2969l-86.156-0.84375c-4.3125 0-7.7812-3.6094-7.7812-7.9219l0.46875-48.375c0.46875-50.062-19.312-88.453-58.547-114.14-9 2.3906-18.234 3.6094-27.609 3.4688-47.625-0.375-87.938-33.141-98.859-78.234-19.453 15.141-43.219 23.156-68.156 22.922-60.703-0.60938-109.69-50.391-109.08-111.14 0.375-40.078 21.938-76.078 56.859-95.297-0.14062-2.1562-0.23438-4.3125-0.23438-6.6094 0.46875-45.703 35.625-84.141 80.766-88.922 17.391-20.531 42.609-32.156 69.703-31.922 2.625 0.14062 5.2969 0.23438 7.7812 0.46875 16.922-17.156 40.078-26.859 64.312-26.859h0.84375c15.234 0.14062 30.141 4.2188 43.453 11.625 15.844-12 35.156-18.469 55.219-18.234 19.312 0.14062 37.547 6.2344 52.922 17.625 1.9219-0.14062 3.9375-0.14062 6-0.14062 28.312 0.23438 54.703 13.781 71.531 36.375 40.922 2.2969 74.859 31.219 83.531 70.922 35.062 13.453 58.219 47.156 57.844 85.219-0.14062 14.297-3.7031 28.453-10.312 41.062 6.375 12.703 9.6094 27 9.4688 41.391-0.23438 35.391-21.703 67.547-53.859 81.703z"/>
 <path d="m869.06 582.71c-1.3125-2.5312-1.3125-5.5312 0.14062-7.9219 6.6094-11.156 10.219-24 10.312-37.219 0.23438-32.625-20.391-61.453-51.469-71.531-2.7656-0.9375-4.7812-3.375-5.2969-6.2344-5.8594-35.859-36.469-62.156-72.938-62.531-2.5312 0-5.0625-1.3125-6.4688-3.4688-13.781-20.297-36.609-32.531-61.219-32.766-2.5312-0.14062-5.0625 0-7.4531 0.23438-2.0625 0.23438-4.0781-0.375-5.625-1.6875-1.2188-0.9375-2.3906-1.9219-3.7031-2.7656-0.70312 2.625-2.7656 4.9219-5.625 5.625-31.922 7.7812-34.688 65.531-34.688 66-0.23438 4.3125-3.7031 7.5469-7.9219 7.5469h-0.375c-4.3125-0.14062-7.6875-3.8438-7.4531-8.1562 0.14062-2.7656 3.1406-64.453 41.391-78.938-8.625-3.6094-17.859-5.3906-27.375-5.5312h-0.70312c-17.859 0-35.156 6.4688-48.609 18.141-2.625 2.2969-6.4688 2.5312-9.4688 0.60938-11.859-7.6875-25.688-11.859-39.938-12-21.375-0.23438-41.766 8.7656-56.062 24.703-1.7812 1.9219-4.4531 2.8594-6.9375 2.5312-3.2344-0.46875-6.4688-0.70312-9.8438-0.84375-18-0.23438-35.062 6-48.469 17.391 21.141 3.1406 37.078 8.1562 37.922 8.3906 4.0781 1.3125 6.375 5.7656 5.0625 9.9375-1.0781 3.2344-4.2188 5.3906-7.4531 5.3906-0.84375 0-1.6875-0.14062-2.3906-0.375-0.23438-0.14062-22.688-7.2188-48.469-9.375h-0.14062c-0.375 0-0.84375 0.14062-1.2188 0.14062-38.625 2.625-69.141 35.062-69.469 73.688 0 3.4688 0.23438 6.8438 0.60938 9.9375 0.23438 1.4531 0 2.7656-0.46875 3.9375 5.1562 17.531 13.688 37.547 24.938 59.766 2.0625 3.8438 0.46875 8.5312-3.375 10.547-1.0781 0.60938-2.3906 0.84375-3.6094 0.84375-2.7656 0-5.5312-1.5469-6.9375-4.2188-10.781-21-19.078-40.219-24.609-57.375-26.531 17.062-42.844 46.219-43.219 78.375-0.46875 52.078 41.391 94.781 93.469 95.297h0.84375c25.453 0 49.219-9.9375 66.938-27.938 2.1562-2.1562 5.3906-2.8594 8.2969-1.9219 2.8594 1.0781 4.7812 3.6094 5.1562 6.7031 4.3125 44.297 41.156 78.141 85.922 78.469 9 0.14062 17.766-1.2188 26.297-3.7031 2.1562-0.70312 4.4531-0.375 6.375 0.84375 31.781 19.688 69.609 58.219 69 129.37l-0.375 40.547 70.312 0.60938 1.0781-112.92c0-2.625 1.3125-5.0625 3.4688-6.4688 2.2969-1.4531 4.9219-1.6875 7.4531-0.70312 10.219 4.2188 21 6.375 32.297 6.4688h0.70312c47.766 0 86.766-38.531 87.141-86.297v-5.8594c6.7031-73.547-78.844-107.16-79.688-107.39-4.0781-1.5469-6.1406-6.1406-4.5469-10.219 1.5469-4.0781 6-6.1406 10.078-4.5469 0.9375 0.375 87.469 34.078 90.141 110.3 22.781-12.844 37.688-37.453 37.922-64.219 0.14062-12.984-3.0938-25.922-9.6562-37.219zm-502.92-103.31c1.3125-4.2188 5.7656-6.375 9.8438-5.0625 31.219 10.312 56.062 10.688 73.781 1.2188 17.062-9 21.469-24 21.703-24.703 1.2188-4.0781 5.5312-6.6094 9.6094-5.3906 4.2188 1.0781 6.7031 5.3906 5.5312 9.6094-0.23438 0.84375-6.1406 21.844-29.062 34.219-10.922 5.8594-23.625 8.7656-38.156 8.7656-14.391 0-30.609-2.8594-48.375-8.7656-4.0781-1.3594-6.4688-5.8125-4.875-9.8906zm126.71 93.469c-3.2344 2.7656-8.2969 2.3906-11.062-0.9375-1.7812-2.0625-45.328-51.844-85.781-22.312-15.609 11.531-24.703 23.391-26.297 34.547-1.4531 9.6094 3.2344 15.609 3.375 15.844 2.625 3.375 2.1562 8.2969-1.2188 11.062-1.4531 1.0781-3.2344 1.6875-4.9219 1.6875-2.2969 0-4.5469-0.9375-6-2.8594-0.9375-1.0781-9-11.297-6.9375-27.234s13.078-31.219 32.766-45.609c41.859-30.609 88.219 2.8594 106.92 24.703 2.7656 3.3281 2.3906 8.25-0.84375 11.109zm47.625-119.02c-0.14062-4.3125 3.2344-7.9219 7.5469-8.0625 1.7812-0.14062 44.297-1.0781 65.062 23.391 10.219 12 13.453 27.469 9.7031 46.312-0.84375 3.7031-4.0781 6.2344-7.7812 6.2344-0.46875 0-0.9375 0-1.4531-0.14062-4.3125-0.84375-7.0781-5.0625-6.2344-9.2344 2.7656-13.922 0.84375-24.703-6.1406-33-15.938-18.703-52.312-17.859-52.688-17.859-4.1719 0.14062-7.875-3.3281-8.0156-7.6406zm215.39 223.78c2.625-3.4688 7.5469-4.2188 11.062-1.5469 3.4688 2.5312 4.2188 7.4531 1.5469 10.922-15.375 20.625-33.609 32.391-54.469 34.781-2.7656 0.375-5.5312 0.46875-8.1562 0.46875-30.938 0-55.078-19.922-56.156-20.766-3.375-2.8594-3.8438-7.7812-0.9375-11.156 2.7656-3.2344 7.6875-3.7031 11.062-0.9375 0.23438 0.23438 21 17.156 46.078 17.156 2.1562 0 4.3125-0.14062 6.4688-0.375 16.266-1.875 30.797-11.484 43.5-28.547zm-9.3281-165.71c-28.922 42.703-61.078 64.312-95.531 64.312h-0.46875c-0.46875 0-1.0781 0-1.5469-0.14062 19.781 29.156 14.297 71.766 13.922 74.062-0.46875 3.9375-3.8438 6.8438-7.7812 6.8438-0.375 0-0.70312-0.14062-1.0781-0.14062-4.2188-0.60938-7.2188-4.5469-6.7031-8.8594 0.14062-0.70312 7.7812-61.547-29.391-78.375-0.14062-0.14062-0.23438-0.14062-0.375-0.23438-40.922-16.312-68.156-57.141-69.609-59.297-2.3906-3.6094-1.3125-8.5312 2.2969-10.922s8.3906-1.3125 10.781 2.2969c0.46875 0.70312 25.781 38.297 61.688 53.156 0.70312 0.23438 1.5469 0.60938 2.2969 0.9375 8.1562 3 16.688 4.9219 25.688 4.9219h0.375c28.922 0 56.625-19.312 82.453-57.469 2.5312-3.4688 7.3125-4.4531 10.922-2.0625 3.4688 2.4375 4.3125 7.3594 2.0625 10.969zm34.406 28.781c-0.9375 3.4688-4.2188 5.7656-7.6875 5.7656-0.60938 0-1.3125 0-2.0625-0.23438-4.0781-1.0781-6.6094-5.3906-5.5312-9.6094 4.9219-18.609 3.1406-33.234-5.5312-43.688-19.219-23.156-65.531-20.391-66-20.391-4.2188 0.23438-8.0625-3-8.2969-7.3125-0.375-4.3125 3-8.0625 7.3125-8.2969 2.1562-0.14062 54.844-3.375 79.078 26.062 12 14.531 15 33.938 8.7188 57.703z"/>
</svg>
