<?xml version="1.0" encoding="UTF-8"?>
<svg width="1200pt" height="1200pt" version="1.1" viewBox="0 0 1200 1200" xmlns="http://www.w3.org/2000/svg">
 <path d="m1200 600c0 214.36-114.36 412.44-300 519.62-185.64 107.18-414.36 107.18-600 0-185.64-107.18-300-305.26-300-519.62s114.36-412.44 300-519.62c185.64-107.18 414.36-107.18 600 0 185.64 107.18 300 305.26 300 519.62z" fill="#ffd65b"/>
 <path d="m912.33 392.11c-8.1094-4.0352-18.266-6.0703-18.266-6.0703-3.5898-0.78516-11.715-1.9727-17.555-1.9727-42.691 0-87.715 37.875-112.05 94.262-14.043 32.547-19.129 66.836-14.328 96.566 4.8828 30.199 19.43 53.988 40.98 64.938l-22.414 49.711c-4.707 1.375-9.332 3.2266-13.641 6.0742l-86.176 57.051s-123.56-186.02-123.87-186.44c-14.547-26.078-60.879-51.984-105.4-39.484-104.8 31.992-197.2 228.39-208.27 344.43l317.76 0.089844 5.8555-77.543-92.23-140.69c-2.668-4.0664-1.5352-9.5156 2.5312-12.184 4.0586-2.6758 9.5-1.5195 12.176 2.5312l137.92 208.46c9.6953 12.734 24.453 19.664 39.562 19.664 9.4453 0 18.984-2.6836 27.449-8.2969l127.68-84.527c22.938-15.184 29.223-46.09 14.027-69.027-5.9844-9.0469-14.457-15.387-23.871-18.961l17.281-38.316c7.8516 2.5391 15.906 3.8242 24.047 3.8242 17.402 0 35.109-5.7891 51.848-17.164 24.16-16.43 45.539-44.188 60.199-78.156 30.789-71.367 11.305-142.58-41.254-168.77zm-2.8203 148.81c-19.785 45.871-57.246 79.152-89.07 79.152-5.7148 0-11.125-1.0898-16.121-3.2422-15.305-6.5898-25.785-22.906-29.52-45.941-4.0508-25.082 0.42969-54.434 12.598-82.668 19.801-45.863 57.27-79.16 89.105-79.16 5.6914 0 11.109 1.0898 16.066 3.2188 33.098 14.293 40.852 73.199 16.941 128.64z" fill="#fff"/>
 <path d="m558.75 541.15c50.156 29.723 114.97 13.105 144.68-37.039 29.746-50.211 13.133-115.01-37.016-144.73-50.246-29.762-115-13.141-144.75 37.066-29.723 50.152-13.156 114.95 37.09 144.7z" fill="#fff"/>
 <path d="m847.03 467.09c9.1953-8.9258 18.629-12.719 25.859-10.406 4.2227 1.3281 7.793 4.6836 10.586 9.9688 2.0391 3.8086 6.75 5.2734 10.578 3.2344 3.8242-2.0234 5.2617-6.7617 3.2422-10.578-4.7305-8.9102-11.539-14.969-19.688-17.547-13.098-4.1641-27.824 0.84766-41.48 14.094-12.402 12.039-22.777 29.805-29.207 50.035-3.9453 12.477-6.2031 25.375-6.5312 37.301-0.12109 4.3242 3.293 7.9141 7.6172 8.0352h0.20313c4.2305 0 7.6992-3.3633 7.8125-7.6172 0.28906-10.48 2.2891-21.887 5.8203-32.988 5.6562-17.805 14.598-33.262 25.188-43.531z" fill="#fff"/>
</svg>
