<?xml version="1.0" encoding="UTF-8"?>
<svg width="1200pt" height="1200pt" version="1.1" viewBox="0 0 1200 1200" xmlns="http://www.w3.org/2000/svg">
 <path d="m350.81 99.328c-92.766 268.74-185.53 537.47-278.29 806.16-8.0625 17.625-11.578 41.625-12.516 62.109-0.14062 5.8125-0.32812 48.375 12.656 73.688 0.9375 1.7344 2.7188 2.9531 4.7344 3.1406l873.79 95.438c3.0938 0.32812 6-1.6875 6.6094-4.6875l182.11-878.26c0.65625-3.2344-1.4531-6.3281-4.7344-6.9844l-55.875-10.922c-4.0781-6.4219-7.9219-12.984-11.766-19.547l23.25-92.859c0.89062-3.5156-1.6406-6.9844-5.3438-7.3125l-692.16-59.344c-21.234 3.3281-32.859 17.859-42.469 39.375zm45.938-27.141-287.9 833.11-22.734-1.9688 276.05-799.64v-0.046875c6.7969-18.609 21.469-31.031 34.594-31.453zm85.922 83.203 424.97 46.219-58.125 261.32-436.6-46.172zm580.78 80.953 27.141 44.25-167.06 805.4c-27.469-30.375-38.109-61.359-38.812-101.86l17.625 1.5469c3.0938 0.28125 5.8594-1.7812 6.5156-4.7344zm-981.74 678.52 790.82 68.25c0.5625 41.719 11.766 75.891 39.188 107.67l-838.03-92.531c-1.0781-8.6719-1.7344-18.797-1.5469-30.422 0.42188-25.828 6.4688-44.859 9.5625-52.969z" fill-rule="evenodd"/>
</svg>
