<?xml version="1.0" encoding="UTF-8"?>
<svg width="1200pt" height="1200pt" version="1.1" viewBox="0 0 1200 1200" xmlns="http://www.w3.org/2000/svg">
 <path d="m250 275c-56.156 0-100 51.148-100 112.5s43.844 112.5 100 112.5 100-51.148 100-112.5-43.844-112.5-100-112.5zm275 0c-41.422 0-75 33.578-75 75v125c0 13.711 11.289 24.867 25 25 14.113 0.13672 98.387 0.64453 112.5 0.78125 3.2188 0.03125 6.3828-0.38281 9.375-1.5625l196.09-77.344c0.89453-0.19141 1.6133 0.25391 3.125 0 12.051-2.0234 24.539-1.9844 35.938 1.5625 12.77 3.9766 22.32 12.094 28.906 25.781 13.844 28.773 10.586 45.879-3.125 58.594-4.8867 4.5273-10.184 6.9062-12.5 7.8125l-169.53 78.125c-6.8242 3.1484-11.41 9.1289-13.281 16.406-0.57422 2.2344-1.9062 6.7461-3.9062 12.5-3.3516 9.6445-7.8398 19.312-12.5 28.125-3.6328 6.875-6.957 12.961-10.938 17.969-4.0312 5.0742-9.332 10.254-14.844 14.844-6.707 5.5898-13.805 9.9844-21.094 14.062-2.7539 1.543-3.7852 2.3125-5.4688 3.125l-118.75-0.78125c-13.848-0.058594-25 11.148-25 25v125c0 41.422 33.578 75 75 75h575c41.422 0 75-33.578 75-75v-500c0-41.422-33.578-75-75-75zm284.38 176.56c-5.9258-2.4141-12.387-1.8984-18.75 0.78125l-205.47 85.938c-10.082-5.4688-18.918-13.281-31.25-13.281h-353.91c-25.359 0-50.379 6.0078-74.219 17.188-25.477 11.949-47.035 31.156-65.625 56.25-14.262 19.281-22.797 34.051-28.125 51.562-4.8828 16.055-7.0312 32.594-7.0312 50v131.25c0 40.172 28.578 71.875 68.75 71.875 0 0 11.027-1.4766 18.75-3.9062 7.7227-2.4336 12.5-5.4688 12.5-5.4688v6.25c0 13.809 11.191 25 25 25h200c13.809 0 25-11.191 25-25v-225h178.91c39.41 0 71.094-31.684 71.094-71.094v-7.8125c0-6.7422-5.2969-11.016-7.0312-17.188l191.41-81.25c12.727-5.3594 18.641-19.305 13.281-32.031-2.6797-6.3633-7.3555-11.648-13.281-14.062z"/>
</svg>
