<?xml version="1.0" encoding="UTF-8"?>
<svg width="1200pt" height="1200pt" version="1.1" viewBox="0 0 1200 1200" xmlns="http://www.w3.org/2000/svg">
 <path d="m783.84 519.14c0-14.156-11.531-25.688-25.688-25.688s-25.688 11.531-25.688 25.688 11.531 25.688 25.688 25.688 25.688-11.531 25.688-25.688z"/>
 <path d="m378.94 498.05c-91.781 0-166.45 74.672-166.45 166.45s74.672 166.45 166.45 166.45 166.45-74.672 166.45-166.45-74.672-166.45-166.45-166.45zm48.234 258.1c-0.42188 0.23438-23.484 11.016-52.641 11.016-27.234 0-59.766-9.4219-84.094-45.75-1.8281-2.7656-1.125-6.4688 1.6406-8.2969s6.4688-1.125 8.3438 1.6406c44.531 66.469 118.41 32.156 121.55 30.609 3-1.4062 6.5625-0.1875 8.0156 2.8125 1.4062 2.9531 0.14062 6.5156-2.8125 7.9688z"/>
 <path d="m630.37 605.72c14.156 0 25.641-11.531 25.641-25.688s-11.531-25.688-25.641-25.688c-14.203 0-25.688 11.531-25.688 25.688 0 14.203 11.531 25.688 25.688 25.688z"/>
 <path d="m678.52 748.08c-35.109-57.328-77.672-69.234-104.25-55.734-22.594 11.578-38.203 44.859-19.172 90.797l121.69 217.82c1.6406 2.9062 0.60938 6.5625-2.2969 8.1562-0.9375 0.51562-1.9219 0.75-2.9062 0.75-2.1094 0-4.125-1.125-5.25-3.0938l-50.203-89.906c-25.734-25.172-64.078-53.531-101.53-46.734-0.14062 0.046875-0.28125-0.046875-0.42188 0-6.9844 1.5938-51.938 11.344-107.72 11.344-68.953 0-154.31-14.906-204.42-78.609h-0.046875c-13.734-15.422-67.078-55.125-108.66-39.234-37.5 14.25-57.328 71.578-57.328 165.74v166.27c0 49.406 59.672 50.156 62.203 50.156h280.74c30.422 0 55.172-24.75 55.172-55.172 0-30.422-24.75-55.172-55.172-55.172h-218.58c-3.3281 0-6-2.6719-6-6v-102.23c0-3.3281 2.6719-6 6-6 3.3281 0 6 2.6719 6 6v96.281h212.58c37.031 0 67.172 30.141 67.172 67.172 0 22.828-11.484 43.031-28.969 55.172h88.125v-120.14c0-0.09375 0.046874-0.1875 0.046874-0.32812 0.046876-0.375 0.14063-0.79688 0.23438-1.1719s0.1875-0.79688 0.375-1.125c0.046874-0.09375 0.046874-0.23438 0.09375-0.32812 0.14062-0.23438 0.32812-0.375 0.51562-0.60938 0.23438-0.32812 0.46875-0.65625 0.79688-0.9375 0.28125-0.28125 0.60937-0.46875 0.9375-0.65625 0.32812-0.1875 0.65625-0.375 0.98437-0.51562 0.375-0.14062 0.79688-0.1875 1.2188-0.23438 0.28125-0.046875 0.46875-0.14062 0.75-0.14062 0.09375 0 0.1875 0.046875 0.32813 0.046875 0.375 0.046875 0.75 0.14062 1.1719 0.23438 0.42188 0.09375 0.79688 0.1875 1.1719 0.375 0.09375 0.046875 0.1875 0.046875 0.28125 0.09375l172.26 96.141c67.125 32.438 114.52 37.969 137.06 15.938 23.953-23.531 16.125-75.984 3.2344-104.16z"/>
 <path d="m1006.8 255.84c-10.688-19.078-49.359-80.625-119.44-119.25l-90.422 209.72zm-43.641-12.797c0 12.656-10.312 22.969-22.969 22.969s-22.922-10.312-22.922-22.969 10.266-22.969 22.922-22.969c12.656-0.046875 22.969 10.266 22.969 22.969zm-56.578-72.234c12.516 0 22.688 10.172 22.688 22.734 0 12.516-10.172 22.688-22.688 22.688s-22.688-10.172-22.688-22.688 10.172-22.734 22.688-22.734zm-30.469 70.734c12.516 0 22.688 10.172 22.688 22.734 0 12.516-10.172 22.688-22.688 22.688s-22.688-10.172-22.688-22.688c0-12.562 10.172-22.734 22.688-22.734z"/>
 <path d="m1032.6 239.48-0.14062-0.14062c-0.375-0.84375-41.203-83.297-128.68-128.63l-0.09375-0.09375c-0.046875-0.046875-0.09375-0.046875-0.14062-0.046875-9.9375-5.7188-12-3.6562-14.625-1.0312-2.5312 2.5312-4.0312 5.7656-3.8906 8.4844 0.09375 1.875 1.0312 3.5156 2.7188 5.0156 87 45.469 128.06 123.56 132.61 132.61 1.4531 1.6406 3.0469 2.5312 4.875 2.625 2.7188 0.1875 5.9531-1.3594 8.4375-3.8906 2.625-2.625 4.6875-4.6875-1.0312-14.625 0-0.14062 0-0.1875-0.046875-0.28125z"/>
 <path d="m1109.5 180.98c-0.28125-0.09375-0.51562-0.28125-0.79688-0.42188-0.375-0.1875-0.70312-0.28125-1.0312-0.51562s-0.60938-0.51562-0.84375-0.84375c-0.23438-0.28125-0.51562-0.51562-0.70312-0.84375-0.23438-0.32812-0.32812-0.75-0.46875-1.125-0.14062-0.32812-0.28125-0.65625-0.32812-0.98438-0.09375-0.42188-0.046875-0.84375-0.046875-1.2656 0-0.28125-0.09375-0.5625-0.046875-0.84375 5.8125-32.906-11.109-66.047-41.203-80.625-30.094-14.625-66.609-7.4062-88.781 17.578-0.14062 0.14062-0.28125 0.1875-0.375 0.28125-0.28125 0.28125-0.60938 0.46875-0.9375 0.70312s-0.70312 0.42188-1.0781 0.5625c-0.14062 0.046875-0.28125 0.1875-0.42188 0.23438-0.32812 0.09375-0.65625 0.09375-0.9375 0.14062-0.14062 0.046875-0.28125 0.046875-0.46875 0.046875-0.09375 0-0.14062 0.046875-0.1875 0.046875-0.09375 0-0.1875-0.09375-0.28125-0.09375-1.0312-0.046875-2.0156-0.375-2.9062-0.98438-0.1875-0.09375-0.32812-0.14062-0.46875-0.28125-0.23438-0.046875-0.32812-0.046875-0.42188-0.14062-0.79688-0.70312-1.2656-1.6406-1.5938-2.5781-0.046875-0.09375-0.14062-0.14062-0.1875-0.28125-9.0938-32.156-38.766-54.562-72.234-54.562-33.422 0-63.141 22.453-72.188 54.562-0.046875 0.1875-0.1875 0.28125-0.23438 0.42188-0.14062 0.375-0.32812 0.70312-0.5625 1.0312-0.23438 0.375-0.46875 0.70312-0.75 0.98438-0.09375 0.14062-0.14062 0.28125-0.28125 0.375-0.14062 0.14062-0.32812 0.1875-0.51562 0.28125-0.32812 0.23438-0.70312 0.46875-1.125 0.65625-0.32812 0.14062-0.65625 0.23438-0.98438 0.32812-0.42188 0.09375-0.79688 0.14062-1.2188 0.1875-0.375 0-0.75-0.046875-1.125-0.09375-0.23438-0.046875-0.42188 0-0.65625-0.046875-0.1875-0.046875-0.28125-0.1875-0.42188-0.23438-0.375-0.14062-0.70312-0.32812-1.0312-0.51562-0.375-0.23438-0.70312-0.46875-0.98438-0.75-0.14062-0.09375-0.28125-0.14062-0.375-0.28125-22.219-24.938-58.734-32.156-88.781-17.578-30.094 14.578-47.016 47.719-41.156 80.625 0.046875 0.28125-0.046875 0.5625-0.046875 0.84375 0 0.42188 0.046875 0.84375-0.046875 1.2188s-0.23438 0.70312-0.375 1.0781-0.23438 0.70312-0.46875 1.0312-0.46875 0.60938-0.75 0.89062c-0.23438 0.28125-0.46875 0.5625-0.79688 0.75-0.32812 0.23438-0.70312 0.375-1.125 0.5625-0.28125 0.14062-0.46875 0.32812-0.75 0.375-32.156 9.0938-54.562 38.766-54.562 72.234 0 33.422 22.453 63.141 54.562 72.234 0.28125 0.09375 0.51562 0.28125 0.75 0.375 0.375 0.1875 0.75 0.32812 1.0781 0.5625s0.5625 0.51562 0.79688 0.79688c0.28125 0.28125 0.51562 0.5625 0.75 0.84375 0.23438 0.32812 0.32812 0.70312 0.46875 1.0781 0.14062 0.32812 0.28125 0.65625 0.32812 1.0312 0.09375 0.42188 0.046875 0.79688 0.046875 1.2656 0 0.28125 0.09375 0.5625 0.046875 0.84375-5.8594 32.859 11.062 66.047 41.156 80.625 30.047 14.578 66.562 7.3125 88.781-17.578 0.09375-0.14062 0.28125-0.1875 0.375-0.28125 0.28125-0.28125 0.60938-0.51562 0.98438-0.75 0.32812-0.23438 0.70312-0.42188 1.0781-0.5625 0.14062-0.046875 0.28125-0.1875 0.42188-0.23438 0.1875-0.046875 0.42188 0 0.60938-0.046875 0.42188-0.09375 0.79688-0.09375 1.2188-0.09375 0.375 0 0.75 0.046875 1.0781 0.14062 0.375 0.09375 0.70312 0.1875 1.0781 0.375s0.70312 0.375 1.0312 0.60938c0.1875 0.14062 0.375 0.1875 0.5625 0.32812 0.14062 0.14062 0.1875 0.28125 0.28125 0.42188 0.28125 0.28125 0.46875 0.60938 0.70312 0.9375s0.42188 0.70312 0.5625 1.0781c0.046875 0.14062 0.1875 0.28125 0.23438 0.42188 9.0938 32.109 38.766 54.562 72.188 54.562s63.141-22.453 72.234-54.562c0.046875-0.1875 0.1875-0.28125 0.23438-0.42188 0.14062-0.375 0.32812-0.70312 0.51562-1.0312 0.23438-0.375 0.46875-0.70312 0.75-1.0312 0.09375-0.09375 0.14062-0.23438 0.28125-0.375s0.32812-0.1875 0.51562-0.28125c0.32812-0.23438 0.70312-0.46875 1.0781-0.65625 0.32812-0.14062 0.70312-0.28125 1.0781-0.32812 0.375-0.09375 0.70312-0.14062 1.0781-0.14062 0.42188 0 0.84375 0.046875 1.2656 0.09375 0.1875 0.046875 0.42188 0 0.60938 0.046875 0.14062 0.046875 0.28125 0.14062 0.42188 0.23438 0.375 0.14062 0.75 0.32812 1.0781 0.5625s0.65625 0.42188 0.9375 0.70312c0.14062 0.14062 0.28125 0.1875 0.375 0.28125 22.172 24.938 58.688 32.203 88.781 17.578 30.094-14.578 47.016-47.766 41.203-80.625-0.046875-0.28125 0.046875-0.5625 0.046875-0.84375 0-0.42188-0.046875-0.84375 0.046875-1.2656 0.046875-0.32812 0.1875-0.65625 0.32812-0.98438 0.14062-0.375 0.28125-0.75 0.46875-1.125 0.1875-0.32812 0.42188-0.5625 0.70312-0.84375s0.51562-0.60938 0.84375-0.84375 0.65625-0.375 1.0312-0.51562c0.28125-0.14062 0.51562-0.32812 0.79688-0.42188 32.297-9 54.703-38.719 54.703-72.141s-22.406-63.094-54.516-72.188zm-67.312 81.844c-4.7344 4.7344-10.734 7.4062-16.594 7.4062h-0.89062c-4.0781-0.1875-7.7812-1.6875-10.969-4.3125l-225.84 97.359c-0.75 0.32812-1.5938 0.46875-2.3906 0.46875s-1.5938-0.14062-2.3906-0.46875c-0.1875-0.09375-0.32812-0.23438-0.51562-0.375-0.23438-0.14062-0.42188-0.28125-0.65625-0.42188-0.79688-0.60938-1.4062-1.3125-1.8281-2.1562-0.046875-0.09375-0.14062-0.09375-0.14062-0.1875v-0.09375c-0.1875-0.46875-0.23438-1.0312-0.32812-1.5469-0.046875-0.23438-0.14062-0.51562-0.14062-0.75 0-0.28125 0.09375-0.51562 0.14062-0.75 0.09375-0.51562 0.14062-1.0312 0.32812-1.5469v-0.09375l97.359-225.84c-2.625-3.1875-4.0781-6.8906-4.2656-10.969-0.28125-6.1406 2.3906-12.516 7.3594-17.484 5.7656-5.7656 13.266-9.8906 28.828-1.0312h0.046875c0.046875 0 0.046875 0.046875 0.09375 0.046875 0.046875 0.046875 0.09375 0.046875 0.1875 0.09375 0 0 0 0.046875 0.046875 0.046875 90.938 47.25 132 130.36 133.69 133.87v0.046875c8.7188 15.422 4.6406 22.922-1.125 28.688z"/>
</svg>
