<?xml version="1.0" encoding="UTF-8"?>
<svg width="1200pt" height="1200pt" version="1.1" viewBox="0 0 1200 1200" xmlns="http://www.w3.org/2000/svg">
 <path d="m684.14 859.13c0.046875 0.32812 0.09375 0.79688 0.09375 1.3594v39.469c0 2.1094-1.125 3.8906-2.9062 5.3906-3.2812 2.7656-8.5312 4.7344-14.344 6-22.266 4.8281-44.391 7.3125-66.422 7.3594-22.125 0.046875-44.25-2.3438-66.422-7.3125-5.8125-1.3125-11.062-3.2812-14.438-6.0938-1.7344-1.5-2.8594-3.2344-2.8594-5.3438v-39.469c0-0.51562 0.046875-0.98438 0.14062-1.4531 0.46875-2.5781 1.9219-5.1094 4.0781-6.9844 2.0156-1.8281 4.6406-3 7.4531-3 0.60938 0 1.2188 0.046875 1.7812 0.14062 22.828 4.0312 46.031 5.9531 69.562 5.9062 23.438-0.046875 47.062-2.0625 70.828-5.9062 0.46875-0.09375 1.0781-0.09375 1.7344-0.09375 2.9062 0 5.5781 1.2188 7.6875 3.0469 2.1562 1.9219 3.6562 4.4531 4.0781 7.0312zm-468.42-360.66c-8.1562-3.6562-17.25-5.6719-26.812-5.6719-18.281 0-34.875 7.5-46.922 19.547s-19.547 28.688-19.547 46.922v170.86c0 18.281 7.5 34.875 19.547 46.922s28.688 19.547 46.922 19.547c9.5625 0 18.656-2.0156 26.812-5.6719 6.8438-3.0469 13.125-7.2188 18.516-12.281-12.891-42.094-19.875-87.141-19.875-133.97s6.9844-91.875 19.875-133.97c-5.3906-5.0625-11.672-9.2344-18.516-12.281zm360.71-59.859h48.141c12.703 0 24.281-5.2031 32.625-13.594 8.3906-8.3906 13.594-19.922 13.594-32.625v-142.45c-22.734-4.875-46.266-7.4062-70.312-7.4062-24.047 0-47.531 2.5312-70.312 7.4062v142.45c0 12.703 5.2031 24.281 13.594 32.625 8.3906 8.3906 19.922 13.594 32.625 13.594zm-396.52-221.63c0.32813-0.65625 0.75-1.2656 1.2188-1.8281v264.05c0 4.3125 3.4688 7.7812 7.7812 7.7812s7.7812-3.4688 7.7812-7.7812v-264.05c0.46875 0.5625 0.89063 1.1719 1.2188 1.8281 5.3906-1.5469 10.172-4.4531 14.016-8.2969 5.9062-5.9062 9.5625-14.016 9.5625-23.016s-3.6562-17.156-9.5625-23.016c-5.9062-5.9062-14.062-9.5625-23.016-9.5625-9 0-17.156 3.6562-23.016 9.5625-5.9062 5.9062-9.5625 14.016-9.5625 23.016s3.6562 17.156 9.5625 23.016c3.8438 3.8438 8.6719 6.75 14.016 8.2969zm679.26 143.02c66.469 72.797 107.58 173.48 107.58 284.72 0 43.828-6.375 86.016-18.188 125.53-0.23438 0.1875-0.46875 0.375-0.70312 0.60938-3 2.7188-3.9375 6.8438-2.7656 10.453-18.516 56.297-48.094 106.73-85.922 148.13-66.234 72.562-157.69 117.47-258.66 117.47s-192.42-44.859-258.66-117.47c-66.469-72.797-107.58-173.48-107.58-284.72 0-111.23 41.109-211.92 107.58-284.72 45.844-50.203 103.73-87.141 168.47-105.14v137.58c0 18.188 7.4531 34.734 19.406 46.688 12 12 28.5 19.406 46.688 19.406h48.141c18.188 0 34.734-7.4531 46.688-19.406 12-12 19.406-28.5 19.406-46.688v-137.58c64.781 18 122.68 54.938 168.47 105.14zm-155.06 500.48c0-1.4062-0.14062-2.9062-0.375-4.5469-1.125-7.0312-4.9688-13.734-10.453-18.609-5.5781-4.9688-12.844-8.2031-20.906-8.2031-1.5 0-3.1406 0.14062-4.9219 0.42188-22.828 3.7031-45.375 5.6719-67.641 5.6719-22.172 0.046875-44.203-1.8281-66.141-5.6719-1.7812-0.32812-3.5156-0.46875-5.2031-0.46875-7.9688 0-15.141 3.1875-20.672 8.1562-5.4375 4.8281-9.2344 11.438-10.453 18.375-0.28125 1.6406-0.42188 3.2812-0.42188 4.875v39.469c0 8.5781 3.8438 15.281 9.9844 20.484 6 5.0625 14.25 8.3906 22.875 10.312 23.531 5.2969 47.109 7.8281 70.688 7.7812 23.672-0.046875 47.203-2.6719 70.641-7.7344 8.625-1.875 16.828-5.2031 22.922-10.266 6.1875-5.2031 10.031-11.953 10.031-20.531v-39.469zm170.76-314.11c-2.6719-16.078-11.344-31.406-23.812-42.703-12.562-11.438-29.016-18.797-47.156-18.797-3.5625 0-7.2656 0.28125-11.062 0.9375-65.766 10.969-130.82 16.641-195.19 16.734-64.359 0.09375-128.11-5.3906-191.16-16.688-4.0781-0.75-7.9688-1.0781-11.672-1.0781-17.859 0-34.078 7.3125-46.547 18.656-12.281 11.156-20.906 26.297-23.766 42.188-0.70312 3.8906-1.0781 7.7344-1.0781 11.391v114.7c0 18.703 8.3438 33.516 21.75 45.047 14.625 12.562 35.344 20.953 57.281 25.969 65.625 15.047 131.34 22.266 197.06 22.172 65.672-0.14063 131.34-7.6406 196.97-22.172 21.984-4.875 42.656-13.219 57.281-25.781 13.453-11.578 21.844-26.484 21.844-45.234v-114.7c0-3.4688-0.32813-6.9844-0.89063-10.547zm183.19-37.219c-12.047-12.047-28.688-19.547-46.922-19.547-9.6094 0-18.656 2.0156-26.812 5.6719-6.8438 3.0469-13.078 7.2188-18.469 12.234 13.547 43.031 20.859 89.156 20.859 137.21 0 46.172-6.7969 90.609-19.359 132.24 5.0156 4.4062 10.734 8.0625 16.922 10.828 8.1562 3.6562 17.25 5.6719 26.812 5.6719 18.281 0 34.875-7.5 46.922-19.547s19.547-28.688 19.547-46.922v-170.86c0-18.281-7.5-34.875-19.547-46.922zm-578.11 58.922c-10.406 0-19.219 7.2188-25.031 18.938-4.8281 9.6094-7.7812 22.641-7.7812 36.797s3 27.188 7.7812 36.797c5.8594 11.672 14.672 18.938 25.031 18.938 10.406 0 19.219-7.2188 25.031-18.938 4.8281-9.6094 7.7812-22.641 7.7812-36.797s-3-27.188-7.7812-36.797c-5.8594-11.672-14.672-18.938-25.031-18.938zm240.37-3.5156c-10.406 0-19.219 7.2188-25.031 18.938-4.8281 9.6094-7.7812 22.641-7.7812 36.797s3 27.188 7.7812 36.797c5.8594 11.672 14.672 18.938 25.031 18.938 10.406 0 19.219-7.2188 25.031-18.938 4.8281-9.6094 7.7812-22.641 7.7812-36.797s-3-27.188-7.7812-36.797c-5.8594-11.672-14.672-18.938-25.031-18.938z"/>
</svg>
