<?xml version="1.0" encoding="UTF-8"?>
<svg width="1200pt" height="1200pt" version="1.1" viewBox="0 0 1200 1200" xmlns="http://www.w3.org/2000/svg">
 <path d="m424.03 364.6c49.875 0 93.562 26.719 117.52 66.656 38.297-25.547 78.609-25.547 116.91 0 23.953-39.891 67.641-66.656 117.52-66.656 58.453 0 108.33 36.703 127.69 88.406l84.188-34.312c-68.203-145.87-216.28-246.84-387.84-246.84s-319.4 100.97-387.66 246.61l84 34.5c19.359-51.656 69.234-88.359 127.69-88.359z" fill="#fff"/>
 <path d="m1003.2 455.34-90.984 37.312c0.60938 3 0.60938 6 0.60938 9 0 75.609-61.266 136.87-136.87 136.87-75.609 0-137.06-61.266-137.06-136.87 0-11.578 1.4062-22.547 4.4062-33.328v-0.1875c-1.7812-0.42188-3.6094-1.2188-5.3906-2.3906-25.734-18.141-50.062-18.141-75.797 0-1.7812 1.2188-3.6094 2.0156-5.3906 2.3906v0.1875c3 10.781 4.4062 21.75 4.4062 33.328 0 75.609-61.453 136.87-137.06 136.87-75.609 0-136.87-61.266-136.87-136.87 0-3.1875 0.1875-6.1875 0.60938-9.1875l-90.797-37.125c-16.406 45.281-25.172 93.984-25.172 144.66 0 236.44 191.72 428.16 428.16 428.16s428.16-191.72 428.16-428.16c0-50.672-8.7656-99.375-24.938-144.66zm-164.39 293.11c-47.297 25.547-94.547 43.312-142.03 53.672v76.594c0 5.3906-4.4062 9.7969-9.5625 9.7969h-63.656c-5.3906 0-9.7969-4.4062-9.7969-9.7969v-66.234c-4.5938 0.1875-9.1875 0.1875-13.781 0.1875-4.9688 0-9.9844 0-14.953-0.1875v66.234c0 5.3906-4.4062 9.7969-9.7969 9.7969h-63.422c-5.3906 0-9.7969-4.4062-9.7969-9.7969v-77.016c-47.109-10.172-93.984-28.125-140.86-53.25-9.5625-5.2031-13.359-17.344-7.9688-26.953 5.2031-9.7969 17.156-13.359 26.953-8.1562 148.03 79.828 291.71 79.828 439.74 0 9.5625-5.2031 21.75-1.5938 26.953 8.1562 5.3438 9.5625 1.5469 21.75-8.0156 26.953z" fill="#fff"/>
 <path d="m471.19 501.61c0 62.859-94.266 62.859-94.266 0 0-62.812 94.266-62.812 94.266 0" fill="#fff"/>
 <path d="m823.08 501.61c0 62.859-94.266 62.859-94.266 0 0-62.812 94.266-62.812 94.266 0" fill="#fff"/>
</svg>
