<?xml version="1.0" encoding="UTF-8"?>
<svg width="1200pt" height="1200pt" version="1.1" viewBox="0 0 1200 1200" xmlns="http://www.w3.org/2000/svg">
 <path d="m368.72 782.53c-2.4375 4.4062-6.9844 6.8906-11.672 6.8906-2.2031 0-4.4062-0.51562-6.4219-1.6875-19.969-11.062-39.094-23.953-56.859-38.344-5.7188-4.6406-6.6094-13.031-1.9688-18.75s13.031-6.6094 18.75-1.9688c16.594 13.406 34.406 25.453 53.016 35.719 6.4219 3.5625 8.7656 11.672 5.2031 18.141zm532.31-409.97c1.2188 6.375 6.8438 10.781 13.078 10.781 0.84375 0 1.6875-0.09375 2.5781-0.23438 7.2188-1.4062 11.953-8.3906 10.547-15.656-4.3594-22.359-10.734-44.531-18.984-65.906-2.625-6.8906-10.359-10.266-17.25-7.6406s-10.312 10.359-7.6406 17.25c7.6875 19.922 13.641 40.594 17.672 61.406zm-463.45 159.14c4.5938-4.5469 5.2031-11.766 1.5-17.062-10.453-14.906-17.344-31.594-20.531-49.594-1.125-6.375-6.6562-11.016-13.125-11.016h-21.188v-21.328h21.188c6.4688 0 12-4.6406 13.125-11.016 3.1875-18 10.078-34.734 20.531-49.594 3.7031-5.2969 3.0938-12.516-1.5-17.062l-14.953-14.953 15.047-15.047 14.953 14.953c4.5469 4.5469 11.766 5.2031 17.062 1.5 14.906-10.453 31.594-17.344 49.594-20.484 6.375-1.125 11.016-6.6562 11.016-13.125v-21.188h21.328v21.188c0 6.4688 4.6406 12 11.016 13.125 18 3.1406 34.688 10.031 49.594 20.484 5.2969 3.7031 12.516 3.0469 17.062-1.5l14.953-14.953 15.047 15.047-14.953 14.953c-4.5938 4.5469-5.2031 11.766-1.5 17.062 10.453 14.906 17.344 31.594 20.484 49.594 1.125 6.375 6.6562 11.016 13.125 11.016h21.188v21.328h-21.188c-6.4688 0-12 4.6406-13.125 11.016-3.1406 18-10.031 34.688-20.484 49.594-3.7031 5.2969-3.0938 12.516 1.5 17.062l14.953 14.953-15.047 15.094-14.953-14.953c-4.5469-4.5469-11.766-5.2031-17.062-1.5-14.906 10.453-31.594 17.344-49.641 20.531-6.375 1.125-11.016 6.6562-11.016 13.125v21.141h-21.328v-21.141c0-6.4688-4.6406-12-11.016-13.125-18-3.1875-34.734-10.078-49.594-20.531-5.2969-3.7031-12.516-3.0938-17.062 1.5l-14.953 14.953-15.094-15.094 14.953-14.953zm27.656-88.359c0 41.812 33.984 75.797 75.797 75.797s75.797-33.984 75.797-75.797-33.984-75.797-75.797-75.797-75.797 34.031-75.797 75.797zm75.797 49.125c27.094 0 49.125-22.031 49.125-49.125s-22.031-49.125-49.125-49.125-49.125 22.031-49.125 49.125 22.031 49.125 49.125 49.125zm-139.08 126.74-30.562 30.562-36.844-36.844 30.562-30.562c4.5938-4.5469 5.2031-11.766 1.5-17.062-17.859-25.5-29.672-54.094-35.109-84.891-1.125-6.375-6.6562-11.016-13.125-11.016h-43.312v-52.125h43.312c6.4688 0 12-4.6406 13.125-11.016 5.4375-30.797 17.25-59.391 35.109-84.891 3.7031-5.2969 3.0938-12.516-1.5-17.062l-30.562-30.562 36.844-36.844 30.562 30.562c4.5469 4.5469 11.766 5.2031 17.062 1.5 25.5-17.859 54.094-29.672 84.891-35.109 6.375-1.125 11.016-6.6562 11.016-13.125v-43.312h52.125v43.312c0 6.4688 4.6406 12 11.016 13.125 30.844 5.3906 59.391 17.25 84.891 35.109 5.2969 3.7031 12.516 3.0938 17.062-1.5l30.562-30.562 36.844 36.844-30.562 30.562c-4.5938 4.5469-5.2031 11.766-1.5 17.062 17.859 25.5 29.672 54.094 35.109 84.891 1.125 6.375 6.6562 11.016 13.125 11.016h43.312v52.125h-43.312c-6.4688 0-12 4.6406-13.125 11.016-5.4375 30.797-17.25 59.391-35.109 84.891-3.7031 5.2969-3.0938 12.516 1.5 17.062l30.562 30.562-36.844 36.844-30.562-30.562c-4.5469-4.5938-11.766-5.2031-17.062-1.5-25.5 17.859-54.047 29.719-84.891 35.109-6.375 1.125-11.016 6.6562-11.016 13.125v43.312h-52.125v-43.312c0-6.4688-4.6406-12-11.016-13.125-30.844-5.4375-59.391-17.25-84.891-35.109-5.2969-3.7031-12.516-3.0938-17.062 1.5zm26.344-29.203c5.0156 5.0156 13.875 5.0156 18.844 0l16.734-16.734c12.422 7.4062 25.734 12.891 39.797 16.453v23.719c0 7.3594 5.9531 13.312 13.312 13.312h47.953c7.3594 0 13.312-5.9531 13.312-13.312v-23.719c14.062-3.5625 27.375-9.0469 39.797-16.453l16.734 16.734c5.0156 5.0156 13.875 5.0156 18.844 0l33.938-33.938c5.2031-5.2031 5.2031-13.641 0-18.844l-16.734-16.734c7.4062-12.422 12.891-25.734 16.453-39.797h23.719c7.3594 0 13.312-5.9531 13.312-13.312v-48c0-7.3594-5.9531-13.312-13.312-13.312h-23.719c-3.5625-14.062-9.0469-27.375-16.453-39.797l16.734-16.734c5.2031-5.2031 5.2031-13.641 0-18.844l-33.938-33.938c-5.2031-5.2031-13.641-5.2031-18.844 0l-16.734 16.734c-12.422-7.4062-25.734-12.891-39.797-16.453v-23.719c0-7.3594-5.9531-13.312-13.312-13.312h-47.953c-7.3594 0-13.312 5.9531-13.312 13.312v23.719c-14.062 3.5625-27.375 9.0469-39.797 16.453l-16.734-16.734c-5.2031-5.2031-13.641-5.2031-18.844 0l-33.938 33.938c-2.4844 2.4844-3.8906 5.9062-3.8906 9.4219 0 3.5625 1.4062 6.9375 3.8906 9.4219l16.734 16.734c-7.4062 12.422-12.891 25.734-16.453 39.797h-23.719c-7.3594 0-13.312 5.9531-13.312 13.312v48c0 7.3594 5.9531 13.312 13.312 13.312h23.719c3.5625 14.062 9.0469 27.375 16.453 39.797l-16.734 16.734c-2.4844 2.4844-3.8906 5.9062-3.8906 9.4219s1.4062 6.9375 3.8906 9.4219zm-267.1-126.24c7.3594-0.14063 13.219-6.2344 13.078-13.594l-0.046875-6.8438c0-19.078 1.5-38.25 4.4062-56.953 1.125-7.2656-3.8438-14.109-11.109-15.234-7.3125-1.125-14.109 3.8438-15.234 11.109-3.1406 20.062-4.6875 40.594-4.6875 61.078 0 2.4375 0 4.9219 0.046875 7.3594 0.14062 7.2656 6.0938 13.078 13.312 13.078h0.28125zm540.89 349.03c-28.969 0-52.547 23.578-52.547 52.547s23.578 52.547 52.547 52.547 52.547-23.578 52.547-52.547-23.578-52.547-52.547-52.547zm134.48-57.562c-4.5938 4.5469-5.2031 11.766-1.5 17.062 13.594 19.406 22.641 41.203 26.766 64.734 1.125 6.375 6.6562 11.016 13.125 11.016h30.656v34.5h-30.656c-6.4688 0-12 4.6406-13.125 11.016-4.1719 23.531-13.172 45.281-26.766 64.734-3.7031 5.2969-3.0938 12.516 1.5 17.062l21.656 21.656-24.375 24.375-21.656-21.609c-4.5469-4.5469-11.766-5.2031-17.062-1.5-19.453 13.641-41.203 22.641-64.734 26.766-6.375 1.125-11.016 6.6562-11.016 13.125v30.656h-34.5v-30.656c0-6.4688-4.6406-12-11.016-13.125-23.531-4.1719-45.281-13.172-64.734-26.766-5.2969-3.7031-12.516-3.0938-17.062 1.5l-21.656 21.609-24.375-24.375 21.656-21.656c4.5938-4.5469 5.2031-11.766 1.5-17.062-13.641-19.453-22.641-41.203-26.766-64.734-1.125-6.375-6.6562-11.016-13.125-11.016h-30.656v-34.5h30.656c6.4688 0 12-4.6406 13.125-11.016 4.125-23.484 13.125-45.281 26.766-64.734 3.7031-5.2969 3.0938-12.516-1.5-17.062l-21.656-21.656 24.375-24.375 21.656 21.656c4.5469 4.5469 11.766 5.2031 17.062 1.5 19.453-13.641 41.203-22.641 64.734-26.766 6.375-1.125 11.016-6.6562 11.016-13.125v-30.656h34.5v30.656c0 6.4688 4.6406 12 11.016 13.125 23.531 4.1719 45.281 13.172 64.734 26.766 5.2969 3.75 12.516 3.0938 17.062-1.5l21.656-21.656 24.375 24.375zm-55.266 110.06c0-43.688-35.531-79.219-79.219-79.219s-79.219 35.531-79.219 79.219 35.531 79.219 79.219 79.219 79.219-35.531 79.219-79.219zm-436.64-734.26c2.3438 0 4.7344-0.60938 6.8906-1.9219 18.234-11.016 37.547-20.484 57.422-28.172 6.8906-2.625 10.266-10.359 7.6406-17.25-2.6719-6.8438-10.359-10.266-17.25-7.6406-21.281 8.2031-42 18.375-61.594 30.234-6.2812 3.7969-8.3438 12-4.5 18.328 2.4844 4.125 6.9375 6.4219 11.438 6.4219zm574.31 444.89c-17.25 0-31.266 14.016-31.266 31.266s14.016 31.266 31.266 31.266 31.266-14.016 31.266-31.266-14.016-31.266-31.266-31.266zm133.45 23.906v14.719h-16.453c-6.4688 0-12 4.6406-13.125 11.016-2.7188 15.281-8.5781 29.484-17.438 42.141-3.7031 5.2969-3.0938 12.516 1.5 17.062l11.625 11.625-10.453 10.453-11.625-11.625c-4.5938-4.5469-11.766-5.2031-17.062-1.5-12.656 8.8594-26.812 14.719-42.094 17.391-6.375 1.125-11.016 6.6562-11.016 13.125v16.453h-14.719v-16.453c0-6.4688-4.6406-12-11.016-13.125-15.281-2.6719-29.438-8.5312-42.094-17.391-5.2969-3.7031-12.516-3.0938-17.062 1.5l-11.625 11.625-10.453-10.453 11.625-11.625c4.5938-4.5469 5.2031-11.766 1.5-17.062-8.8594-12.656-14.719-26.812-17.391-42.094-1.125-6.375-6.6562-11.016-13.125-11.016h-16.453v-14.719h16.453c6.4688 0 12-4.6406 13.125-11.016 2.6719-15.281 8.5312-29.438 17.391-42.094 3.7031-5.2969 3.0938-12.516-1.5-17.062l-11.625-11.625 10.453-10.453 11.625 11.625c4.5938 4.5938 11.812 5.2031 17.062 1.5 12.656-8.8594 26.812-14.719 42.094-17.391 6.375-1.125 11.016-6.6562 11.016-13.125v-16.453h14.719v16.453c0 6.4688 4.6406 12 11.016 13.125 15.281 2.6719 29.438 8.5312 42.094 17.391 5.2969 3.7031 12.469 3.0469 17.062-1.5l11.625-11.625 10.453 10.453-11.625 11.625c-4.5469 4.5469-5.2031 11.766-1.5 17.062 8.8594 12.656 14.719 26.812 17.438 42.141 1.125 6.375 6.6562 11.016 13.125 11.016h16.453zm-75.516 7.3594c0-31.969-25.969-57.938-57.938-57.938-31.922 0-57.938 25.969-57.938 57.938 0 31.922 25.969 57.938 57.938 57.938s57.938-25.969 57.938-57.938zm-121.78-353.44c2.4844 4.125 6.8906 6.4219 11.438 6.4219 2.3438 0 4.7344-0.60938 6.8906-1.9219 6.2812-3.7969 8.2969-12 4.5-18.328-11.812-19.5-25.406-38.156-40.453-55.359-4.8281-5.5781-13.266-6.1406-18.797-1.2656-5.5312 4.8281-6.1406 13.266-1.2656 18.797 14.016 16.078 26.719 33.422 37.734 51.656zm-609.94-35.906c3.8906 0 7.7344-1.6875 10.359-4.9688 13.406-16.547 28.312-32.062 44.344-46.078 5.5312-4.8281 6.1406-13.266 1.2656-18.797-4.8281-5.5312-13.266-6.1406-18.797-1.2656-17.203 15-33.188 31.594-47.531 49.359-4.6406 5.7188-3.75 14.109 1.9688 18.75 2.4844 2.0156 5.4375 2.9531 8.3906 2.9531zm352.6-137.02c21.047 3.2812 41.906 8.3906 62.062 15.328 1.4531 0.46875 2.9062 0.70312 4.3125 0.70312 5.5312 0 10.734-3.4688 12.609-9 2.3906-6.9844-1.3125-14.578-8.2969-16.922-21.609-7.4062-44.016-12.938-66.609-16.453-7.2188-1.0781-14.109 3.8438-15.234 11.109s3.8438 14.109 11.109 15.234zm120.52 41.25c18.562 10.266 36.422 22.266 53.016 35.672 2.4375 2.0156 5.4375 2.9531 8.3438 2.9531 3.8906 0 7.7344-1.6875 10.406-4.9688 4.6406-5.7188 3.7031-14.109-2.0156-18.75-17.812-14.391-36.938-27.234-56.906-38.25-6.4688-3.5625-14.531-1.2188-18.094 5.2031s-1.2188 14.578 5.2031 18.094zm-250.45-38.578c0.84375 0 1.6875-0.09375 2.5781-0.23438 20.766-4.0781 42.141-6.3281 63.562-6.7031 7.3594-0.14062 13.219-6.2344 13.078-13.594-0.14062-7.3594-6.2344-12.797-13.594-13.078-22.969 0.42188-45.891 2.8594-68.203 7.2188-7.2188 1.4062-11.953 8.3906-10.547 15.656 1.2656 6.375 6.8438 10.781 13.078 10.781zm-241.08 549.1c-3.7969-6.3281-12-8.3438-18.281-4.5469-6.3281 3.7969-8.3438 12-4.5469 18.328 11.766 19.547 25.406 38.156 40.406 55.406 2.625 3 6.3281 4.5469 10.031 4.5469 3.0938 0 6.2344-1.0781 8.7656-3.2812 5.5312-4.8281 6.1406-13.266 1.2656-18.797-14.016-16.078-26.672-33.469-37.688-51.656zm-49.781-299.95c1.4531 0.46875 2.9062 0.70312 4.3125 0.70312 5.5312 0 10.734-3.4688 12.609-9 6.8906-20.109 15.609-39.75 25.922-58.406 3.5625-6.4219 1.2188-14.578-5.2031-18.141-6.4688-3.5625-14.578-1.2188-18.141 5.2031-11.109 20.016-20.438 41.109-27.844 62.672-2.3906 6.9844 1.3125 14.578 8.2969 16.922zm3.9844 181.08c-1.4062-7.2188-8.3906-12-15.609-10.547-7.2188 1.4062-11.953 8.3906-10.547 15.609 4.3594 22.453 10.734 44.625 18.938 65.953 2.0625 5.2969 7.0781 8.5312 12.422 8.5312 1.5938 0 3.2344-0.28125 4.7812-0.89062 6.8906-2.625 10.312-10.359 7.6406-17.25-7.6406-19.828-13.594-40.5-17.672-61.406zm753 238.74c26.812 54.797 34.031 117.94 17.203 180.79-26.625 99.328-112.03 174.28-213.98 187.78-157.87 20.906-293.16-101.91-293.16-255.74 0-13.406 1.1719-26.625 3.2812-39.656 4.8281 1.1719 8.8594 1.9688 8.9531 1.6406 7.8281 1.7344 15.656 3.5156 23.578 4.7812 0.70312 0.09375 1.4062 0.14062 2.0625 0.14062 6.4688 0 12.141-4.6875 13.172-11.297 1.125-7.2656-3.8438-14.109-11.109-15.234-21.047-3.2812-41.953-8.4844-62.062-15.375-6.9844-2.3438-14.531 1.3125-16.922 8.2969s1.3125 14.531 8.2969 16.922c2.7188 0.9375 5.5312 1.6406 8.2969 2.4375-2.7188 15.516-4.2656 31.312-4.2656 47.297 0 168.84 147.66 303.79 320.63 282.56 117.52-14.438 215.21-102.52 241.55-217.92 14.297-62.625 7.3125-125.26-17.531-180.71l-28.031 3.2344z"/>
</svg>
