<?xml version="1.0" encoding="UTF-8"?>
<svg width="1200pt" height="1200pt" version="1.1" viewBox="0 0 1200 1200" xmlns="http://www.w3.org/2000/svg">
 <path d="m1051 171.72c0 61.039-49.484 110.52-110.52 110.52-61.039 0-110.52-49.48-110.52-110.52s49.48-110.52 110.52-110.52c61.035 0 110.52 49.48 110.52 110.52z"/>
 <path d="m1140 562.32c0 15.914-6.3203 31.176-17.574 42.426-11.25 11.254-26.512 17.574-42.426 17.574h-168c-14.434 0.17188-28.445-4.8672-39.469-14.188-11.02-9.3242-18.309-22.309-20.531-36.574l-3.2383-21.48 99.602-134.76v-0.71875l13.68 87.961h117.96c15.871 0 31.098 6.2891 42.34 17.488 11.246 11.203 17.598 26.402 17.66 42.273z"/>
 <path d="m518.28 763.08-101.52 128.88c-11.371 14.312-28.645 22.66-46.922 22.68h-249.84c-21.438 0-41.242-11.438-51.961-30-10.719-18.566-10.719-41.438 0-60 10.719-18.566 30.523-30 51.961-30h220.68l98.16-124.2c1.8672 24.691 14.344 47.363 34.199 62.16l0.96094 0.71875z"/>
 <path d="m853.08 506.28 66.238-89.641 10.559-14.281h0.003906c7.1836-12.219 10.953-26.145 10.922-40.32 0.11328-1.7188 0.11328-3.4414 0-5.1602-0.14062-4.75-0.86719-9.4648-2.1602-14.039v-1.0781c-3.5703-13.988-10.965-26.707-21.359-36.723-6.1641-5.832-13.211-10.652-20.883-14.277l-70.559-36c-10.922-5.75-23.059-8.7969-35.398-8.8828h-10.441l-198.72 2.3984v0.003906c-17.559 0.027344-34.223 7.7461-45.602 21.117l-126.36 149.88c-9.9961 11.41-15.43 26.113-15.25 41.281 0.17578 15.172 5.9492 29.742 16.211 40.918 11.77 12.109 28.098 18.699 44.977 18.152 16.879-0.54687 32.742-8.1836 43.703-21.031l110.4-129.96h67.559l-199.56 253.44-5.1602 6.4805c-9.1406 13.438-12.766 29.875-10.129 45.91 2.6328 16.035 11.332 30.445 24.289 40.25l7.0781 4.6797 168 111 31.441 21.602-130.56 192c-8.8945 12.676-12.688 28.238-10.617 43.582 2.0664 15.348 9.8438 29.352 21.777 39.219 13.172 10.137 29.961 14.352 46.359 11.648 16.402-2.707 30.941-12.098 40.16-25.93l165.84-243.72c9.1133-13.262 12.516-29.629 9.4453-45.422-3.0664-15.793-12.352-29.695-25.766-38.578l-109.56-72 144-195.36z"/>
 <path d="m853.08 506.28 66.238-89.641 10.559-14.281h0.003906c7.1836-12.219 10.953-26.145 10.922-40.32 0.11328-1.7188 0.11328-3.4414 0-5.1602-0.14062-4.75-0.86719-9.4648-2.1602-14.039v-1.0781c-3.5703-13.988-10.965-26.707-21.359-36.723-6.1641-5.832-13.211-10.652-20.883-14.277l-70.559-36c-10.922-5.75-23.059-8.7969-35.398-8.8828h-10.441l-198.72 2.3984v0.003906c-17.559 0.027344-34.223 7.7461-45.602 21.117l-126.36 149.88c-9.9961 11.41-15.43 26.113-15.25 41.281 0.17578 15.172 5.9492 29.742 16.211 40.918 11.77 12.109 28.098 18.699 44.977 18.152 16.879-0.54687 32.742-8.1836 43.703-21.031l110.4-129.96h67.559l-199.56 253.44-5.1602 6.4805c-9.1406 13.438-12.766 29.875-10.129 45.91 2.6328 16.035 11.332 30.445 24.289 40.25l7.0781 4.6797 168 111 31.441 21.602-130.56 192c-8.8945 12.676-12.688 28.238-10.617 43.582 2.0664 15.348 9.8438 29.352 21.777 39.219 13.172 10.137 29.961 14.352 46.359 11.648 16.402-2.707 30.941-12.098 40.16-25.93l165.84-243.72c9.1133-13.262 12.516-29.629 9.4453-45.422-3.0664-15.793-12.352-29.695-25.766-38.578l-109.56-72 144-195.36z"/>
</svg>
