<?xml version="1.0" encoding="UTF-8"?>
<svg width="1200pt" height="1200pt" version="1.1" viewBox="0 0 1200 1200" xmlns="http://www.w3.org/2000/svg">
 <path d="m318.74 848.26c0 45.047-36.516 81.562-81.562 81.562-45.047 0-81.562-36.516-81.562-81.562 0-45.047 36.516-81.562 81.562-81.562 45.047 0 81.562 36.516 81.562 81.562z"/>
 <path d="m1044.4 848.26c0 45.047-36.516 81.562-81.562 81.562s-81.562-36.516-81.562-81.562c0-45.047 36.516-81.562 81.562-81.562s81.562 36.516 81.562 81.562z"/>
 <path d="m1156.3 794.81c-19.125-6.5625-40.125 3.75-46.688 23.062l-31.875 94.312-38.25 46.5h-133.13l-79.5-27.375-29.812-45.75 15-44.062c6.5625-19.312-3.75-40.125-22.875-46.688-19.312-6.5625-40.125 3.75-46.688 23.062l-9.5625 28.312c-1.3125 0.5625-2.625 1.3125-3.9375 2.0625-15.938 10.312-21 30.75-12.938 47.25l-5.625 16.688-38.25 46.5h-135l-38.25-46.5-11.25-33.188c0-8.0625-2.625-15.75-7.5-22.125l-13.312-39c-6.375-19.312-27.375-29.625-46.5-23.062-19.312 6.5625-29.625 27.375-23.062 46.688l11.812 34.5-36 55.312-79.5 27.375h-133.13l-38.25-46.5-31.875-94.312c-6.5625-19.312-27.375-29.625-46.688-23.062-15.375 5.25-24.938 19.688-24.938 35.062 0 3.75 0.5625 7.6875 1.875 11.625l34.312 100.69c1.3125 4.3125 3.5625 8.0625 6.375 11.625l60.938 74.062c1.5 1.6875 3 3 4.6875 4.5v148.87h193.87v-154.13l88.312-30.375c7.6875-2.8125 14.438-7.875 18.75-14.812l14.625-22.5 56.438 68.438c2.625 3 5.625 5.4375 8.8125 7.5v145.87h193.87v-145.87c3.375-2.0625 6.375-4.5 9-7.5l51-62.062 10.5 16.125c4.3125 6.9375 11.062 12 18.75 14.812l88.312 30.375v154.13h193.87v-148.87c1.6875-1.5 3.1875-2.8125 4.6875-4.5l60.938-74.062c2.8125-3.5625 5.0625-7.3125 6.375-11.625l34.312-100.69c1.3125-3.9375 1.875-7.875 1.875-11.625 0-15.375-9.5625-29.812-24.938-35.062z"/>
 <path d="m686.26 848.26c0 45.047-36.516 81.562-81.562 81.562-45.047 0-81.562-36.516-81.562-81.562 0-45.047 36.516-81.562 81.562-81.562 45.047 0 81.562 36.516 81.562 81.562z"/>
 <path d="m812.44 483.94-21.938-100.88c-1.5-7.125-5.0625-13.688-10.125-18.75l-77.625-78.562c-3-3.1875-6.5625-5.4375-10.312-7.3125-4.125-8.625-12.938-14.812-23.25-14.812h-150.74c-5.0625 0-9.9375 1.5-13.875 4.125l-61.125-17.625 17.062-76.875c4.5-20.625-8.4375-41.062-29.062-45.75s-41.062 8.4375-45.75 29.062l-24.75 112.12c-4.3125 19.688 7.3125 39.375 26.812 45l105 30.375v179.63c0 14.25 11.625 25.688 25.688 25.688h150.74c14.25 0 25.688-11.625 25.688-25.688v-136.87l23.062 23.438 19.5 90c3.9375 18 19.688 30.188 37.312 30.188 2.625 0 5.4375-0.375 8.25-0.9375 20.625-4.5 33.75-24.938 29.25-45.562z"/>
 <path d="m501 187.69h8.8125c0.375 1.5 1.6875 2.8125 3.375 2.8125h7.125c14.625 25.688 42.188 42.938 73.875 42.938s59.062-17.25 73.875-42.938h7.125c1.6875 0 3-1.125 3.375-2.8125h8.8125c10.125 0 18.375-8.25 18.375-18.375v-38.062c0-9.5625-7.3125-17.25-16.5-18.188 0-1.3125-0.5625-2.4375-1.125-3.375-3.375-50.625-42-90.938-93.562-90.938s-90.375 40.125-93.562 90.938c-0.75 0.9375-1.125 2.0625-1.125 3.375-9.375 0.9375-16.5 8.8125-16.5 18.188v38.062c0 10.125 8.25 18.375 18.375 18.375zm93-143.81c32.25 0 56.812 21 65.25 50.062-15.562-18.75-39-30.562-65.25-30.562s-49.688 12-65.25 30.562c8.4375-29.062 33.188-50.062 65.25-50.062z"/>
 <path d="m941.06 604.31h-39.188v-1.6875c0-16.312-13.312-29.625-29.625-29.625h-129.19c-16.312 0-29.625 13.312-29.625 29.625v1.6875h-227.44v-1.6875c0-16.312-13.312-29.625-29.625-29.625h-129.19c-16.312 0-29.625 13.312-29.625 29.625v1.6875h-39.188c-15.375 0-27.938 12.562-27.938 27.938v44.625c0 15.375 12.562 27.938 27.938 27.938h682.69c15.375 0 27.938-12.562 27.938-27.938v-44.625c0-15.375-12.562-27.938-27.938-27.938zm-649.13 72.375c-11.25 0-20.438-9.1875-20.438-20.438s9.1875-20.438 20.438-20.438 20.438 9.1875 20.438 20.438-9.1875 20.438-20.438 20.438zm90.375-7.6875h-43.312v-25.125h43.312z"/>
</svg>
