<?xml version="1.0" encoding="UTF-8"?>
<svg width="1200pt" height="1200pt" version="1.1" viewBox="0 0 1200 1200" xmlns="http://www.w3.org/2000/svg">
 <path d="m802.31 499.92-127.92 127.92h127.92z"/>
 <path d="m947.06 756.24h-107.53c-3.7031 0-6.6094-3-6.6094-6.6094v-30.234c0-2.5312-3-3.7031-4.7812-1.9219l-67.781 70.922c-0.9375 1.0781-0.9375 2.7656 0 3.8438l67.641 71.062c1.6875 1.7812 4.7812 0.60938 4.7812-1.9219v-30.141c0-3.7031 3-6.6094 6.6094-6.6094h107.53c0.70312 0 1.3125-0.60938 1.3125-1.3125v-65.766c0-0.70312-0.46875-1.3125-1.1719-1.3125z"/>
 <path d="m514.08 193.31h-200.29v143.9c0 3.7031-3 6.6094-6.6094 6.6094l-143.86-0.046874v319.55c0 11.531 9.375 20.766 20.766 20.766h330c11.531 0 20.766-9.375 20.766-20.766v-449.26c0.09375-11.531-9.2344-20.766-20.766-20.766zm-56.156 275.63-90.141 94.453c-1.3125 1.3125-3 2.0625-4.7812 2.0625-0.84375 0-1.6875-0.14062-2.5312-0.46875-2.5312-0.9375-4.2188-3.4688-4.2188-6.1406v-46.922h-108.84c-3.7031 0-6.6094-3-6.6094-6.6094v-81.469c0-3.7031 3-6.6094 6.6094-6.6094h108.84v-47.062c0-2.7656 1.6875-5.1562 4.2188-6.1406 2.5312-0.9375 5.3906-0.375 7.2188 1.5469l90.141 94.453c2.4844 2.3438 2.4844 6.4219 0.09375 8.9062z"/>
 <path d="m1015.9 490.55h-200.29v143.86c0 3.7031-3 6.6094-6.6094 6.6094l-143.95 0.046875v319.55c0 11.531 9.375 20.766 20.766 20.766h330c11.531 0 20.766-9.375 20.766-20.766l-0.046875-449.16c0.14062-11.531-9.0938-20.906-20.625-20.906zm-54.375 340.69c0 3.7031-3 6.6094-6.6094 6.6094h-108.94v46.922c0 2.7656-1.6875 5.1562-4.2188 6.1406-0.84375 0.375-1.6875 0.46875-2.3906 0.46875-1.7812 0-3.4688-0.70312-4.7812-2.0625l-90.141-94.453c-2.3906-2.5312-2.3906-6.6094 0-9.1406l90.141-94.453c1.9219-1.9219 4.7812-2.625 7.2188-1.5469 2.5312 0.9375 4.2188 3.4688 4.2188 6.1406v47.062h108.84c3.7031 0 6.6094 3 6.6094 6.6094l-0.046875 81.703z"/>
 <path d="m300.47 202.69-127.92 127.92h127.92z"/>
 <path d="m372.37 389.53c-1.0781-1.0781-2.8594-0.375-2.8594 1.0781v33.141c0 3.7031-3 6.6094-6.6094 6.6094h-106.69c-1.2188 0-2.1562 0.9375-2.1562 2.1562v63.844c0 1.2188 0.9375 2.1562 2.1562 2.1562h106.69c3.7031 0 6.6094 3 6.6094 6.6094v33c0 1.4531 1.7812 2.1562 2.8594 1.0781l70.453-73.781c0.60938-0.60938 0.60938-1.6875 0-2.2969z"/>
 <path d="m601.22 135c-7.3125 0-13.219 5.8594-13.219 13.219v33.141c0 7.3125 5.8594 13.219 13.219 13.219 7.3125 0 13.219-5.8594 13.219-13.219v-33.141c0.09375-7.2188-5.9062-13.219-13.219-13.219z"/>
 <path d="m601.22 232.55c-7.3125 0-13.219 5.8594-13.219 13.219v64.453c0 7.3125 5.8594 13.219 13.219 13.219 7.3125 0 13.219-5.8594 13.219-13.219v-64.453c0.09375-7.2188-5.9062-13.219-13.219-13.219z"/>
 <path d="m601.22 747.71c-7.3125 0-13.219 5.8594-13.219 13.219v64.453c0 7.3125 5.8594 13.219 13.219 13.219 7.3125 0 13.219-5.8594 13.219-13.219v-64.453c0.09375-7.2188-5.9062-13.219-13.219-13.219z"/>
 <path d="m601.22 490.22c-7.3125 0-13.219 5.8594-13.219 13.219v64.453c0 7.3125 5.8594 13.219 13.219 13.219 7.3125 0 13.219-5.8594 13.219-13.219v-64.453c0.09375-7.3594-5.9062-13.219-13.219-13.219z"/>
 <path d="m601.22 618.94c-7.3125 0-13.219 5.8594-13.219 13.219v64.453c0 7.3125 5.8594 13.219 13.219 13.219 7.3125 0 13.219-5.8594 13.219-13.219v-64.453c0.09375-7.3125-5.9062-13.219-13.219-13.219z"/>
 <path d="m601.22 876.47c-7.3125 0-13.219 5.8594-13.219 13.219v64.453c0 7.3125 5.8594 13.219 13.219 13.219 7.3125 0 13.219-5.8594 13.219-13.219v-64.453c0.09375-7.2188-5.9062-13.219-13.219-13.219z"/>
 <path d="m601.22 361.31c-7.3125 0-13.219 5.8594-13.219 13.219v64.453c0 7.3125 5.8594 13.219 13.219 13.219 7.3125 0 13.219-5.8594 13.219-13.219v-64.453c0.09375-7.2188-5.9062-13.219-13.219-13.219z"/>
 <path d="m601.22 1005.4c-7.3125 0-13.219 5.8594-13.219 13.219v33.141c0 7.3125 5.8594 13.219 13.219 13.219 7.3125 0 13.219-5.8594 13.219-13.219v-33.141c0.09375-7.3594-5.9062-13.219-13.219-13.219z"/>
</svg>
