<?xml version="1.0" encoding="UTF-8"?>
<svg width="1200pt" height="1200pt" version="1.1" viewBox="0 0 1200 1200" xmlns="http://www.w3.org/2000/svg">
 <path d="m1148.4 502.8h-26.398l-128.4-314.4 64.801-14.398c18-3.6016 28.801-21.602 25.199-38.398-3.6016-18-20.398-28.801-38.398-25.199l-345.6 74.398c-19.199-34.801-56.398-58.801-99.602-58.801-60 0-108 46.801-112.8 104.4l-345.6 74.398c-18 3.6016-28.801 21.602-25.199 38.398 3.6016 15.602 16.801 25.199 31.199 25.199 2.3984 0 4.8008 0 7.1992-1.1992l44.398-9.6016-121.2 300.01h-26.398c-13.199 0-22.801 12-21.602 24 12 109.2 105.6 194.4 218.4 194.4 112.8 0 206.4-85.199 218.4-194.4 1.1992-13.199-8.3984-24-21.602-24h-26.398l-129.6-316.8 212.4-45.602c12 20.398 28.801 37.199 50.398 48v650.4l-187.2 0.003906c-26.398 0-49.199 21.602-49.199 49.199 0 26.398 21.602 49.199 49.199 49.199h470.4c26.398 0 49.199-21.602 49.199-49.199 0-26.398-21.602-49.199-49.199-49.199h-186v-651.6c36-16.801 61.199-51.602 63.602-93.602l189.6-40.801-120 294h-26.398c-13.199 0-22.801 12-21.602 24 12 109.2 105.6 194.4 218.4 194.4 112.8 0 206.4-85.199 218.4-194.4 0-11.996-9.5977-22.797-22.801-22.797zm-999.6 154.8 99.602-244.8 99.598 244.8zm703.2-154.8 99.602-244.8 99.602 244.8z"/>
</svg>
