<?xml version="1.0" encoding="UTF-8"?>
<svg width="1200pt" height="1200pt" version="1.1" viewBox="0 0 1200 1200" xmlns="http://www.w3.org/2000/svg">
 <path d="m1200 600c0 214.36-114.36 412.44-300 519.62-185.64 107.18-414.36 107.18-600 0-185.64-107.18-300-305.26-300-519.62s114.36-412.44 300-519.62c185.64-107.18 414.36-107.18 600 0 185.64 107.18 300 305.26 300 519.62z" fill="#c362dd"/>
 <path d="m449.51 731.13c-6.168 0-11.16-4.9883-11.16-11.16s4.9883-11.16 11.16-11.16h407.64c6.1406 0 11.16 4.9883 11.16 11.16s-5.0195 11.16-11.16 11.16zm0-78.375v-0.03125c-6.168 0-11.16-4.9883-11.16-11.129 0-6.168 4.9883-11.16 11.16-11.16h407.64c6.1406 0 11.16 4.9883 11.16 11.16 0 6.1406-5.0195 11.129-11.16 11.129zm203.84-78.438c-6.0508-0.17578-10.863-5.1055-10.863-11.16 0-6.0508 4.8125-11.012 10.863-11.16h203.81c6.0508 0.14844 10.863 5.1055 10.863 11.16 0 6.0508-4.8125 10.98-10.863 11.16zm-62.082-196.95c-1.7422-0.76563-3.2461-1.9766-4.3672-3.543-17.859-13.785-38.289-23.852-60.102-29.609-26.895-7.1719-55.086-8.1172-82.418-2.7734-3.3359 0.82812-6.8477 0.089844-9.5625-2.0352-2.6875-2.125-4.2812-5.3438-4.2812-8.7695v-54.613l-170.59 117.4 170.59 119.68v-54.406c0-5.5508 4.1016-10.273 9.5938-11.012 41.535-5.6992 83.809-1.8906 123.63 11.129 32.031 10.363 61.844 26.598 87.941 47.824-0.11719-19.691-3.6016-39.23-10.332-57.742-9.2695-25.328-24.441-48.09-44.25-66.391-1.918-1.7695-3.8359-3.4844-5.8438-5.1367zm-214.2 125.31v217.3c-0.089844 19.277 7.5859 37.785 21.344 51.305 14.023 13.668 32.855 21.285 52.426 21.168h48.383c6.1406 0 11.129 4.9883 11.129 11.129v120.41l159.52-129.06c1.9766-1.5938 4.4297-2.4492 6.9648-2.4492h180.3c21.934-0.17578 42.895-9.1797 58.156-24.945 15.703-15.762 24.621-37.047 24.766-59.305v-254.79c0.14844-19.895-7.3789-39.086-20.988-53.578-13.047-13.785-31.203-21.551-50.184-21.492h-244.72c16.648 18.301 29.578 39.676 38.082 62.938 10.449 28.898 13.992 59.836 10.301 90.332-0.53125 4.3398-3.5117 7.9688-7.6758 9.3008-4.1641 1.3281-8.707 0.11719-11.633-3.1289-27.277-26.391-60.223-46.168-96.324-57.859-33.535-10.953-68.988-14.848-104.11-11.426v65.891c0 4.3398-2.5078 8.2656-6.4336 10.125-3.9258 1.832-8.5625 1.2109-11.867-1.5938z" fill="#fff" fill-rule="evenodd"/>
</svg>
