<?xml version="1.0" encoding="UTF-8"?>
<svg width="1200pt" height="1200pt" version="1.1" viewBox="0 0 1200 1200" xmlns="http://www.w3.org/2000/svg">
 <path d="m262.5 602.02v-69.516c0-62.156 50.344-112.5 112.5-112.5h45c-49.688 0-90-40.312-90-90s40.312-90 90-90 90 40.312 90 90-40.312 90-90 90h69.562c25.078 0 49.406 8.3438 69.141 23.766l67.359 52.5 85.875-69c18.047-14.484 44.766-15.234 61.5 0.75 9.5625 9.0938 13.922 20.812 13.922 32.484 0 13.078-5.8594 26.344-16.875 35.109l-115.64 93.141c-7.6406 6.0938-16.641 9.2344-25.641 9.8906-10.594 0.42188-21.375-2.7188-30.141-9.4688l-44.109-34.406v53.109c14.109-5.0156 29.203-7.875 45-7.875 66.75 0 122.21 48.75 132.98 112.5h49.078c10.781-63.75 66.188-112.5 132.98-112.5 51.984 0 97.125 29.578 119.67 72.75 9.6562-14.344 15.328-31.641 15.328-50.25v-382.5c0-49.688-40.312-90-90-90h-720c-49.688 0-90 40.312-90 90v382.5c0 18.609 5.6719 35.906 15.328 50.25 19.219-36.797 54.844-63.562 97.172-70.734z"/>
 <path d="m1005 735c0 49.688-40.312 90-90 90s-90-40.312-90-90 40.312-90 90-90 90 40.312 90 90"/>
 <path d="m937.5 825h-45c-62.156 0-112.5 50.344-112.5 112.5v67.5c0 24.844 20.156 45 45 45h180c24.844 0 45-20.156 45-45v-67.5c0-62.156-50.344-112.5-112.5-112.5z"/>
 <path d="m690 735c0 49.688-40.312 90-90 90s-90-40.312-90-90 40.312-90 90-90 90 40.312 90 90"/>
 <path d="m622.5 825h-45c-62.156 0-112.5 50.344-112.5 112.5v67.5c0 24.844 20.156 45 45 45h180c24.844 0 45-20.156 45-45v-67.5c0-62.156-50.344-112.5-112.5-112.5z"/>
 <path d="m375 735c0 49.688-40.312 90-90 90s-90-40.312-90-90 40.312-90 90-90 90 40.312 90 90"/>
 <path d="m307.5 825h-45c-62.156 0-112.5 50.344-112.5 112.5v67.5c0 24.844 20.156 45 45 45h180c24.844 0 45-20.156 45-45v-67.5c0-62.156-50.344-112.5-112.5-112.5z"/>
</svg>
