<?xml version="1.0" encoding="UTF-8"?>
<svg width="1200pt" height="1200pt" version="1.1" viewBox="0 0 1200 1200" xmlns="http://www.w3.org/2000/svg">
 <path d="m1106.3 400.69h-75c-10.312 0-18.75 8.0625-18.75 18.188s8.4375 18.188 18.75 18.188h75c10.312 0 18.75-8.0625 18.75-18.188s-8.4375-18.188-18.75-18.188z" fill="#fff"/>
 <path d="m1012.5 310.13c3.5625 0 7.125-0.9375 10.312-3l56.25-36.188c8.625-5.625 10.875-16.875 5.25-25.125-5.8125-8.25-17.438-10.688-26.062-5.0625l-56.25 36.188c-8.625 5.625-10.875 16.875-5.25 25.125 3.5625 5.25 9.5625 8.0625 15.562 8.0625z" fill="#fff"/>
 <path d="m1022.8 530.63c-8.625-5.625-20.25-3.375-26.062 5.0625-5.8125 8.25-3.375 19.5 5.25 25.125l56.25 36.188c3.1875 2.0625 6.75 3 10.312 3 6 0 12-2.8125 15.562-8.0625 5.8125-8.25 3.375-19.5-5.25-25.125l-56.25-36.188z" fill="#fff"/>
 <path d="m187.5 418.87c0-9.9375-8.4375-18.188-18.75-18.188h-75c-10.312 0-18.75 8.0625-18.75 18.188s8.4375 18.188 18.75 18.188h75c10.312 0 18.75-8.0625 18.75-18.188z" fill="#fff"/>
 <path d="m177.19 530.63-56.25 36.188c-8.625 5.625-10.875 16.875-5.25 25.125 3.5625 5.25 9.5625 8.0625 15.562 8.0625 3.5625 0 7.125-0.9375 10.312-3l56.25-36.188c8.625-5.625 10.875-16.875 5.25-25.125-5.8125-8.25-17.438-10.688-26.062-5.0625z" fill="#fff"/>
 <path d="m141.56 240.56c-8.625-5.625-20.25-3.375-26.062 5.0625s-3.375 19.5 5.25 25.125l56.25 36.188c3.1875 2.0625 6.75 3 10.312 3 6 0 12-2.8125 15.562-8.0625 5.8125-8.25 3.375-19.5-5.25-25.125l-56.25-36.188z" fill="#fff"/>
 <path d="m849.94 148.5c-80.625-69.75-184.69-101.62-293.06-89.812-169.69 18.375-308.06 150.37-328.87 314.06-15.562 121.87 32.25 241.69 127.87 321.19 32.438 26.812 52.125 66 55.875 109.12-21.375 7.6875-36.75 27.375-36.75 50.812 0 13.875 5.625 26.625 14.625 36.188-9 9.5625-14.625 22.312-14.625 36.188s5.625 26.625 14.625 36.188c-9 9.5625-14.625 22.312-14.625 36.188 0 29.812 25.312 54.375 56.25 54.375h8.0625l34.5 55.5c13.5 21.75 38.062 35.25 64.312 35.25h123.74c26.25 0 50.812-13.5 64.312-35.25l34.5-55.5h8.0625c30.938 0 56.25-24.375 56.25-54.375 0-13.875-5.625-26.625-14.625-36.188 9-9.5625 14.625-22.312 14.625-36.188s-5.625-26.625-14.625-36.188c9-9.5625 14.625-22.312 14.625-36.188 0-23.25-15.375-42.938-36.562-50.812 3.9375-42.375 25.688-83.25 60.938-113.44 79.875-68.812 125.63-167.44 125.63-270.74 0-103.31-45.562-201.56-125.06-270.19zm-81.188 868.31h-337.5c-10.312 0-18.75-8.0625-18.75-18.188s8.4375-18.188 18.75-18.188h337.5c10.312 0 18.75 8.0625 18.75 18.188s-8.4375 18.188-18.75 18.188zm0-72.562h-337.5c-10.312 0-18.75-8.0625-18.75-18.188s8.4375-18.188 18.75-18.188h337.5c10.312 0 18.75 8.0625 18.75 18.188s-8.4375 18.188-18.75 18.188zm0-72.562h-337.5c-10.312 0-18.75-8.0625-18.75-18.188s8.4375-18.188 18.75-18.188h337.5c10.312 0 18.75 8.0625 18.75 18.188s-8.4375 18.188-18.75 18.188zm-243.74-398.81h-28.125c-15.562 0-28.125-12.188-28.125-27.188s12.562-27.188 28.125-27.188 28.125 12.188 28.125 27.188zm37.5 326.26v-290.06h75v290.06zm261.94-137.06c-42.375 36.375-68.625 85.5-73.5 137.06h-75.938v-290.06h28.125c36.188 0 65.625-28.5 65.625-63.375s-29.438-63.375-65.625-63.375-65.625 28.5-65.625 63.375v27.188h-75v-27.188c0-35.062-29.438-63.375-65.625-63.375s-65.625 28.5-65.625 63.375 29.438 63.375 65.625 63.375h28.125v290.06h-75.75c-4.6875-52.312-29.25-100.12-69-133.13-86.062-71.438-129-179.44-115.12-289.13 18.75-147.37 143.26-266.06 295.87-282.56 97.688-10.5 191.44 18.188 263.81 80.812 71.625 61.875 112.69 150.37 112.69 243.19 0 92.82-41.25 181.87-113.06 243.56zm-149.44-189.19v-27.188c0-15 12.562-27.188 28.125-27.188s28.125 12.188 28.125 27.188-12.562 27.188-28.125 27.188z" fill="#fff"/>
</svg>
