<?xml version="1.0" encoding="UTF-8"?>
<svg width="1200pt" height="1200pt" version="1.1" viewBox="0 0 1200 1200" xmlns="http://www.w3.org/2000/svg">
 <path d="m233.04 884.04 29.039 29.039h0.84375c1.5859 1.168 3.6094 1.5625 5.5195 1.082 0.83594-0.16016 1.6211-0.53125 2.2773-1.082l81.723-61.078-43.078-43.199-8.5195-8.5195-0.84375-1.4414-5.2812-5.2812-20.52 26.879-41.641 54.719v0.003906c-1.5078 2.4141-1.2656 5.5312 0.60156 7.6797 0 0-0.35938 1.082-0.12109 1.1992z"/>
 <path d="m549.84 499.32c-6.3984 9.7891-10.086 21.105-10.676 32.785-0.58984 11.68 1.9336 23.309 7.3164 33.695 3.0547 6.2148 7.1094 11.891 12 16.801 12.449 12.34 29.27 19.262 46.801 19.262 17.527 0 34.348-6.9219 46.797-19.262 12.191-12.195 19.051-28.719 19.082-45.961 0.13281-4.0156-0.10938-8.0312-0.71875-12l-5.2812-4.0781v-0.003906c-9.7148-6.9453-18.863-14.648-27.359-23.039-3.4805-3.4805-6.7188-7.1992-9.9609-10.922-3.2383-3.7188-9-10.801-13.078-16.32v0.003906c-20.57-3.1094-41.398 3.6992-56.16 18.359-3.3047 3.2266-6.2422 6.8086-8.7617 10.68z"/>
 <path d="m718.92 244.92c-26.762 26.652-39.598 64.242-34.727 101.7 4.8711 37.453 26.891 70.512 59.574 89.438 32.688 18.926 72.316 21.566 107.23 7.1445 34.906-14.426 61.117-44.27 70.91-80.746 9.7969-36.477 2.0625-75.434-20.926-105.4s-58.609-47.539-96.379-47.531c-32.137-0.085937-62.98 12.656-85.68 35.402z"/>
 <path d="m655.68 181.68c-39.559 39.496-61.809 93.09-61.855 148.99-0.042969 55.898 22.121 109.53 61.617 149.09 39.496 39.559 93.09 61.809 148.99 61.852 55.902 0.046875 109.53-22.117 149.09-61.613 39.559-39.496 61.809-93.09 61.855-148.99 0.042969-55.898-22.117-109.53-61.613-149.09-39.496-39.562-93.09-61.812-148.99-61.855-55.902-0.046875-109.53 22.117-149.09 61.613zm165.72-19.078c1.5625-5.082 6.875-8.0039 12-6.6016 4.3242 1.2148 7.25 5.2344 7.082 9.7188l-0.48047 22.562c6.9609 1.6133 13.781 3.7812 20.398 6.4805l12-18.719v-0.003907c1.4141-2.1562 3.6484-3.6484 6.1836-4.1211 2.5391-0.47656 5.1562 0.10156 7.2578 1.6016 3.625 2.5039 5.1445 7.1133 3.7188 11.281l-7.8008 21.238h0.003907c6.0195 3.6133 11.793 7.6211 17.277 12l17.762-13.922v0.003906c4.2148-3.25 10.262-2.5 13.559 1.6797 2.6797 3.5508 2.6797 8.4492 0 12l-13.559 18.121c4.3438 5.5547 8.3516 11.363 12 17.398l21.121-7.8008c4.8867-1.4883 10.102 1.0156 12 5.7617 1.6484 4.1719 0.14453 8.9297-3.6016 11.398l-18.719 12.602c2.6836 6.5898 4.8867 13.367 6.5977 20.277l22.441-0.71875c4.7969-0.050782 8.918 3.4062 9.6953 8.1406 0.77734 4.7344-2.0156 9.332-6.5742 10.82l-21.719 6.2383v10.68 10.68l21.719 6.2383v0.003906c2.4766 0.69531 4.5742 2.3594 5.8164 4.6172 1.2383 2.2539 1.5234 4.9141 0.78125 7.3828-1.1914 4.3086-5.2617 7.1719-9.7188 6.8398l-22.441-0.71875c-1.7266 6.9805-3.9336 13.836-6.5977 20.52l18.719 12c4.3828 3.0312 5.5039 9.0234 2.5195 13.438-2.5195 4.0508-7.6328 5.6328-12 3.7227l-19.559-7.4414c-3.6523 5.9961-7.6602 11.766-12 17.281l13.801 17.762-0.003906-0.003907c1.5938 2.0156 2.3125 4.5859 1.9961 7.1328-0.31641 2.5469-1.6406 4.8633-3.6758 6.4297-3.4727 2.8984-8.5234 2.8984-12 0l-18.117-13.801c-5.4219 4.8281-11.195 9.2422-17.281 13.199l7.8008 21.238c1.4766 4.5625-0.59375 9.5234-4.875 11.68-4.2852 2.1562-9.5 0.86719-12.285-3.0391l-12-18.48c-6.6406 2.6055-13.457 4.7344-20.402 6.3633l-0.23828 22.078c0.070312 5.3008-4.0664 9.7031-9.3594 9.9609-4.4492 0.042969-8.3984-2.8359-9.7188-7.082l-6.1211-21.719h-10.68-10.68l-6.1211 21.719c-1.3164 4.7344-5.957 7.7383-10.816 7.0039-4.8555-0.73047-8.4023-4.9727-8.2656-9.8828l0.83984-22.68c-6.9805-1.6289-13.84-3.7539-20.52-6.3594l-12 18.48c-3 4.4766-9.0469 5.7109-13.559 2.7578-3.9609-2.5898-5.4805-7.6562-3.6016-12l7.8008-20.039c-6.0625-3.7656-11.84-7.9766-17.277-12.602l-17.762 13.922c-3.793 3.4375-9.6133 3.293-13.234-0.32422-3.6172-3.6211-3.7617-9.4414-0.32422-13.234l13.922-17.762h-0.003907c-4.6914-5.6406-8.9062-11.66-12.598-18l-21.238 7.6797h-0.003906c-4.5625 1.4766-9.5195-0.59375-11.676-4.875-2.1562-4.2852-0.86719-9.5 3.0352-12.285l18.48-12c-2.5898-6.6836-4.7148-13.543-6.3594-20.52l-22.68 0.71875c-4.6953-0.054688-8.6602-3.5-9.375-8.1367-0.71094-4.6406 2.0352-9.1172 6.4961-10.582l21.719-6.2383v-10.68-10.68l-21.719-6.2383v-0.003906c-5.0234-1.0117-8.3633-5.7891-7.5938-10.852 0.76953-5.0625 5.3789-8.6328 10.473-8.1094l22.68 0.71875v0.003906c1.6289-6.9062 3.7539-13.684 6.3594-20.281l-18.48-12.602c-2.168-1.3984-3.6836-3.6094-4.2031-6.1406-0.51953-2.5273 0-5.1602 1.4453-7.2969 2.582-3.9648 7.625-5.5273 12-3.7227l21.238 7.8008c3.7266-6.1289 7.9375-11.949 12.602-17.398l-13.922-17.641c-1.6094-2.0195-2.3516-4.5977-2.0586-7.1641 0.29297-2.5664 1.5938-4.9102 3.6211-6.5156 3.5508-2.6797 8.4453-2.6797 12 0l17.762 13.922-0.003907-0.003906c5.4883-4.3789 11.258-8.3867 17.281-12l-7.8008-22.078c-1.6133-4.8984 0.92969-10.199 5.7617-12 4.3711-1.8086 9.4141-0.24609 12 3.7188l12 18.719c6.6562-2.6992 13.52-4.8633 20.52-6.4766l-0.83984-22.559v-0.003906c-0.28516-4.9648 3.2227-9.3477 8.1328-10.148 4.9102-0.80469 9.6328 2.2305 10.945 7.0273l6.1211 21.84v0.003906c7.0977-0.80078 14.262-0.80078 21.359 0z"/>
 <path d="m450.12 650.28h-1.6797c-4.3867 0.52734-8.3047 2.9922-10.68 6.7188l-45.84 71.039c-1.7188 2.8203-2.4531 6.1289-2.082 9.4102 0.36719 3.2812 1.8203 6.3438 4.1211 8.7109l13.32 13.441c2.1641 2.0625 4.8945 3.4375 7.8398 3.9531 2.9492 0.51172 5.9844 0.13672 8.7188-1.0742l79.32-37.68c4.3125-1.9375 7.375-5.8984 8.1602-10.562 0.83984-4.7109-0.73437-9.5312-4.1992-12.84l-46.801-46.922v0.003907c-2.6914-2.7227-6.3711-4.2383-10.199-4.1992z"/>
 <path d="m296.88 732c-3.0391 4.8008-4.3828 10.484-3.8164 16.137 0.56641 5.6562 3.0078 10.957 6.9375 15.062l2.0391 1.9219 78.719 78.719 4.5586 4.6797h0.003906c3.7031 3.6562 8.4375 6.0859 13.566 6.9648 5.1289 0.87891 10.402 0.16797 15.113-2.043l239.16-113.04c14.52-31.277 37.719-57.727 66.84-76.199 15.547-11.027 33.191-18.746 51.84-22.68 14.582-1.9922 28.176-8.4961 38.879-18.598l67.68-67.68v-0.003907c-52.441 17.223-109.27 15.484-160.56-4.918 0.42969 1.8164 0.42969 3.7031 0 5.5195-2.5195 6.2383-8.5195 7.4414-14.879 7.6797-0.83984 2.2812-1.6797 4.5586-2.3984 6.9609l3.8398 3.1211h-0.003906c4.5586 4.1055 5.2852 10.992 1.6797 15.957-4.3203 5.1602-10.32 4.3203-16.559 2.6406-1.4414 1.9219-2.6406 3.9609-4.3203 5.8789l2.6406 4.0781v0.003906c2.9766 5.4453 1.3125 12.262-3.8398 15.719-5.6406 3.7188-10.922 0.96094-16.559-2.6406-1.832 1.5547-3.7578 3-5.7617 4.3203l1.0781 4.9219h0.003907c1.5195 5.9922-2.0664 12.094-8.043 13.68-6.2383 1.8008-10.922-2.5195-14.879-7.5586-2.3984 0.83984-4.5586 1.5586-6.8398 2.1602v5.1602c-0.73047 6.0586-5.8984 10.602-12 10.559-6.6016 0-9.6016-5.7617-12-12h-7.1992l-1.9219 5.0391c-2.5977 5.4844-8.8828 8.1602-14.641 6.2422-6-2.3984-7.1992-8.5195-7.5586-15l-6.9609-2.1602-3.1211 3.9609 0.003906-0.003906c-4.207 4.4453-11.082 5.0156-15.961 1.3203-5.0391-3.9609-4.4414-10.199-2.5195-16.441l-6-4.1992-4.1992 2.6406c-2.4961 1.6211-5.5352 2.1758-8.4414 1.543-2.9062-0.62891-5.4414-2.3945-7.0391-4.9023-3.6016-5.6406-1.0781-11.16 2.6406-16.559h-0.003906c-1.6484-1.8672-3.1328-3.875-4.4375-6l-4.8008 1.4414v-0.003906c-6.043 1.1914-12.008-2.3867-13.801-8.2773-1.8008-6.3594 2.3984-10.68 7.6797-14.762-0.71875-2.3984-1.6797-4.8008-2.2812-7.0781h-5.0391c-2.9922-0.1875-5.7891-1.5547-7.7695-3.8086-1.9844-2.25-2.9844-5.1992-2.7891-8.1914 0-6.6016 5.7617-9.4805 12-12v-7.1992l-4.8008-1.8008c-5.8477-2.043-8.9531-8.418-6.9609-14.281 2.2812-6.2383 8.2812-7.3203 14.879-7.4414 0.71875-2.5195 1.5586-4.6797 2.2812-7.0781l-3.8398-3.1211c-4.625-4.1211-5.3555-11.09-1.6797-16.078 4.1992-5.0391 10.199-4.1992 16.559-2.6406 1.3203-1.8008 2.7617-3.8398 4.3203-5.7617l-2.6406-4.1992h0.003907c-1.6133-2.5273-2.1523-5.5938-1.5-8.5234 0.65234-2.9258 2.4453-5.4727 4.9805-7.0781 5.3984-3.7188 10.922-0.96094 16.441 2.5195 1.9219-1.4414 3.8398-2.8789 5.8789-4.1992l-1.3203-4.9219v0.003907c-1.1367-5.9688 2.3672-11.844 8.1602-13.68 6.3594-1.8008 10.801 2.3984 14.762 7.5586 2.5195-0.83984 4.6797-1.6797 6.9609-2.2812v-5.0391h-0.003907c0.39063-5.2617 4.3789-9.5469 9.6016-10.32-15.535-36.625-21.602-76.57-17.641-116.16zm228-48c9.2617 9.2305 13.438 22.395 11.191 35.277-2.2461 12.879-10.633 23.852-22.469 29.402l-79.199 37.68h-0.003906c-5.3789 2.4922-11.23 3.8008-17.16 3.8398-10.738-0.035157-21.016-4.3555-28.559-12l-13.32-13.32c-6.4141-6.5312-10.434-15.039-11.414-24.141-0.98047-9.1016 1.1406-18.27 6.0156-26.02l45.84-71.281v0.003906c6.5234-10.207 17.348-16.879 29.398-18.121 12.176-1.1758 24.227 3.2383 32.762 12z"/>
 <path d="m210.96 1080h554.52c2.9102-0.019531 5.793-0.54688 8.5195-1.5586 7.7773-2.8047 13.785-9.1055 16.211-17.012 2.4258-7.9023 0.99219-16.488-3.8711-23.172-4.8633-6.6875-12.594-10.695-20.859-10.816h-554.52c-9.3906 0-18.066 5.0078-22.762 13.137-4.6914 8.1328-4.6914 18.152 0 26.281 4.6953 8.1328 13.371 13.141 22.762 13.141z"/>
</svg>
