<?xml version="1.0" encoding="UTF-8"?>
<svg width="1200pt" height="1200pt" version="1.1" viewBox="0 0 1200 1200" xmlns="http://www.w3.org/2000/svg">
 <path d="m1106.4 131.29c-0.14062-39.328-31.969-71.156-71.297-71.297h-40.922v689.44h40.922c26.391 0 51.844 9.8906 71.297 27.703zm-908.06 908.21c-27.75 0-50.25 22.5-50.25 50.25s22.5 50.25 50.25 50.25h607.31c27.75 0 50.25-22.5 50.25-50.25s-22.5-50.25-50.25-50.25zm17.438-34.781 572.48-0.046875v-44.531c0-62.906-20.812-124.03-59.25-173.86v56.391c0.28125 4.7812-1.4531 9.4219-4.7344 12.891s-7.875 5.4375-12.656 5.4375-9.3281-1.9688-12.656-5.4375c-3.2812-3.4688-4.9688-8.1094-4.7344-12.891v-94.219c-31.594-28.781-69.234-50.156-110.16-62.531l6.3281 194.95c0.23438 4.6406-1.4062 9.1875-4.5469 12.656-3.1875 3.4219-7.5938 5.4375-12.234 5.5781-4.6875 0.14062-9.1875-1.5938-12.562-4.8281s-5.2969-7.6875-5.3438-12.328l-7.7812-237.79c-0.09375-2.5312-3.2812-4.2656-6.3281-4.2656h-79.219c-3 0-6.2344 1.7344-6.3281 4.2656l-7.8281 237.84c-0.046875 4.6875-1.9688 9.0938-5.3438 12.328-3.3281 3.2344-7.875 4.9688-12.562 4.8281-4.6406-0.14062-9.0469-2.1562-12.234-5.5781-3.1406-3.4219-4.7812-8.0156-4.5469-12.656l6.4688-195c-40.922 12.375-78.562 33.75-110.16 62.531v94.266c0.23438 4.7344-1.4531 9.4219-4.7812 12.891-3.2812 3.4688-7.8281 5.4375-12.609 5.4375s-9.375-1.9688-12.656-5.4375-5.0156-8.1562-4.7344-12.891v-56.438c-38.438 49.828-59.25 111-59.25 173.9v44.531zm-23.578-685.5c-4.7812 0.23438-9.4688-1.5-12.938-4.7812s-5.4375-7.875-5.4375-12.656 1.9688-9.3281 5.4375-12.609 8.1562-5.0156 12.938-4.7812h242.21c4.7812-0.23438 9.4688 1.5 12.938 4.7812s5.3906 7.8281 5.3906 12.609-1.9219 9.375-5.3906 12.656-8.1562 5.0156-12.938 4.7812zm0 127.69c-4.7812 0.23438-9.4688-1.5-12.938-4.7812s-5.4375-7.875-5.4375-12.656c0-4.7344 1.9688-9.3281 5.4375-12.609s8.1562-5.0156 12.938-4.7812h484.45c4.7812-0.23438 9.4219 1.5 12.891 4.7812s5.4375 7.875 5.4375 12.609c0 4.7812-1.9688 9.375-5.4375 12.656s-8.1094 5.0156-12.891 4.7812zm229.03 202.55c-63.188 16.641-119.81 52.125-162.42 101.67-42.562 49.5-69.141 110.81-76.172 175.78h-89.016v-771.1h865.74v611.06c0 4.6406 1.8281 9.0469 5.1094 12.328s7.7344 5.1094 12.328 5.1094h58.359c39.375 0 71.297 31.922 71.297 71.297s-31.922 71.297-71.297 71.297h-213.79c-6.9844-64.969-33.562-126.24-76.172-175.78-42.562-49.547-99.188-85.031-162.37-101.67l-0.1875-6.375c-1.2656-21.656-19.359-38.391-41.016-38.016h-79.219c-21.656-0.42188-39.75 16.359-40.969 38.016z" fill-rule="evenodd"/>
</svg>
