<?xml version="1.0" encoding="UTF-8"?>
<svg width="1200pt" height="1200pt" version="1.1" viewBox="0 0 1200 1200" xmlns="http://www.w3.org/2000/svg">
 <path d="m669.62 388.29c0 18.465-7.3359 36.176-20.395 49.23-13.055 13.059-30.766 20.395-49.23 20.395-18.465-0.003907-36.172-7.3359-49.23-20.395-13.055-13.059-20.391-30.766-20.391-49.23 0-18.465 7.3359-36.176 20.391-49.23 13.059-13.059 30.766-20.391 49.23-20.395 18.465 0 36.176 7.3359 49.23 20.395 13.059 13.055 20.395 30.766 20.395 49.23z"/>
 <path d="m330.7 741.75h111.07c7.8008 0 14.09 6.2852 14.09 14.09v111.07c0 7.8008-6.2852 14.09-14.09 14.09h-111.07c-7.8086 0-14.09-6.2852-14.09-14.09v-111.07c0-7.8008 6.2852-14.09 14.09-14.09z"/>
 <path d="m543.58 881.34h112.83c4.3906 0 8.4648-2.2773 10.766-6.0156 2.3008-3.7383 2.5-8.4023 0.52344-12.32l-58.449-115.85h-0.003906c-1.7617-3.4922-5.3398-5.6953-9.25-5.6953s-7.4883 2.2031-9.25 5.6953l-58.453 115.85c-1.9766 3.918-1.7812 8.582 0.51953 12.32 2.3008 3.7383 6.3789 6.0156 10.766 6.0156z"/>
 <path d="m883.39 811.38c0 18.465-7.3359 36.176-20.391 49.23-13.059 13.059-30.766 20.395-49.23 20.395-18.465 0-36.176-7.3359-49.234-20.395-13.055-13.055-20.391-30.766-20.391-49.23s7.3359-36.176 20.391-49.23c13.059-13.059 30.77-20.391 49.234-20.391 18.465 0 36.172 7.332 49.23 20.391 13.055 13.059 20.391 30.766 20.391 49.23z"/>
 <path d="m600.04 502.5c-6.2969-0.023437-12.34 2.4648-16.793 6.918-4.4492 4.4492-6.9414 10.496-6.9141 16.793v146.96c0.019531 6.2617 2.5312 12.262 6.9766 16.676 4.4492 4.4141 10.465 6.8828 16.73 6.8555 6.2344-0.019531 12.211-2.5078 16.617-6.9141 4.4102-4.4102 6.8945-10.383 6.918-16.617v-146.96c0.023438-6.2656-2.4414-12.285-6.8555-16.73-4.4141-4.4492-10.414-6.9609-16.68-6.9805z"/>
 <path d="m405.48 582.7c-23.359 0-42.887 19.527-42.887 42.887v47.594c0.019532 6.2617 2.5312 12.262 6.9766 16.676 4.4492 4.4141 10.465 6.8828 16.73 6.8555 6.2344-0.019531 12.211-2.5078 16.617-6.9141 4.4102-4.4102 6.8984-10.383 6.918-16.617v-43.234h380.39v43.234c0.023437 6.2344 2.5078 12.207 6.918 16.617 4.4102 4.4062 10.383 6.8945 16.617 6.9141 6.2344-0.019531 12.207-2.5078 16.617-6.9141 4.4102-4.4102 6.8984-10.383 6.918-16.617v-47.594c0-23.359-19.352-42.883-42.711-42.887z"/>
</svg>
