<?xml version="1.0" encoding="UTF-8"?>
<svg width="1200pt" height="1200pt" version="1.1" viewBox="0 0 1200 1200" xmlns="http://www.w3.org/2000/svg">
 <path d="m1200 600c0 214.36-114.36 412.44-300 519.62-185.64 107.18-414.36 107.18-600 0-185.64-107.18-300-305.26-300-519.62s114.36-412.44 300-519.62c185.64-107.18 414.36-107.18 600 0 185.64 107.18 300 305.26 300 519.62z" fill="#ff59b9"/>
 <path d="m880.53 301.73-62.289 62.289c-1.832-3.3047-4.1328-6.4062-6.9961-9.2695-2.7461-2.7461-5.8438-5.1641-9.2695-6.8789l62.289-62.289c4.5742-4.457 11.809-4.457 16.266 0s4.457 11.66 0 16.148z" fill="#fff"/>
 <path d="m301.96 821.02 58.125-58.125 43.07 43.07-58.125 58.125z" fill="#fff"/>
 <path d="m649.36 431.36c-8.707-8.707-23.703-8.707-32.414 0l-16.707 16.707 34.566 34.566c4.457 4.457 4.457 11.691 0 16.148-2.3008 2.3008-5.1641 3.3047-8.1172 3.3047-2.9805 0-5.8438-1.1523-8.1172-3.3047l-34.566-34.566-28.84 28.84 13.285 13.285c4.457 4.457 4.457 11.691 0 16.148-2.3008 2.3008-5.1641 3.3047-8.1172 3.3047-2.9805 0-5.8438-1.1523-8.1172-3.3047l-13.285-13.285-28.84 28.84 34.566 34.566c4.457 4.457 4.457 11.691 0 16.148-2.3008 2.3008-5.1641 3.3047-8.1172 3.3047-2.9805 0-5.8438-1.1523-8.1172-3.3047l-34.449-34.566-28.84 28.84 13.285 13.285c4.457 4.457 4.457 11.691 0 16.148-2.3008 2.3008-5.1641 3.3047-8.1172 3.3047-2.9805 0-5.8438-1.1523-8.1172-3.3047l-13.285-13.285-28.84 28.84 34.566 34.566c4.457 4.457 4.457 11.691 0 16.148-2.3008 2.3008-5.1641 3.3047-8.1172 3.3047-2.9805 0-5.8438-1.1523-8.1172-3.3047l-34.566-34.566-32.855 32.855 117.73 117.73 245.84-245.84c8.9453-8.9453 8.9453-23.469 0-32.414z" fill="#fff"/>
 <path d="m335.38 673.86c-2.1836-2.1836-4.9297-3.3047-8.0312-3.3047-2.9805 0-5.8438 1.1523-8.0312 3.3047-2.1836 2.1836-3.3047 5.0469-3.3047 8.0312 0 2.9805 1.1523 5.8438 3.3047 8.0312l156.72 156.72c4.25 4.25 11.809 4.25 16.031 0 4.3398-4.457 4.3398-11.57 0-16.031z" fill="#fff"/>
 <path d="m267.61 819.04c-2.1836-2.1836-5.0469-3.3047-8.0312-3.3047-2.9805 0-5.8438 1.1523-8.0312 3.3047-2.1836 2.1836-3.3047 4.9297-3.3047 8.0312 0 2.9805 1.1523 5.8438 3.3047 8.0312l79.473 79.473c4.457 4.3398 11.57 4.3398 16.031 0 2.1836-2.1836 3.3047-5.0469 3.3047-8.0312 0-2.9805-1.1523-5.8438-3.3047-8.0312z" fill="#fff"/>
 <path d="m776.56 451.16c2.1836-2.1836 3.3047-5.0469 3.3047-8.1172 0-3.1016-1.1523-5.9648-3.3047-8.1172l-45.578-45.578c-4.457-4.457-11.691-4.457-16.148 0l-37.551 37.551 61.727 61.727z" fill="#fff"/>
 <path d="m888.21 451.16c0 17.504 14.316 31.824 31.824 31.824 17.504 0 31.824-14.316 31.824-31.824 0-11.453-16.5-40.648-31.824-63.676-15.352 23.113-31.824 52.223-31.824 63.676z" fill="#fff"/>
 <path d="m797.76 399.97c4.25-4.25 6.5234-9.8594 6.5234-15.91 0-5.9648-2.3008-11.691-6.5234-15.91-8.707-8.707-23.027-8.707-31.703 0l-13.285 13.285 31.703 31.703z" fill="#fff"/>
 <path d="m806 627.49c0 17.504 14.316 31.824 31.824 31.824 17.504 0 31.824-14.316 31.824-31.824 0-11.57-16.5-40.648-31.824-63.676-15.438 23.145-31.824 52.223-31.824 63.676z" fill="#fff"/>
</svg>
