<?xml version="1.0" encoding="UTF-8"?>
<svg width="1200pt" height="1200pt" version="1.1" viewBox="0 0 1200 1200" xmlns="http://www.w3.org/2000/svg">
 <path d="m1182.7 958.21c-48.434-98.855-129.12-106.95-129.12-106.95-112.98-31.262-155.35-74.652-185.63-98.844-30.266-24.227-390.39-389.39-447.89-441.85-57.504-52.465-87.77-160.39-115.01-228-27.254-67.586-124.08-79.691-165.43-71.617-41.363 8.0625-20.184 36.312-14.734 39.336 5.4258 3.0117 63.145 40.344 88.379 76.668 25.211 36.324 3.0234 64.559-30.277 98.867-33.277 34.297-80.699-1.0078-94.824-6.0469-14.125-5.0625-52.453-42.371-62.543-46.414 0 0-23.207-9.0703-25.223 17.16-2.0156 26.23 38.328 121.04 91.801 140.22 41.34 12.098 64.559 7.0547 64.559 7.0547s62.543 1.0078 115.01 43.379c52.453 42.359 461 449.93 482.2 470.07 21.191 20.195 87.758 133.18 103.91 183.6 4.0195 47.438 34.297 140.23 160.39 156.37 136.18-0.99219 212.86-134.14 164.44-233.01zm-56.172 101.88-9.3945 47.746-49.105 10.117-39.012 28.234-39-28.922-49.754-8.7461-7.4023-45.742-29.578-41.699 29.578-39.672 8.0742-48.434 48.422-8.7344 40.344-28.246 40.344 27.574 47.09 9.4062 7.3906 42.383 28.906 45.07z"/>
</svg>
