<?xml version="1.0" encoding="UTF-8"?>
<svg width="1200pt" height="1200pt" version="1.1" viewBox="0 0 1200 1200" xmlns="http://www.w3.org/2000/svg">
 <path d="m299.01 666.85 172.56 172.56c21.812-12.527 44.387-27.086 67.367-43.328l-196.62-196.62c-16.328 23.074-30.785 45.633-43.312 67.383z"/>
 <path d="m861.47 793.71-431.79-431.79c-3.4023-3.3984-7.9219-5.2734-12.727-5.2734-4.8086 0-9.332 1.875-12.734 5.2734l-0.91016 0.91016-14.699-14.879 75.508-75.508c2.3438-2.3438 2.3438-6.1406 0-8.4844s-6.1406-2.3438-8.4844 0l-60.141 60.141c-19.332-15.887-42.43-21.426-52.699-11.168-10.66 10.66-5.582 33.098 11.094 52.773l-57.699 57.699c-2.3438 2.3438-2.3438 6.1406 0 8.4844 1.1719 1.1719 2.707 1.7578 4.2422 1.7578s3.0703-0.58594 4.2422-1.7578l75.453-75.453 14.699 14.879-0.68359 0.68359c-7.0195 7.0195-7.0195 18.441 0 25.457l513.62 513.62c6.7969 6.7969 18.656 6.7969 25.453 0l10.082-10.082c7.0195-7.0195 7.0195-18.434 0-25.453z"/>
 <path d="m783.82 992.06c1.2188 0.85156 2.0781 2.1133 2.4141 3.5625-0.10547-0.57422 0.58594-0.24609 2.0352-0.25391 7.6406 0 33.215-7.9102 106.75-80.074l-71.668-71.668c-27.828 56.883-56.871 136.35-39.527 148.43z"/>
 <path d="m349.42 589.6 199.42 199.42c39.48-28.629 80.012-62.227 119.91-99.98l-219.32-219.33c-37.996 40.16-71.539 80.656-100.01 119.89z"/>
 <path d="m871.68 439.39-172.56-172.56c-21.812 12.527-44.387 27.086-67.367 43.328l196.62 196.62c16.328-23.078 30.785-45.633 43.309-67.383z"/>
 <path d="m821.27 516.64-199.41-199.41c-39.484 28.629-80.016 62.23-119.92 99.98l219.33 219.32c37.992-40.168 71.535-80.66 100-119.89z"/>
 <path d="m1024.3 751.6c-2.8789-4.125-10.297-4.9922-16.008-4.9922-36.68 0-109 33.305-132.38 44.555l71.625 71.633c90.922-92.637 79.758-108.9 79.617-109.04-1.4609-0.33203-1.9961-0.92188-2.8516-2.1523z"/>
 <path d="m261.84 876.62c11.734 11.734 29.09 17.691 51.586 17.691h0.015625c39.254 0 90.449-17.621 147.2-48.859l-167.76-167.77c-50.113 90.688-64.461 165.51-31.039 198.94zm51.844-92.387 17.207-12.855c4.0234-2.9883 8.957-2.8242 11.918 0.17188 1.2266 1.2344 2.6719 3.5039 2.6328 7.2344l-0.27344 21.492c-0.023438 1.4922 1.2969 4.0781 2.5078 4.9336l17.547 12.418c3.2812 2.3164 4.8594 5.5742 4.3242 8.9414-0.52734 3.3672-3.0352 5.9844-6.8711 7.1758l-20.52 6.3828c-1.4297 0.44141-3.4805 2.4883-3.9219 3.9141l-6.3828 20.523c-1.6016 5.1406-5.3945 6.9727-8.4219 6.9727-1.7109 0-4.9844-0.57422-7.7031-4.4297l-12.402-17.539c-0.85156-1.2031-3.418-2.5156-4.9102-2.5156l-21.516 0.27344h-0.007813c-4.125 0-7.2617-1.7305-8.7695-4.7461-1.5234-3.0273-1.0195-6.5977 1.3633-9.7969l12.855-17.227c0.89062-1.1914 1.3477-4.0586 0.86719-5.4805l-6.9023-20.344c-1.5078-4.4297-0.070313-7.4062 0.92187-8.7852 2.2031-3.0859 6.375-4.207 10.629-2.7539l20.344 6.8945c0.48047 0.1875 4.4609-0.097656 5.4844-0.85547z"/>
 <path d="m908.85 229.61c-11.734-11.734-29.09-17.691-51.586-17.691-39.258 0-90.457 17.621-147.21 48.863l167.76 167.77c50.117-90.688 64.461-165.52 31.039-198.94zm-36.492 80.309-6.3828 20.523c-1.6016 5.1406-5.3945 6.9727-8.4258 6.9727-1.7031 0-4.9805-0.57422-7.6992-4.4297l-12.402-17.539c-0.85156-1.1953-3.418-2.5156-4.9102-2.5156l-21.516 0.27344h-0.007813c-4.125 0-7.2617-1.7305-8.7695-4.7461-1.5234-3.0273-1.0195-6.5977 1.3633-9.7969l12.855-17.227c0.89062-1.1914 1.3477-4.0586 0.86719-5.4805l-6.9023-20.344c-1.5078-4.4219-0.070313-7.3984 0.91406-8.7852 2.2148-3.082 6.3594-4.1836 10.637-2.7617l20.344 6.9023c0.48047 0.17578 4.457-0.10938 5.4844-0.86719l17.207-12.855c4.0195-2.9844 8.9531-2.8242 11.918 0.17188 1.2266 1.2344 2.6719 3.5039 2.6328 7.2344l-0.27344 21.492c-0.023438 1.4922 1.2969 4.0781 2.5078 4.9336l17.547 12.418c3.2812 2.3164 4.8594 5.5742 4.3242 8.9414-0.52734 3.3672-3.0352 5.9844-6.8711 7.1758l-20.52 6.3828c-1.4336 0.45312-3.4844 2.5039-3.9219 3.9258z"/>
</svg>
