<?xml version="1.0" encoding="UTF-8"?>
<svg width="1200pt" height="1200pt" version="1.1" viewBox="0 0 1200 1200" xmlns="http://www.w3.org/2000/svg">
 <path d="m303.54 873.24c-11.93 0-21.613-9.6719-21.613-21.613 0-11.914 9.6836-21.602 21.613-21.602 11.844 0 21.602 9.6836 21.602 21.602 0 11.941-9.7578 21.613-21.602 21.613z"/>
 <path d="m303.54 804.11c-11.93 0-21.613-9.6953-21.613-21.625 0-11.941 9.6836-21.613 21.613-21.613 11.844 0 21.602 9.6719 21.602 21.613 0 11.926-9.7578 21.625-21.602 21.625z"/>
 <path d="m303.54 734.95c-11.93 0-21.613-9.6836-21.613-21.613 0-11.93 9.6836-21.613 21.613-21.613 11.844 0 21.602 9.6836 21.602 21.613 0 11.93-9.7578 21.613-21.602 21.613z"/>
 <path d="m303.54 665.81c-11.93 0-21.613-9.6953-21.613-21.613 0-11.941 9.6836-21.613 21.613-21.613 11.844 0 21.602 9.6719 21.602 21.613 0 11.93-9.7578 21.613-21.602 21.613z"/>
 <path d="m468.72 1041.9c-11.941 0-21.613-9.7578-21.613-21.613 0-11.914 9.6836-21.602 21.613-21.602s21.602 9.6836 21.602 21.602c0 11.859-9.6836 21.613-21.602 21.613zm0-69.133c-11.941 0-21.613-9.7695-21.613-21.613 0-11.93 9.6836-21.613 21.613-21.613s21.602 9.6836 21.602 21.613c0 11.836-9.6836 21.613-21.602 21.613zm0-69.156c-11.941 0-21.613-9.6719-21.613-21.613 0-11.914 9.6836-21.602 21.613-21.602s21.602 9.6836 21.602 21.602c0 11.941-9.6836 21.613-21.602 21.613z"/>
 <path d="m389.98 1128.4c-11.93 0-21.602-9.6836-21.602-21.602 0-11.93 9.6719-21.613 21.602-21.613 11.844 0 21.613 9.6836 21.613 21.613-0.015625 11.93-9.7812 21.602-21.613 21.602z"/>
 <path d="m389.98 1059.2c-11.93 0-21.602-9.6719-21.602-21.613 0-11.914 9.6719-21.602 21.602-21.602 11.844 0 21.613 9.6836 21.613 21.602-0.015625 11.941-9.7812 21.613-21.613 21.613z"/>
 <path d="m389.98 990.11c-11.93 0-21.602-9.707-21.602-21.625 0-11.914 9.6719-21.613 21.602-21.613 11.844 0 21.613 9.6953 21.613 21.613 0 11.914-9.7812 21.625-21.613 21.625z"/>
 <path d="m389.98 920.95c-11.93 0-21.602-9.6836-21.602-21.613 0-11.93 9.6719-21.613 21.602-21.613 11.844 0 21.613 9.6836 21.613 21.613 0 11.93-9.7812 21.613-21.613 21.613z"/>
 <path d="m389.98 851.8c-11.93 0-21.602-9.6836-21.602-21.613 0-11.914 9.6719-21.602 21.602-21.602 11.844 0 21.613 9.6836 21.613 21.602-0.015625 11.941-9.7812 21.613-21.613 21.613z"/>
 <path d="m389.98 782.65c-11.93 0-21.602-9.6719-21.602-21.602 0-11.93 9.6719-21.613 21.602-21.613 11.844 0 21.613 9.6836 21.613 21.613 0 11.93-9.7812 21.602-21.613 21.602z"/>
 <path d="m389.98 713.51c-11.93 0-21.602-9.6719-21.602-21.613 0-11.914 9.6719-21.613 21.602-21.613 11.844 0 21.613 9.6953 21.613 21.613-0.015625 11.941-9.7812 21.613-21.613 21.613z"/>
 <path d="m838.46 1011.5c-11.93 0-21.602-9.6953-21.602-21.613 0-11.914 9.6719-21.613 21.602-21.613 11.93 0 21.613 9.6953 21.613 21.613-0.003906 11.918-9.6875 21.613-21.613 21.613z"/>
 <path d="m838.46 942.38c-11.93 0-21.602-9.6719-21.602-21.602 0-11.941 9.6719-21.613 21.602-21.613 11.93 0 21.613 9.6719 21.613 21.613-0.003906 11.941-9.6875 21.602-21.613 21.602z"/>
 <path d="m838.46 873.24c-11.93 0-21.602-9.6719-21.602-21.613 0-11.914 9.6719-21.602 21.602-21.602 11.93 0 21.613 9.6836 21.613 21.602-0.003906 11.941-9.6875 21.613-21.613 21.613z"/>
 <path d="m838.46 804.11c-11.93 0-21.602-9.6953-21.602-21.625 0-11.941 9.6719-21.613 21.602-21.613 11.93 0 21.613 9.6719 21.613 21.613-0.003906 11.926-9.6875 21.625-21.613 21.625z"/>
 <path d="m838.46 734.95c-11.93 0-21.602-9.6836-21.602-21.613 0-11.93 9.6719-21.613 21.602-21.613 11.93 0 21.613 9.6836 21.613 21.613-0.003906 11.93-9.6875 21.613-21.613 21.613z"/>
 <path d="m838.46 665.81c-11.93 0-21.602-9.6953-21.602-21.613 0-11.941 9.6719-21.613 21.602-21.613 11.93 0 21.613 9.6719 21.613 21.613-0.003906 11.93-9.6875 21.613-21.613 21.613z"/>
 <path d="m961.15 172.05h-38.555c-2.3516-23.207-11.52-44.41-25.344-61.715l27.109-27.109c5.3984-5.3984 5.3984-14.148 0-19.547-5.3984-5.3984-14.148-5.3984-19.547 0l-27.238 27.227c-17.328-13.57-38.484-22.465-61.598-24.648v-39.359c0-7.6328-6.1914-13.824-13.812-13.824-7.6211 0-13.836 6.1914-13.836 13.824v40.066c-22.332 3.1211-42.758 12.406-59.316 26.23l-29.496-29.496c-5.375-5.4102-14.16-5.4102-19.559 0-5.3867 5.3867-5.3867 14.148 0 19.535l30.109 30.086c-12.562 16.754-20.891 36.828-23.125 58.738h-43.754c-7.6328 0-13.824 6.1914-13.824 13.824 0 7.6445 6.2031 13.824 13.824 13.824h44.293c2.8203 21.422 11.352 41.004 24.059 57.254l-31.57 31.57c-5.3984 5.3984-5.3984 14.148 0 19.547 2.7109 2.6992 6.2383 4.043 9.793 4.043 3.5156 0 7.0664-1.3438 9.7578-4.043l31.441-31.453c16.211 12.973 35.867 21.684 57.359 24.684v43.547c0 7.6445 6.2148 13.836 13.836 13.836s13.812-6.1914 13.812-13.836v-42.84c22.246-2.1016 42.648-10.441 59.605-23.16l29.207 29.219c2.7227 2.6992 6.2539 4.043 9.793 4.043 3.5273 0 7.0781-1.3438 9.7578-4.043 5.3984-5.3984 5.3984-14.148 0-19.547l-28.633-28.645c13.992-16.766 23.34-37.488 26.352-60.18h39.086c7.6328 0 13.812-6.1914 13.812-13.824 0.011719-7.6367-6.1797-13.828-13.801-13.828zm-156.41 97.152c-46.883 0-85.043-38.16-85.043-85.055 0-46.895 38.16-85.066 85.043-85.066 46.922 0 85.066 38.16 85.066 85.066 0.003906 46.906-38.133 85.055-85.066 85.055z"/>
 <path d="m672.41 683.2-2.0156-3.875c-13.273-30.898-40.836-52.738-73.246-59.426v172.82h-25.945v-174.86c-39.254 1.8242-74.027 25.5-89.473 61.453l-0.92578 1.9805c-3.5508 6.8633-10.367 14.449-19.883 18.984v116.66c0 17.746 12.695 26.867 25.883 27.59v0.058594h105.16v30.238h-51.684l-0.023438 281.66c0 19.164 15.539 34.703 34.703 34.703 19.188 0 34.738-15.539 34.738-34.703l0.003906-240.78h25.883l0.023437 240.77c0 19.164 15.527 34.703 34.715 34.703 19.164 0 34.703-15.539 34.703-34.703l-0.035156-452.7c-15.332-1.2734-26.793-11.16-32.578-20.582zm-132.11 109.52h-24.359v-97.129h24.359z"/>
 <path d="m746.96 679.3-1.7148 3.3945c-3.3828 5.7852-9.4336 12.133-17.484 16.379v207.98c0 36.926 58.164 36.926 58.164 0v-216.52c0-16.488-6.0469-31.727-15.816-44.41-9.6992 9.2383-17.664 20.422-23.148 33.168z"/>
 <path d="m961.04 637.08c-36.082-168.45-181.59-296.83-359.58-308.89v-48.48c0-9.5391-7.7383-17.293-17.281-17.293-9.5391 0-17.281 7.7539-17.281 17.293v47.617c-186.31 3.2773-341.07 133.8-379.39 307.46 0 0-1.5234 7.9453 6.9609 10.031 6.0703 1.5117 10.957-5.6641 10.957-5.6641 24.215-31.402 62.387-51.73 105.43-51.73 54.875 0 101.95 32.953 122.12 79.945 0 0 3.3945 6.7578 9.8633 6.7578 7.6094 0 11.113-6.7578 11.113-6.7578 20.172-46.992 67.246-79.945 122.11-79.945 54.875 0 101.95 32.953 122.14 79.945 0 0 3.9258 6.3828 9.9961 6.3828 7.2344 0 10.98-6.3828 10.98-6.3828 20.184-46.992 67.246-79.945 122.12-79.945 43.57 0 79.992 20.039 104.15 52.129 0 0 5.8438 6.8281 11.387 5.2578 5.3086-1.5039 4.1914-7.7344 4.1914-7.7344z"/>
</svg>
