<?xml version="1.0" encoding="UTF-8"?>
<svg width="1200pt" height="1200pt" version="1.1" viewBox="0 0 1200 1200" xmlns="http://www.w3.org/2000/svg">
 <path d="m1200 600c0 214.36-114.36 412.44-300 519.62-185.64 107.18-414.36 107.18-600 0-185.64-107.18-300-305.26-300-519.62s114.36-412.44 300-519.62c185.64-107.18 414.36-107.18 600 0 185.64 107.18 300 305.26 300 519.62z" fill="#45dee0"/>
 <path d="m957.02 463.62c-31.055-4.5469-62.141-8.9727-93.254-13.168-31.113-4.1914-62.23-8.3242-93.398-12.133-3.4258-0.5625-6.9961-0.058594-10.156 1.918-6.6406 4.1328-8.6797 12.871-4.5469 19.484 7.4375 12.016 20.957 33.652 31.055 49.625-7.8516 3.543-15.586 7.293-23.172 11.336-29.195 15.32-56.621 34.242-81.359 56.059 0.88672-47.703 1.7109-96.234 2.3906-144.03 20.309 0.23438 52.84 0.64844 52.84 0.64844 13.875 0.29688 22.141-16.234 13.371-27.219-33.891-43.098-102.29-129-136.5-171.86-7.0859-9.0938-21.43-9.1211-28.516 0-31.762 39.203-71.496 88.676-103.03 128.05l-34.094 42.895c-2.5391 3.1289-4.0742 7.0859-4.0156 11.453 0.058593 9.8594 8.1484 17.832 18.008 17.77 12.426-0.11719 34.066-0.23437 51.543-0.41406 0.058594 7.5859 0.14844 14.762 0.14844 14.762 0.53125 42.156 1.2383 84.367 2.0664 126.64-4.25-3.75-8.6211-7.4688-13.047-11.039-20.754-16.707-43.188-31.352-66.773-43.836-7.5586-4.0156-15.23-7.7344-23.027-11.277 10.066-15.969 23.527-37.461 30.996-49.477 1.6836-2.7148 2.4805-5.9648 2.0664-9.3867-1.0039-8.207-8.7969-13.758-16.887-12.281l-46.73 5.9648c-43.305 5.7852-96.973 12.988-139.93 19.484-11.188 1.4766-18.332 13.551-14.23 24.059l0.11719 0.32422 8.3242 22.023c19.602 51.188 39.5 102.67 60.223 153.39 4.9609 13.875 24.441 15.469 31.527 2.4219 8.2656-14.848 19.363-35.129 28.637-52.16 39.91 11.984 77.285 32.059 109.52 58.508 14.406 11.719 28.043 25.859 41.359 38.906l10.391 10.035c0.35547 0.35547 0.76562 0.70703 1.1211 1.0625 0.82812 27.395 1.7422 54.789 2.7734 82.094 1.6523 43.098 3.4844 86.195 5.9023 129.3 0.058594 1.3008 1.1211 2.3906 2.4805 2.4805 1.4766 0.089844 2.7148-1.0039 2.7734-2.4805 1.2383-21.551 2.332-43.098 3.2461-64.648 2.7461-60.93 4.8398-122.27 6.4961-183.5 10.422 13.52 19.957 27.777 28.547 42.715 15.5 26.98 23.676 57.711 23.676 88.828v121.86c0 2.0352 1.6523 3.6914 3.6914 3.6914 2.0352 0 3.6914-1.6523 3.6914-3.6914l-0.058594-121.83c0-32.414-8.5312-64.414-24.68-92.516-10.242-17.832-21.844-34.715-34.625-50.539 0.5625-21.195 1.0625-42.391 1.5352-63.527 1.418-64.059 2.4805-129.71 3.1289-193.92 0.11719-9.625-7.7344-17.418-17.359-17.359l-31.145-0.32422c26.625-32.766 55.793-68.93 79.82-98.832 0 0 10.332-12.898 20.102-25.062 29.078 35.777 70.73 86.996 101.93 125.11-16.828 0.20703-33.328 0.41406-33.328 0.41406h-0.41406c-8.7383 0.11719-15.762 7.3203-15.645 16.059 0.88672 64.059 1.8906 129.77 3.3047 193.92 2.3008 105.68 5.3711 217.5 10.094 323.19 0.058594 1.3594 1.1211 2.4219 2.5078 2.5078 1.4766 0.058594 2.6875-1.0625 2.7734-2.5078 0.53125-10.773 0.97266-21.551 1.418-32.324 2.3633-58.066 4.3086-118.02 5.9648-177.77 0.82812-0.76562 1.6523-1.5352 2.4805-2.3633l10.391-10.035c13.285-12.988 26.98-27.16 41.387-38.879 32.234-26.449 69.609-46.523 109.52-58.508 6.6992 12.34 15.617 28.754 19.895 36.426l8.6797 15.703c1.832 3.3359 4.7812 6.1094 8.6211 7.6758 8.8867 3.6602 19.07-0.58984 22.73-9.4453 20.812-50.953 40.766-102.64 60.426-154.1 0.70703-2.2422 9.5625-24.355 9.3867-26.094 1.3867-9.7422-5.3711-18.832-15.172-20.25zm-475.16 196.84 20.488-20.488c3.8359 3.6016 7.6172 7.293 11.336 11.07l-21.344 21.344c-3.3945-4.1016-6.8789-8.0586-10.48-11.926zm-76.992-188.14c-7.0859 13.402-14.523 27.453-19.188 36.367-4.0156 6.2578-0.94531 15.055 6.2305 17.18 44.164 13.934 85.961 34.656 124.66 60.102 0.41406 19.602 0.82812 39.172 1.3281 58.773-9.6836-9.8008-19.895-19.039-30.555-27.75 0 0-0.03125-0.058594-0.058594-0.058594-0.20703-0.20703-0.41406-0.35547-0.64844-0.53125-5.7578-4.6641-11.633-9.1797-17.652-13.52-0.058593-0.089843-0.11719-0.17578-0.23438-0.26562-0.41406-0.41406-0.88672-0.67969-1.3594-0.85547-6.1406-4.3984-12.457-8.6211-18.832-12.637-0.11719-0.058594-0.17578-0.11719-0.29688-0.17578-20.781-13.02-42.832-24.117-65.918-33.062-0.11719-0.058594-0.17578-0.058594-0.29688-0.11719-3.4258-1.3281-6.8789-2.6289-10.332-3.8359l-22.348-7.9102c-14.406-5.0781-25.359-16.945-29.312-31.703l-6.4062-23.91c30.465-5.1953 61.488-10.688 91.215-16.09zm42.688 156.72 18.863-18.863c4.3086 3.1289 8.5625 6.375 12.695 9.6836l-19.305 19.305c-3.957-3.4531-8.0586-6.8477-12.25-10.125zm-19.098-13.699 18.48-18.48c4.5469 2.8945 9.0312 5.9023 13.43 8.9727l-18.715 18.715c-4.3398-3.1875-8.7383-6.2578-13.195-9.2109zm-20.488-12.367 18.363-18.363c4.7812 2.6562 9.5039 5.3711 14.168 8.2344l-18.422 18.422c-4.6055-2.8945-9.3281-5.668-14.109-8.2969zm-21.875-10.953 18.539-18.539c5.0195 2.3633 10.035 4.8711 14.938 7.4375l-18.363 18.363c-4.9883-2.5391-10.035-4.9609-15.113-7.2617zm-23.438-9.3867 19.039-19.039c5.3125 2.0977 10.566 4.3086 15.762 6.6133l-18.656 18.656c-5.3125-2.2148-10.715-4.3398-16.148-6.2305zm-69.285-29.227 25.387-25.387c2.7734 4.5742 6.168 8.707 10.125 12.281l-29.285 29.285c-2.0664-5.4023-4.1328-10.805-6.2305-16.176zm-9.1797-23.645 25.918-25.918 2.7734 10.391c0.64844 2.3633 1.418 4.6328 2.3633 6.8477l-24.797 24.797c-2.0664-5.3711-4.1914-10.746-6.2578-16.117zm-4.3086-11.039c-2.2422-5.7266-5.668-14.496-9.0312-23.086 11.633-1.9492 23.5-3.9258 35.484-5.9648l1.5938 5.9336-26.625 26.625c-0.53125-1.1523-0.94531-2.332-1.418-3.5117zm22.613 58.422 32.266-32.266c3.7188 2.5078 7.793 4.5742 12.105 6.1094l3.0703 1.0938-41.27 41.27c-2.0352-5.4023-4.1016-10.832-6.168-16.207zm51.543 2.5391c-6.5234-2.125-13.902 0.35547-17.652 6.4648l-0.53125 0.82812s-17.504 28.574-18.301 29.902c-2.0078-5.3438-4.0156-10.688-6.0508-16l46.109-46.109 11.57 4.0742c1.6523 0.58984 3.3047 1.1797 4.9297 1.832l-19.277 19.277c-0.23438-0.089844-0.5-0.14844-0.79688-0.26562zm111.32 64.414 19.543-19.543c4.0742 3.3672 8.0898 6.8477 12.016 10.391l-20.164 20.164c-3.6914-3.7773-7.5-7.4375-11.395-11.012zm31.617 34.035 21.195-21.195c0.17578 7.2617 0.35547 14.555 0.5625 21.844l-12.105 12.105c-2.4805-3.3047-4.9609-6.6133-7.4375-9.918-0.70703-0.97266-1.4453-1.918-2.2148-2.832zm14.109 18.746 7.9414-7.9414c0.17578 6.5234 0.35547 13.047 0.53125 19.543-2.8047-3.8672-5.6367-7.7617-8.4727-11.602zm391.96-134.26c-6.9375 18.066-13.816 36.133-20.605 54.23l-18.301-29.844-0.53125-0.85547c-3.6016-5.875-10.863-8.7383-17.711-6.4648-57.152 18.332-108.7 53.637-145.15 101.28-7.4375 9.7422-14.613 19.543-21.727 29.43 1.1211-41.504 2.0664-82.863 2.8945-123.33 2.6289-1.7695 4.6641-3.1289 4.6641-3.1289 27.039-17.652 55.559-32.887 85.434-45.047 9.0312-3.6602 18.156-7.1133 27.363-10.242 5.4922-1.8906 9.8594-6.1406 11.836-11.602 0.03125-0.089844 0.058594-0.17578 0.089844-0.23438 1.832-5.0781 1.4766-10.688-1.0625-15.469-4.4297-8.4414-10.035-19.012-15.41-29.168 44.695 8.207 89.508 16 134.34 23.469-0.29688 0.76562-0.47266 1.2383-0.47266 1.2383-8.2969 21.195-17.477 44.547-25.652 65.742z" fill="#00449e"/>
</svg>
