<?xml version="1.0" encoding="UTF-8"?>
<svg width="1200pt" height="1200pt" version="1.1" viewBox="0 0 1200 1200" xmlns="http://www.w3.org/2000/svg">
 <path d="m310.92 701.95c2.3906 1.0312 4.7344 2.2969 6.8438 3.7969 19.594 12.328 32.812 31.219 38.391 52.078 5.8125 21.844 3.3281 46.078-8.8594 67.266l-2.5781 4.4062c-12.188 21.281-31.922 35.531-53.766 41.344-20.766 5.5781-43.688 3.6094-64.031-7.0781-2.1094-0.9375-4.125-2.1094-5.9531-3.4219-19.594-12.281-32.812-31.219-38.438-52.125-5.8125-21.797-3.3281-45.938 8.8594-67.125l2.9531-5.2031c12.234-20.859 31.781-34.828 53.438-40.641 20.484-5.4844 42.984-3.6094 63.234 6.75zm169.6 97.828c2.1094 0.9375 4.125 2.1094 6 3.4688 19.594 12.328 32.812 31.219 38.391 52.078 5.8125 21.844 3.3281 46.078-8.8594 67.266l-2.5781 4.4062c-12.188 21.234-31.875 35.484-53.766 41.344-20.438 5.4844-42.938 3.6562-63.141-6.7031-2.4375-1.0312-4.7344-2.2969-6.8906-3.7969-19.594-12.281-32.812-31.219-38.438-52.125-5.8125-21.797-3.3281-45.938 8.8594-67.125l2.625-4.6875c12.188-21.188 31.922-35.391 53.766-41.203 20.766-5.5781 43.641-3.6094 64.031 7.125zm174.84 100.92c19.547 12.281 32.719 31.172 38.344 52.031 5.8125 21.797 3.3281 45.938-8.8594 67.125l-2.625 4.5469c-12.188 21.234-31.875 35.484-53.766 41.344-21.797 5.8125-45.891 3.3281-67.172-8.9062-21.188-12.188-35.438-31.875-41.297-53.766-5.8125-21.797-3.3281-45.938 8.8594-67.125l1.2656-2.2969c0.84375-1.7812 1.9219-3.5156 3.0469-5.1562 12.281-19.594 31.219-32.859 52.125-38.438 20.484-5.4844 42.938-3.6562 63.141 6.7031 2.4844 1.0312 4.8281 2.3438 6.9844 3.9375zm-244.26-363c21.141 12.188 35.344 31.875 41.203 53.766 5.8125 21.797 3.3281 45.938-8.8594 67.125l-2.625 4.5469c-12.234 21.234-31.969 35.531-53.766 41.344s-45.891 3.3281-67.172-8.9062c-21.188-12.188-35.438-31.875-41.297-53.766-5.8125-21.797-3.3281-45.938 8.8594-67.125l2.625-4.6875c12.188-21.141 31.875-35.344 53.766-41.203 21.797-5.8125 45.938-3.3281 67.266 8.9062zm168.74 97.406c21.141 12.188 35.344 31.875 41.203 53.766 5.8125 21.797 3.3281 45.938-8.8594 67.125l-2.625 4.5469c-12.188 21.281-31.922 35.531-53.766 41.344-21.844 5.8594-46.031 3.375-67.547-9-21.047-12.375-35.156-31.922-40.922-53.625-5.8125-21.797-3.3281-45.938 8.8594-67.125l2.625-4.6875c12.188-21.141 31.875-35.344 53.766-41.203 21.797-5.8125 45.938-3.3281 67.266 8.9062zm164.72 95.25c2.3906 1.0312 4.7344 2.2969 6.7969 3.7969 19.594 12.281 32.812 31.172 38.438 52.125 5.5312 20.766 3.6094 43.688-7.125 64.078-0.98438 2.1094-2.1094 4.125-3.4688 6.0469l-0.84375 1.5c-12.188 21.281-31.922 35.531-53.766 41.344-21.844 5.8594-46.031 3.375-67.547-9-21.047-12.375-35.156-31.922-40.922-53.625-5.8125-21.797-3.3281-45.938 8.8594-67.125l2.625-4.6875c12.188-21.141 31.875-35.344 53.766-41.203 20.484-5.4844 43.031-3.6094 63.234 6.75zm-237.37-359.16c21.141 12.188 35.344 31.875 41.203 53.766 5.8125 21.797 3.3281 45.891-8.8594 67.125l-2.625 4.6875c-12.188 21.141-31.922 35.391-53.766 41.203-20.766 5.5781-43.688 3.6094-64.031-7.0781-2.1094-0.9375-4.125-2.1094-5.9531-3.4219-19.594-12.281-32.812-31.219-38.438-52.125-5.8125-21.797-3.3281-45.938 8.8594-67.125l2.9531-5.25c12.188-20.812 31.734-34.828 53.438-40.641 21.797-5.8125 45.938-3.3281 67.266 8.9062zm168.74 97.406c21.141 12.188 35.344 31.875 41.203 53.766 5.8125 21.844 3.3281 46.078-8.8594 67.266l-2.5781 4.4062c-12.188 21.281-31.922 35.531-53.766 41.344-20.766 5.5781-43.688 3.6094-64.031-7.0781-2.1094-0.9375-4.125-2.1094-5.9531-3.4219-19.594-12.281-32.812-31.219-38.438-52.125-5.8125-21.797-3.3281-45.938 8.8594-67.125l2.9531-5.25c12.188-20.812 31.734-34.828 53.438-40.641 21.797-5.8125 45.938-3.3281 67.266 8.9062zm164.72 95.25c2.3906 1.0312 4.7344 2.2969 6.8438 3.7969 19.594 12.328 32.812 31.219 38.391 52.078 5.8125 21.844 3.3281 46.078-8.8594 67.266l-2.5781 4.4062c-12.188 21.281-31.922 35.531-53.766 41.344-20.766 5.5781-43.688 3.6094-64.031-7.0781-2.1094-0.9375-4.125-2.1094-5.9531-3.4219-19.594-12.281-32.812-31.219-38.438-52.125-5.8125-21.797-3.3281-45.938 8.8594-67.125l2.9531-5.2031c12.234-20.859 31.781-34.828 53.438-40.641 20.484-5.4844 42.984-3.6094 63.234 6.75zm-160.22-396.66 254.11 146.72c28.266 16.219 47.156 42.422 54.984 71.625 7.4531 27.797 4.7344 58.453-9.75 85.734-0.98438 2.25-2.1562 4.3594-3.5156 6.3281-16.359 26.672-41.812 44.672-70.078 52.219-28.125 7.5469-59.062 4.7344-86.531-10.125-2.0625-0.9375-3.9844-2.0625-5.8125-3.375l-251.06-144.94c-28.266-16.219-47.203-42.469-54.984-71.625-7.7812-29.062-4.4531-61.172 12-89.766 16.547-28.172 42.609-46.875 71.344-54.562 29.062-7.7812 61.172-4.4531 89.297 11.719zm32.109-123.98 317.81 183.61c46.125 27.422 77.203 70.922 90.094 119.11 13.125 48.984 7.6406 103.08-19.688 150.42l-339.98 588.98c-27.281 47.25-71.438 79.078-120.52 92.25-48.656 13.031-102.38 7.6875-149.48-19.172l-318.79-184.03c-47.391-27.328-79.266-71.484-92.391-120.52-13.125-48.984-7.5938-103.12 19.688-150.42l338.58-586.55c0.84375-1.6875 1.7812-3.3281 2.8125-4.8281 27.375-45.984 70.875-76.922 119.11-89.859 48.094-12.891 101.11-7.8281 147.79 18.188 1.6875 0.79688 3.3281 1.7344 4.875 2.8125zm277.4 243.1-315.61-182.21c-30.047-17.344-64.594-20.812-95.953-12.375-31.266 8.3438-59.344 28.547-76.734 58.453l-340.18 589.22c-17.344 30.047-20.812 64.594-12.375 96s28.641 59.625 58.688 76.922l317.76 183.47c30.188 17.391 64.734 20.859 96.188 12.422 31.312-8.3906 59.531-28.641 76.875-58.734l338.68-586.6c0.84375-1.7344 1.7812-3.3281 2.8594-4.9219 16.031-29.391 19.031-62.859 10.828-93.375-8.1562-30.516-27.516-57.938-56.062-75.375-1.7344-0.79688-3.375-1.7812-5.0156-2.8594z"/>
</svg>
