<?xml version="1.0" encoding="UTF-8"?>
<svg width="1200pt" height="1200pt" version="1.1" viewBox="0 0 1200 1200" xmlns="http://www.w3.org/2000/svg">
 <path d="m1132.3 504.84-410.4-410.52c-33.008-29.492-78.848-39.961-121.39-27.727-42.539 12.234-75.809 45.465-88.102 87.984-12.293 42.523-1.8828 88.375 27.566 121.42l194.04 194.4h-575.4c-45.961 0-88.426 24.52-111.41 64.32s-22.98 88.84 0 128.64 65.445 64.32 111.41 64.32h577.32l-195.96 196.32c-26.41 23.598-41.938 57.035-42.918 92.441-0.98438 35.406 12.66 69.652 37.723 94.684 25.062 25.027 59.324 38.625 94.73 37.598 35.402-1.0312 68.82-16.598 92.387-43.043l410.4-410.52c24.168-24.094 37.73-56.832 37.68-90.961v-4.1992c1.2305-35.582-12.426-70.066-37.68-95.16z"/>
</svg>
