<?xml version="1.0" encoding="UTF-8"?>
<svg width="1200pt" height="1200pt" version="1.1" viewBox="0 0 1200 1200" xmlns="http://www.w3.org/2000/svg">
 <path d="m1200 600c0 214.36-114.36 412.44-300 519.62-185.64 107.18-414.36 107.18-600 0-185.64-107.18-300-305.26-300-519.62s114.36-412.44 300-519.62c185.64-107.18 414.36-107.18 600 0 185.64 107.18 300 305.26 300 519.62z" fill="#70d258"/>
 <path d="m904.24 309.88c-4.0156 0.58984-7.3203 3.1875-8.9727 6.9648l-45.699 106.39c-1.1797 2.832-3.543 5.0781-6.375 6.2578-2.9531 1.0625-6.0234 1.0625-8.8555-0.11719l-64.59-27.75c-5.668-2.2734-8.707-9.625-6.0234-15.23l45.699-106.51c3.5117-7.5859-2.6289-16.59-11.102-16.414-132.31 3.4258-196.95 162.36-105.57 257.89l-47.23 110.05c-6.4961 0-12.398 0.35547-18.184 1.0625 28.723 27.836 18.508 80.621-18.773 95.41 6.3164 14.762 15.113 35.012 21.492 49.711l46.168 19.836c2.832 1.1797 5.0781 3.4258 6.2578 6.375 1.0625 2.832 1.0625 6.0234-0.11719 8.8555l-18.539 42.98c2.4805 5.668 8.0312 18.422 10.391 23.969 4.2227 9.0938 3.75 19.691-0.11719 28.812-2.7461 6.375-7.7031 19.305-10.273 25.742 123.39-15.676 176.26-167.65 89.508-256.59l47.113-109.81c60.988 0.62109 117.2-35.512 141.46-92.105 23.379-54.434 12.754-118.08-27.039-162.12-2.7148-2.9531-6.7305-4.3672-10.625-3.6602z" fill="#fff"/>
 <path d="m500.16 774.88c-2.7148 1.1797-5.4336 2.125-8.2656 2.832-1.5352 38.848 12.043 77.695 39.203 107.81 4.2812 4.8711 12.898 5.2539 17.121 0.23437-3.8359-9.0938-16.531-38.316-20.664-47.824-2.125-4.8711-26.156-60.16-27.395-63.055z" fill="#fff"/>
 <path d="m577.48 715.63 21.668-9.3867c36.074-15.469 22.699-70.762-16.473-67.75l-10.391-23.969c25.504-26.805 53.344-51.363 39.379-87.324l-101.93-235.21c-7.2031-16.59-23.293-27.719-40.973-28.34-50.242-1.918-90.922 10.832-116.28 21.844-36.043 15.617-68.93 39.645-95.082 69.43-11.926 13.551-14.906 33.094-7.6758 49.859l101.87 235.09c14.789 34.895 59.895 31.762 90.625 30.938l10.422 24.031c-23.559 21.105-7.4375 61.844 24.117 61.227 9.5938 0.82813 26.863-8.9453 35.691-12.309l75.098 173.35c1.2383 2.8633 3.5703 5.1367 6.4961 6.2891l31.055 12.281c2.8945 1.1523 6.1406 1.0938 9.0312-0.14844 2.8633-1.2383 5.1367-3.5703 6.2891-6.4961l12.281-31.055c1.1523-2.8945 1.1211-6.168-0.14844-9.0312l-75.129-173.37zm-83.777-401.24 93.906 216.68c-17.977 7.793-38.789-0.44141-46.582-18.422l-65.742-151.67c-7.793-17.977 0.44141-38.789 18.422-46.582zm66.422 331.54-86.672 37.551-6.8477-15.793c37.137-7.5586 60.016-18.598 86.645-37.637zm-189.22-20.957-93.906-216.68c17.977-7.793 38.789 0.44141 46.582 18.422l65.742 151.67c7.793 17.977-0.44141 38.789-18.422 46.582zm61.758-65.355-65.742-151.67c-17.477-43.277 45.344-70.582 65.004-28.164l65.742 151.67c17.477 43.277-45.312 70.582-65.004 28.164zm48.766 171.89c-14.289 5.9023-23.559-15.23-9.3867-21.668l108.34-46.938c14.141-6.1094 23.559 15.5 9.3867 21.668-15.203 6.582-61.371 26.598-75.836 32.855l-32.5 14.082z" fill="#fff"/>
</svg>
