<?xml version="1.0" encoding="UTF-8"?>
<svg width="1200pt" height="1200pt" version="1.1" viewBox="0 0 1200 1200" xmlns="http://www.w3.org/2000/svg">
 <path d="m600 483.14c0-9.6094 12.609-16.922 28.406-16.312s27.422 9.0938 27.047 18.703-12.609 16.781-28.547 16.172-27.281-8.9531-26.906-18.562zm51.281 82.5c-18.703-8.0625-37.875-5.0625-42.938 6.7031s5.9531 27.797 25.266 35.859 37.875 5.0625 42.938-6.7031c5.0625-11.719-7.0781-27.797-25.266-35.859zm83.25 53.438c-12.609-2.2969-25.266 2.5312-26.531 10.875s8.0625 16.922 21.234 19.312c13.125 2.3906 25.266-2.5312 26.672-10.875 1.3594-8.3438-8.1094-16.922-21.375-19.312zm120 67.969c-4.0312 25.266-55.688 40.547-120.24 43.312-7.5938 83.859-33.469 130.97-112.41 116.48-90.047-10.734-128.34-49.406-101.06-144.74-54.562-15.938-101.06-63.141-97.266-85.406 13.641-77.578 57.469-226.22 255.42-191.39 211.31 37.266 187.92 183.94 175.55 261.74zm-136.31-1.5v-0.046875c-9.375-1.5-18.703-3.5156-27.891-6.0469l-22.734 87.141 11.484-90.797c-41.109-11.484-79.312-31.594-112.03-59.016-16.078 59.016-74.438 177 8.2031 197.95l15.656-53.672-6.3281 56.953c58.125 20.062 88.406 10.125 101.95 0 22.875-15.891 28.922-93.094 31.688-132.52zm24.375-118.59c-29.297-40.406-18.422-96.375 29.953-87.141-64.312-43.828-210.05-58.359-262.6-4.1719 58.594-25.266 83.766 37.875 27.281 66.188-28.312 14.297-60.516 9.6094-65.062-16.031v-0.09375c-11.016 21.938-20.062 44.766-27.047 68.25 102.94-65.438 142.87 37.875 254.53 67.969 50.531 13.5 111.52-3.5156 136.78 0.89062h1.6406l0.046875-0.046875c5.4844-32.906 4.4531-66.609-3.0469-99.141-3.9375 52.922-63.562 46.594-92.484 3.2812zm425.34 33.047c12.609 93.234-190.97 84.516-227.39 167.39-36.375 82.875 64.172 245.29-45.984 291.66-102.19 42.844-141.24-75.797-249.61-82.969-108.38-7.2188-279.89 203.44-384.24 121.87-101.06-78.562 50.531-248.34-7.2188-345.47-57.703-97.172-221.9-79.219-221.9-192 0-115.22 192-108 254.29-171.52 60.141-61.125-16.781-252.61 95.484-298.74 116.58-47.391 229.5 164.86 327.14 180.52 82.359 12.609 218.02-103.69 273.24-41.297 49.406 55.828-68.203 157.78-33.609 234.32 38.391 84.938 207.79 43.875 219.79 136.22zm-760.4-144h-0.046875c7.875-30.609 31.781-54.516 62.391-62.391-30.562-7.8281-54.469-31.688-62.391-62.297-7.8281 30.609-31.688 54.469-62.25 62.297 30.422 7.7812 54.281 31.5 62.25 61.875zm276.24-58.125c-153.24-26.484-258.47 51.281-287.16 213.98-6.8438 37.875 40.781 84.75 92.953 107.77-7.6875 46.359-4.3125 78.328 10.359 99.281 25.266 35.484 81.609 48.891 104.95 52.922 4.5469 0.89062 9.0938 1.5 13.641 2.1562 30.562 3.6562 72.516 3.2812 98.906-19.594 19.594-17.062 32.719-48.516 40.781-98.297 50.531-4.5469 115.97-19.453 123.14-64.781 12.094-75.141 40.781-250.97-197.58-293.44z" fill="#12b0fb"/>
</svg>
