<?xml version="1.0" encoding="UTF-8"?>
<svg width="1200pt" height="1200pt" version="1.1" viewBox="0 0 1200 1200" xmlns="http://www.w3.org/2000/svg">
 <path d="m1200 600c0 214.36-114.36 412.44-300 519.62-185.64 107.18-414.36 107.18-600 0-185.64-107.18-300-305.26-300-519.62s114.36-412.44 300-519.62c185.64-107.18 414.36-107.18 600 0 185.64 107.18 300 305.26 300 519.62z" fill="#ff59b9"/>
 <path d="m366.5 469.76c0-4.6328 3.75-8.4141 8.3828-8.4141h301.61c4.6328 0 8.3828 3.7773 8.3828 8.4141s-3.75 8.3828-8.3828 8.3828h-301.57c-2.2422 0-4.3984-0.88672-5.9648-2.4492-1.5664-1.5664-2.4492-3.7188-2.4492-5.9336zm8.3828 56.09 301.61-0.03125c4.5469-0.11719 8.1484-3.8359 8.1484-8.3828s-3.6016-8.2656-8.1484-8.4141h-301.57c-4.5469 0.14844-8.1758 3.8672-8.1758 8.4141s3.6328 8.2656 8.1758 8.3828zm0 76.102h165.05c4.5469-0.14844 8.1484-3.8672 8.1484-8.4141 0-4.5469-3.6016-8.2656-8.1484-8.4141h-165.02c-4.5469 0.14844-8.1758 3.8672-8.1758 8.4141 0 4.5469 3.6328 8.2656 8.1758 8.4141zm0 47.676h165.05c4.6328 0 8.3828-3.7773 8.3828-8.4141 0-4.6367-3.75-8.3828-8.3828-8.3828h-165.02c-4.6641 0-8.4141 3.75-8.4141 8.3828 0 4.6367 3.75 8.4141 8.4141 8.4141zm0 76.102h165.05c4.6328 0 8.3828-3.7773 8.3828-8.4141 0-4.6328-3.75-8.3828-8.3828-8.3828h-165.02c-4.6641 0-8.4141 3.75-8.4141 8.3828 0 4.6328 3.75 8.4141 8.4141 8.4141zm301.61 30.879h-301.57c-4.6641 0-8.4141 3.75-8.4141 8.4141 0 4.6328 3.75 8.3828 8.4141 8.3828h301.57c4.6328 0 8.3828-3.75 8.3828-8.3828 0-4.6641-3.75-8.4141-8.3828-8.4141zm-219.16-356.16v-42.449c0-4.6328 3.75-8.3828 8.3828-8.3828h211.77c4.6328 0 8.3828 3.75 8.3828 8.3828v42.449c0 4.6328-3.75 8.3828-8.3828 8.3828h-211.77c-2.2148 0-4.3672-0.85547-5.9336-2.4492-1.5664-1.5664-2.4492-3.7188-2.4492-5.9336zm16.797-8.4141h194.98l-0.03125-25.625h-194.98zm422.61 181.34v136.03c0 4.6328-3.75 8.4141-8.3828 8.4141h-86.758v176.09-0.03125c0 4.6328-3.75 8.4141-8.3828 8.4141h-432.5c-4.6328 0-8.3828-3.75-8.3828-8.3828v-40.68h-40.68c-4.6328 0-8.3828-3.75-8.3828-8.3828v-448.61c0-0.29688 0-0.5625 0.03125-0.82812 0-0.11719 0-0.23438 0.058593-0.38281 0.058594-0.11719 0-0.29688 0.058594-0.44141 0.058594-0.14844 0.058594-0.26562 0.11719-0.41406 0.03125-0.14844 0.058594-0.23437 0.089844-0.38281 0.03125-0.11719 0.089844-0.26562 0.14844-0.41406 0.058594-0.14844 0.089844-0.23438 0.14844-0.38281 0.058594-0.11719 0.11719-0.23438 0.17578-0.38281l0.17578-0.35547c0.058594-0.11719 0.14844-0.23438 0.20703-0.35547 0.089844-0.11719 0.11719-0.23438 0.20703-0.35547 0.089844-0.11719 0.20703-0.26562 0.29688-0.41406l0.20703-0.26562-0.03125 0.03125c0.17578-0.20703 0.38281-0.41406 0.5625-0.62109l90.098-90.066c0.20703-0.20703 0.41406-0.38281 0.64844-0.5625l0.20703-0.14844v-0.03125c0.14844-0.11719 0.29687-0.23438 0.44141-0.32422l0.29688-0.17578c0.14844-0.089843 0.26562-0.17578 0.41406-0.23438 0.14844-0.058594 0.20703-0.11719 0.32422-0.14844l0.41406-0.20703 0.32422-0.11719c0.14844-0.058594 0.29688-0.11719 0.44141-0.14844l0.29687-0.089843 0.5-0.11719 0.32422-0.058593 0.47266-0.089844h343.23c4.6328 0 8.3828 3.7773 8.3828 8.4141v40.68h40.68v-0.03125c4.6055 0 8.3555 3.7188 8.3828 8.3555v209.83h86.758c4.6328 0 8.3828 3.75 8.3828 8.3828zm-144.21-209.8v201.41h32.266v-201.41zm-420.6 24.234h61.43v-61.43zm-11.867 448.61h415.7v-118.64h-123.3c-2.2148 0-4.3672-0.88672-5.9336-2.4492-1.5664-1.5938-2.4492-3.7188-2.4492-5.9336v-136.03c0-2.2422 0.88672-4.3672 2.4492-5.9648 1.5664-1.5664 3.7188-2.4492 5.9336-2.4492h123.3v-250.45h-325.61v81.707c0 4.6328-3.75 8.3828-8.3828 8.3828h-81.707zm464.77-118.64h-32.266v127.05c0 2.2422-0.88672 4.3672-2.4805 5.9648-1.5664 1.5664-3.6914 2.4492-5.9336 2.4492h-375.05v32.266h415.7zm95.145-136.03h-259.1v119.23h259.07z"/>
</svg>
