<?xml version="1.0" encoding="UTF-8"?>
<svg width="1200pt" height="1200pt" version="1.1" viewBox="0 0 1200 1200" xmlns="http://www.w3.org/2000/svg">
 <path d="m592.32 375.49c-201.54 228.3-335.27 368.21-335.27 368.21l172.8 28.766z"/>
 <path d="m933.81 512.57c-12.77-13.668-34.262-14.41-47.965-1.5859l-76.68 71.605 5.3633-115.41c0.83984-18.73-13.645-34.621-32.34-35.484-3.1914-0.13281-6.3125 0.22656-9.2539 0.89844l-95.797-35.879 19.02-51.84c6.9609 22.164 22.824 41.484 45.539 52.094 42.961 20.207 94.188 1.668 114.36-41.305 20.172-42.973 1.6797-94.176-41.328-114.36-27.562-12.91-58.453-9.9492-82.414 5.1484l73.648-200.81c6.5039-17.594-2.5664-37.105-20.148-43.547-17.617-6.457-37.129 2.5547-43.559 20.148l-138.61 377.79c-0.21484 0.60156-0.42188 1.2227-0.57422 1.8242l-119.75 286.25 0.43359 0.25391c-1.3555 2.4609-2.5938 4.9688-3.5742 7.6914l-156.8 435.78c-9.5039 26.496 4.2344 55.668 30.707 65.125 5.6758 2.0898 11.496 3.0469 17.219 3.0469 20.867 0 40.43-12.938 47.914-33.707l155.29-431.71 35.578 18.109-79.703 136.52c-14.207 24.254-6 55.465 18.266 69.66 8.0742 4.7148 16.906 6.9375 25.598 6.9375 17.531 0 34.559-9.0469 44.027-25.234l115.61-197.95c14.195-24.266 5.9766-55.465-18.277-69.637-3.793-2.2422-7.7891-3.8164-11.844-4.9688l37.176-79.152-3.4062 73.883c-0.64844 13.789 7.1758 26.594 19.656 32.375 4.5586 2.0898 9.4453 3.1328 14.23 3.1328 8.4375 0 16.766-3.1328 23.195-9.1445l137.58-128.59c13.691-12.781 14.387-34.246 1.6055-47.953z"/>
</svg>
