<?xml version="1.0" encoding="UTF-8"?>
<svg width="1200pt" height="1200pt" version="1.1" viewBox="0 0 1200 1200" xmlns="http://www.w3.org/2000/svg">
 <defs>
  <clipPath id="a">
   <path d="m222.14 237h755.71v726h-755.71z"/>
  </clipPath>
 </defs>
 <path d="m1200 600c0 214.36-114.36 412.44-300 519.62-185.64 107.18-414.36 107.18-600 0-185.64-107.18-300-305.26-300-519.62s114.36-412.44 300-519.62c185.64-107.18 414.36-107.18 600 0 185.64 107.18 300 305.26 300 519.62z" fill="#c2dc63"/>
 <g clip-path="url(#a)">
  <path d="m300.86 899.14c8.6914 0 15.746-7.0508 15.746-15.742v-157.44c0-8.6914-7.0547-15.742-15.742-15.742-8.6914 0-15.746 7.0508-15.746 15.742v157.44c0 8.6914 7.0547 15.742 15.742 15.742zm0-220.41c8.6914 0 15.746-7.0547 15.746-15.746v-31.488c0-8.6914-7.0547-15.742-15.742-15.742-8.6914 0-15.746 7.0547-15.746 15.742v31.488c0 8.6914 7.0547 15.746 15.742 15.746zm676.11 215.16-188.93-535.3c-1.418-3.9688-4.375-7.2422-8.2188-9.0352-3.8086-1.793-8.25-1.9531-12.188-0.47266l-104.66 39.266v-40.242c0-8.6914-7.0547-15.742-15.742-15.742l-110.21-0.003907v-78.719c0-8.6914-7.0547-15.742-15.742-15.742h-157.44c-8.6953-0.003906-15.746 7.0508-15.746 15.742v141.7h-110.21c-8.6875 0-15.742 7.0547-15.742 15.746v535.3c0 8.6914 7.0547 15.742 15.742 15.742h409.34c8.6914 0 15.742-7.0547 15.742-15.742l0.003906-443.35 158.32 448.61c1.418 3.9688 4.375 7.2422 8.2188 9.0352 2.0781 0.94531 4.375 1.4492 6.6445 1.4492 1.8906 0 3.7461-0.34766 5.543-1.0078l125.95-47.23c8.0312-2.9922 12.156-11.902 9.3203-19.996zm-628.88 36.746h-94.465v-503.81h94.465zm94.465-582.53c0-8.6914 7.0547-15.742 15.742-15.742 8.6914-0.003907 15.746 7.0508 15.746 15.742v377.86c0 8.6914-7.0547 15.742-15.742 15.742-8.6953 0.003907-15.746-7.0508-15.746-15.742zm31.488 551.04h-62.977c-8.6914 0-15.742-7.0547-15.742-15.742 0-8.6914 7.0547-15.742 15.742-15.742h62.977c8.6914 0 15.742 7.0547 15.742 15.742 0 8.6914-7.0547 15.742-15.742 15.742zm0-62.973h-62.977c-8.6914 0-15.742-7.0547-15.742-15.742 0-8.6914 7.0547-15.742 15.742-15.742h62.977c8.6914 0 15.742 7.0547 15.742 15.742s-7.0547 15.742-15.742 15.742zm157.44 94.461h-94.465v-566.79h94.465zm226.02-142.73c-1.8594 0.72656-3.7148 1.0391-5.6055 1.0391-6.3281 0-12.344-3.8711-14.703-10.141l-125.95-330.62c-3.1172-8.125 0.94531-17.223 9.1016-20.34 8.0625-3.0859 17.223 0.97656 20.309 9.1016l125.95 330.62c3.082 8.1562-0.94531 17.254-9.1016 20.34zm-289 111.25h31.488c8.6914 0 15.742-7.0547 15.742-15.742 0-8.6914-7.0547-15.742-15.742-15.742h-31.488c-8.6914 0-15.742 7.0547-15.742 15.742 0 8.6914 7.0547 15.742 15.742 15.742zm15.746-62.973c8.6914 0 15.742-7.0547 15.742-15.742v-220.42c0-8.6914-7.0547-15.742-15.742-15.742-8.6914-0.003907-15.746 7.0508-15.746 15.738v220.42c0 8.6914 7.0547 15.746 15.746 15.746z" fill="#007335"/>
 </g>
</svg>
