<?xml version="1.0" encoding="UTF-8"?>
<svg width="1200pt" height="1200pt" version="1.1" viewBox="0 0 1200 1200" xmlns="http://www.w3.org/2000/svg">
 <defs>
  <clipPath id="b">
   <path d="m271 255h658v722.86h-658z"/>
  </clipPath>
  <clipPath id="a">
   <path d="m691 222.14h83v82.855h-83z"/>
  </clipPath>
 </defs>
 <path d="m600 0c-78.793 0-156.82 15.52-229.61 45.672s-138.94 74.348-194.65 130.07c-55.719 55.715-99.914 121.86-130.07 194.65s-45.672 150.82-45.672 229.61c0 159.13 63.215 311.74 175.74 424.26 112.52 112.52 265.13 175.73 424.27 175.73 159.13 0 311.74-63.215 424.26-175.74 112.52-112.52 175.74-265.13 175.74-424.26 0-159.13-63.215-311.74-175.73-424.27-112.52-112.52-265.13-175.74-424.26-175.74zm0 67.762c69.121 0 137.56 13.766 201.42 40.516 63.859 26.746 121.88 65.953 170.76 115.38s87.645 108.1 114.09 172.67c26.453 64.574 40.066 133.79 40.066 203.68 0 141.16-55.457 276.53-154.16 376.34-98.707 99.816-232.58 155.89-372.18 155.89-69.121 0-137.57-13.766-201.43-40.516-63.855-26.746-121.88-65.949-170.76-115.37-48.875-49.422-87.645-108.1-114.1-172.67-26.449-64.574-40.066-133.79-40.066-203.68 0-69.898 13.613-139.11 40.066-203.68 26.449-64.574 65.219-123.25 114.1-172.68 48.875-49.422 106.9-88.625 170.76-115.38 63.859-26.746 132.3-40.512 201.43-40.512z" fill="#c362dd"/>
 <g clip-path="url(#b)">
  <path d="m524.48 589.53c159.83 8.7227 254.45-47.219 305.69-95.719 61.727-58.418 98.559-141.7 98.559-222.74 0-8.3438-6.7578-15.113-15.113-15.113-8.3594 0-15.113 6.7695-15.113 15.113 0 72.91-33.312 147.97-89.113 200.79-67.273 63.707-165.23 93.906-283.24 87.48-71.719-3.9766-129.73 17.215-172.5 62.859-105.36 112.42-80.211 333.01-79.094 342.34 0.90625 7.6797 7.4219 13.316 14.977 13.316 0.60547 0 1.2109-0.03125 1.8281-0.10547 8.2812-0.99609 14.191-8.5234 13.211-16.809-0.25781-2.1602-24.68-215.82 71.145-318.08 36.348-38.812 86.422-56.75 148.77-53.336z" fill="#c362dd"/>
 </g>
 <path d="m697.94 392.21c22.582 0 40.945-18.363 40.945-40.945s-18.363-40.93-40.945-40.93c-22.582 0-40.945 18.363-40.945 40.93s18.367 40.945 40.945 40.945zm0-51.66c5.9102 0 10.715 4.8047 10.715 10.699 0 5.9102-4.8047 10.715-10.715 10.715s-10.715-4.8047-10.715-10.715c0-5.8945 4.8203-10.699 10.715-10.699z" fill="#c362dd"/>
 <path d="m605.4 344.27c22.566 0 40.93-18.363 40.93-40.945s-18.363-40.93-40.93-40.93c-22.582 0-40.945 18.363-40.945 40.93 0 22.566 18.379 40.945 40.945 40.945zm0-51.648c5.9102 0 10.699 4.8047 10.699 10.699 0 5.9102-4.793 10.715-10.699 10.715-5.9102 0-10.715-4.8047-10.715-10.715-0.003906-5.9062 4.8047-10.699 10.715-10.699z" fill="#c362dd"/>
 <path d="m672.13 488.16c22.582 0 40.945-18.363 40.945-40.945 0-22.582-18.363-40.945-40.945-40.945-22.582 0-40.945 18.363-40.945 40.945 0 22.582 18.363 40.945 40.945 40.945zm0-51.66c5.9102 0 10.715 4.8047 10.715 10.715 0 5.9102-4.8086 10.715-10.715 10.715-5.9102 0-10.715-4.8047-10.715-10.715-0.003906-5.9102 4.8203-10.715 10.715-10.715z" fill="#c362dd"/>
 <path d="m579.57 430.34c22.582 0 40.945-18.363 40.945-40.93 0-22.566-18.363-40.945-40.945-40.945-22.582 0-40.945 18.363-40.945 40.945 0 22.582 18.379 40.93 40.945 40.93zm0-51.66c5.9102 0 10.715 4.8047 10.715 10.715 0 5.9102-4.8047 10.699-10.715 10.699s-10.715-4.8047-10.715-10.699c0-5.9102 4.8047-10.715 10.715-10.715z" fill="#c362dd"/>
 <path d="m494.14 392.21c22.582 0 40.961-18.363 40.961-40.945s-18.379-40.93-40.961-40.93c-22.566 0-40.93 18.363-40.93 40.93s18.363 40.945 40.93 40.945zm0-51.66c5.9258 0 10.73 4.8047 10.73 10.699 0 5.9102-4.8047 10.715-10.73 10.715-5.9102 0-10.699-4.8047-10.699-10.715 0-5.8945 4.7891-10.699 10.699-10.699z" fill="#c362dd"/>
 <path d="m505.95 488.16c22.566 0 40.93-18.363 40.93-40.945 0-22.582-18.363-40.945-40.93-40.945-22.582 0-40.961 18.363-40.961 40.945 0 22.582 18.379 40.945 40.961 40.945zm0-51.66c5.9102 0 10.699 4.8047 10.699 10.715 0 5.9102-4.7891 10.715-10.699 10.715-5.9258 0-10.73-4.8047-10.73-10.715 0-5.9102 4.8203-10.715 10.73-10.715z" fill="#c362dd"/>
 <path d="m756.12 351.27c0 22.582 18.363 40.945 40.945 40.945s40.945-18.363 40.945-40.945-18.363-40.93-40.945-40.93-40.945 18.348-40.945 40.93zm40.945-10.715c5.9102 0 10.715 4.8047 10.715 10.699 0 5.9102-4.8047 10.715-10.715 10.715s-10.715-4.8047-10.715-10.715c-0.003906-5.8945 4.8047-10.699 10.715-10.699z" fill="#c362dd"/>
 <path d="m407.37 462.32c22.582 0 40.945-18.363 40.945-40.945 0-22.582-18.363-40.945-40.945-40.945-22.566 0-40.93 18.363-40.93 40.945 0 22.582 18.363 40.945 40.93 40.945zm0-51.66c5.9102 0 10.715 4.8047 10.715 10.715s-4.8047 10.715-10.715 10.715-10.699-4.8047-10.699-10.715c-0.003906-5.9062 4.8047-10.715 10.699-10.715z" fill="#c362dd"/>
 <path d="m433.2 467.34c-22.566 0-40.93 18.363-40.93 40.945 0 22.582 18.363 40.945 40.93 40.945 22.582 0 40.961-18.363 40.961-40.945 0-22.582-18.379-40.945-40.961-40.945zm0 51.66c-5.9102 0-10.699-4.8047-10.699-10.715 0-5.9102 4.793-10.715 10.699-10.715 5.9258 0 10.73 4.8047 10.73 10.715 0 5.9102-4.8203 10.715-10.73 10.715z" fill="#c362dd"/>
 <path d="m590.28 457.93c-22.582 0-40.945 18.363-40.945 40.945 0 22.582 18.363 40.945 40.945 40.945s40.945-18.363 40.945-40.945c0-22.578-18.348-40.945-40.945-40.945zm0 51.664c-5.9102 0-10.715-4.8047-10.715-10.715s4.8047-10.715 10.715-10.715 10.715 4.8047 10.715 10.715c0.003906 5.9062-4.7891 10.715-10.715 10.715z" fill="#c362dd"/>
 <g clip-path="url(#a)">
  <path d="m732.1 304.04c22.582 0 40.961-18.363 40.961-40.945-0.003906-22.582-18.383-40.945-40.961-40.945-22.566 0-40.93 18.363-40.93 40.945 0 22.578 18.363 40.945 40.93 40.945zm0-51.66c5.9258 0 10.73 4.8047 10.73 10.715s-4.8047 10.715-10.73 10.715c-5.9102 0-10.699-4.8047-10.699-10.715-0.003906-5.9102 4.8047-10.715 10.699-10.715z" fill="#c362dd"/>
 </g>
 <path d="m571.71 714.43h50.438 0.30078c8.3594 0 15.113-6.7578 15.113-15.113 0-3.7344-1.3438-7.1484-3.582-9.7773l-23.895-41.973c-2.6914-4.7148-7.707-7.6328-13.133-7.6328s-10.445 2.9023-13.133 7.6328l-25.227 44.285c-2.6602 4.6836-2.6289 10.414 0.058594 15.086 2.6914 4.6328 7.6641 7.4922 13.059 7.4922z" fill="#c362dd"/>
 <path d="m668.05 603.3-25.211 44.27c-2.6602 4.6836-2.6445 10.414 0.074218 15.086 2.707 4.6562 7.6797 7.5117 13.059 7.5117h50.422c0.089844-0.015624 0.21094-0.015624 0.30078 0 8.3594 0 15.113-6.7578 15.113-15.113 0-3.7344-1.3438-7.1641-3.582-9.7773l-23.895-41.957c-5.3789-9.4492-20.918-9.4492-26.281-0.019531z" fill="#c362dd"/>
 <path d="m701.22 697.37c-5.3672-9.418-20.902-9.418-26.27 0l-25.211 44.285c-2.6602 4.6836-2.6445 10.414 0.074218 15.086 2.707 4.6562 7.6797 7.5117 13.059 7.5117h50.422 0.30078c8.3594 0 15.113-6.7578 15.113-15.113 0-3.7344-1.3438-7.1484-3.582-9.7773z" fill="#c362dd"/>
 <path d="m808.28 607.12-23.91-41.973c-5.3672-9.4297-20.902-9.4453-26.27 0l-25.211 44.285c-2.6602 4.6836-2.6445 10.414 0.074219 15.086 2.707 4.6562 7.6797 7.5117 13.059 7.5117h50.438c0.10547-0.015625 0.22656-0.015625 0.30078 0 8.3594 0 15.113-6.7578 15.113-15.113 0.003906-3.7383-1.3438-7.1523-3.5938-9.7969z" fill="#c362dd"/>
 <path d="m771.23 646.07c-5.4258 0-10.445 2.9023-13.133 7.6328l-25.227 44.285c-2.6602 4.6836-2.6445 10.414 0.074218 15.086 2.707 4.6562 7.6797 7.5117 13.059 7.5117h50.438c0.10547-0.015626 0.21094-0.015626 0.30078 0 8.3594 0 15.113-6.7578 15.113-15.113 0-3.7344-1.3438-7.1484-3.582-9.7773l-23.895-41.973c-2.6875-4.7344-7.7227-7.6523-13.148-7.6523z" fill="#c362dd"/>
 <path d="m880.69 676.3h0.30078c8.3594 0 15.113-6.7578 15.113-15.113 0-3.7344-1.3438-7.1641-3.582-9.7773l-23.895-41.957c-2.6914-4.7148-7.707-7.6328-13.133-7.6328-5.4258 0-10.445 2.918-13.133 7.6328l-25.227 44.27c-2.6602 4.6836-2.6445 10.414 0.074219 15.086 2.707 4.6562 7.6797 7.5117 13.059 7.5117l50.422-0.003906z" fill="#c362dd"/>
 <path d="m875.52 703.52c-5.3672-9.4453-20.902-9.418-26.27 0l-25.211 44.285c-2.6602 4.6836-2.6445 10.414 0.074219 15.086 2.707 4.6562 7.6797 7.5117 13.059 7.5117h50.438c0.089844-0.015625 0.21094 0 0.30078 0 8.3594 0 15.113-6.7578 15.113-15.113 0-3.7344-1.3438-7.1641-3.582-9.7773z" fill="#c362dd"/>
 <path d="m699.68 785.94c-2.6914-4.7148-7.707-7.6328-13.133-7.6328s-10.445 2.9023-13.133 7.6328l-25.227 44.285c-2.6602 4.6836-2.6445 10.414 0.074219 15.086 2.707 4.6562 7.6797 7.5117 13.059 7.5117h50.438c0.10547-0.015624 0.21094-0.015624 0.30078 0 8.3594 0 15.113-6.7578 15.113-15.113 0-3.7344-1.3438-7.1484-3.582-9.7773z" fill="#c362dd"/>
 <path d="m796 808.54c0.089844-0.015625 0.21094-0.015625 0.30078 0 8.3594 0 15.113-6.7578 15.113-15.113 0-3.7344-1.3438-7.1641-3.582-9.7773l-23.91-41.973c-5.3672-9.4453-20.902-9.418-26.27 0l-25.211 44.285c-2.6602 4.6836-2.6445 10.414 0.074219 15.086 2.707 4.6562 7.6797 7.5117 13.059 7.5117l50.426-0.007813z" fill="#c362dd"/>
 <path d="m790.84 835.75c-2.6914-4.7305-7.707-7.6328-13.133-7.6328s-10.445 2.9023-13.133 7.6328l-25.227 44.27c-2.6602 4.6836-2.6445 10.414 0.074219 15.07 2.707 4.6719 7.6797 7.5273 13.059 7.5273h50.438c0.089844-0.015625 0.21094-0.015625 0.30078 0 8.3594 0 15.113-6.7578 15.113-15.113 0-3.7344-1.3438-7.1641-3.582-9.7773z" fill="#c362dd"/>
 <path d="m527.97 769.92c-5.3789-9.4453-20.902-9.418-26.27 0l-25.211 44.301c-2.6602 4.6836-2.6289 10.414 0.074219 15.086 2.707 4.6562 7.6797 7.5117 13.059 7.5117h50.438 0.30078c8.3438 0 15.113-6.7578 15.113-15.113 0-3.7344-1.3438-7.1641-3.5977-9.7773z" fill="#c362dd"/>
 <path d="m624.3 792.51c0.10547-0.015625 0.21094-0.015625 0.30078 0 8.3594 0 15.113-6.7578 15.113-15.113 0-3.7344-1.3438-7.1641-3.582-9.7773l-23.91-41.957c-5.3672-9.4453-20.887-9.418-26.27 0l-25.211 44.27c-2.6602 4.6836-2.6289 10.414 0.058594 15.086 2.707 4.6562 7.6797 7.5117 13.074 7.5117l50.426-0.003906z" fill="#c362dd"/>
 <path d="m619.14 819.73c-5.3672-9.4453-20.902-9.418-26.27 0l-25.211 44.285c-2.6602 4.6836-2.6289 10.414 0.058594 15.086 2.707 4.6562 7.6914 7.5117 13.074 7.5117h50.438c0.089844-0.015626 0.22656-0.015626 0.30078 0 8.3594 0 15.113-6.7578 15.113-15.113 0-3.7344-1.3438-7.1641-3.582-9.7773z" fill="#c362dd"/>
</svg>
