<?xml version="1.0" encoding="UTF-8"?>
<svg width="1200pt" height="1200pt" version="1.1" viewBox="0 0 1200 1200" xmlns="http://www.w3.org/2000/svg">
 <path d="m1092.7 684.14c-6.4688-39.703-19.266-78.094-37.875-113.72 24-112.31 15.797-362.68-65.297-404.21-71.625-36.609-207.71 104.2-261.98 165.61-84-19.031-171.19-19.031-255.19 0-54.328-61.406-190.36-202.13-261.98-165.47-81.094 41.672-89.297 292.03-65.297 404.21-18.562 35.672-31.359 74.016-37.875 113.67-25.266 15.047-82.969 52.781-74.906 80.203 4.7812 16.312 30.938 29.438 60.516 37.875-18.047 24.609-30.703 50.531-24.609 66.328 7.2188 18.703 43.078 21.844 74.016 20.953 75.797 115.59 252.61 149.95 457.78 149.95 205.13 0 381.84-34.359 457.78-149.95 30.938 0.89063 66.844-2.2969 74.016-20.953 6.0469-15.797-6.5625-41.672-24.609-66.328 29.578-8.7188 55.688-21.844 60.516-37.875 8.0156-27.516-49.734-65.297-75-80.297zm-413.81-213.37c18.188-18.328 41.812-24.375 52.547-13.5s4.7812 34.359-13.5 52.547c-18.328 18.188-41.812 24.375-52.547 13.5-10.734-10.828-4.8281-34.359 13.5-52.547zm-130.6 306.32c6.4219-5.5781 29.062-8.4844 51.656-8.7188s45.234 3.1406 51.656 8.7188c11.484 10.125-18.703 37.875-43.219 43.828-1.875 10.969-5.6719 32.062-8.4844 32.062-2.7188 0.046875-6.2812-21.047-8.4375-31.922-24.469-5.9531-54.656-33.844-43.172-43.969zm-86.906-262.74c5.2969-14.297 26.906-19.453 48.234-11.625 21.328 7.8281 34.359 25.875 29.062 40.312-5.2969 14.391-26.906 19.453-48.234 11.625-21.375-7.8281-34.359-25.922-29.062-40.312zm-173.06 202.13c-5.5781-44.859 30.938-146.16 118.5-146.16 6.6094 0.09375 13.172 0.60938 19.688 1.6406-8.8594 21.328-13.172 44.344-12.609 67.453 0 50.531 17.812 92.203 39.797 92.203 21.984 0 39.797-41.297 39.797-92.203h-0.046874c0.09375-12.703-1.0781-25.406-3.375-37.922 33.328 28.922 50.531 71.391 49.781 98.156-1.0312 39.281-45.469 110.39-126.32 110.39-80.859 0-120.66-57.094-125.21-93.469zm414.19 232.92c-40.922-3.7969-65.578-37.875-102.56-37.875-37.031 0-61.641 33.844-102.56 37.875-3.5625 0.09375-6.6094-2.5312-7.0312-6.0938-0.375-3.5156 2.0156-6.75 5.5312-7.4531 17.906-4.125 34.734-12 49.359-23.109 18.188-11.766 35.391-22.875 54.703-22.875s36.516 11.109 54.703 22.875c14.625 11.109 31.453 18.984 49.359 23.109 3.5156 0.70312 5.9062 3.9375 5.5312 7.4531-0.42188 3.5625-3.4688 6.1875-7.0312 6.0938zm209.06-244.82c-10.031 61.781-63.75 106.92-126.32 106.12-80.203 0-124.69-80.062-126.32-124.4-1.2656-49.5 45.469-146.29 133.03-146.29 5.2031-0.046875 10.406 0.375 15.516 1.2656-12.609 14.766-22.594 46.359-22.594 82.969 0 50.531 17.812 92.203 39.938 92.203s39.797-41.297 39.797-92.203h-0.046875c0.28125-20.391-2.9531-40.688-9.5625-60 42.938 36.375 60.469 104.48 56.578 140.34zm0-171.79c-6.5156-0.75-11.906-5.2969-13.688-11.578s0.375-13.031 5.4844-17.109 12.188-4.6875 17.906-1.5c5.7188 3.1406 8.9531 9.4219 8.25 15.938-0.51562 4.3125-2.6719 8.25-6.0938 10.969-3.4219 2.6719-7.7812 3.8906-12.094 3.2812zm103.97-170.39c-8.4844 51.938-81.609 64.172-86.766 109.5l-0.046875 0.046875c-0.09375 2.7188-1.3125 5.2969-3.3281 7.125-2.0625 1.8281-4.7812 2.7188-7.5 2.4375-2.7656-0.375-5.2031-1.875-6.8438-4.125-1.6406-2.2031-2.3438-5.0156-1.875-7.7344 6.4219-56.953 68.578-73.266 76.406-104.95 4.1719-12.141 2.625-25.5-4.1719-36.328-6.8438-10.875-18.188-18.047-30.938-19.5-25.031-5.1562-49.5 10.875-54.844 35.859-1.3594 6.4688-7.5469 10.781-14.109 9.8438-8.5312-1.5938-14.203-9.75-12.656-18.328 7.7344-39.656 45.469-66.047 85.406-59.719 35.25 3.8906 69.844 30.797 60.984 85.875z"/>
</svg>
