<?xml version="1.0" encoding="UTF-8"?>
<svg width="1200pt" height="1200pt" version="1.1" viewBox="0 0 1200 1200" xmlns="http://www.w3.org/2000/svg">
 <path d="m1200 600c0 214.36-114.36 412.44-300 519.62-185.64 107.18-414.36 107.18-600 0-185.64-107.18-300-305.26-300-519.62s114.36-412.44 300-519.62c185.64-107.18 414.36-107.18 600 0 185.64 107.18 300 305.26 300 519.62z" fill="#c362dd"/>
 <path d="m600 335.5c41.742 0 75.57 33.832 75.57 75.57 0 41.742-33.832 75.57-75.57 75.57-41.742 0-75.57-33.832-75.57-75.57 0-41.742 33.832-75.57 75.57-75.57z" fill="#ffb258"/>
 <path d="m335.5 600c0-41.742 33.832-75.57 75.57-75.57h377.86c41.742 0 75.57 33.832 75.57 75.57 0 41.742-33.832 75.57-75.57 75.57h-377.86c-41.742 0-75.57-33.832-75.57-75.57z" fill="#ffb258"/>
 <path d="m675.57 788.93c0-41.742-33.832-75.57-75.57-75.57-41.742 0-75.57 33.832-75.57 75.57 0 41.742 33.832 75.57 75.57 75.57 41.742 0 75.57-33.832 75.57-75.57z" fill="#ffb258"/>
</svg>
