<?xml version="1.0" encoding="UTF-8"?>
<svg width="1200pt" height="1200pt" version="1.1" viewBox="0 0 1200 1200" xmlns="http://www.w3.org/2000/svg">
 <path d="m1200 600c0 214.36-114.36 412.44-300 519.62-185.64 107.18-414.36 107.18-600 0-185.64-107.18-300-305.26-300-519.62s114.36-412.44 300-519.62c185.64-107.18 414.36-107.18 600 0 185.64 107.18 300 305.26 300 519.62z" fill="#ffd65b"/>
 <path d="m826.16 374.08c-4.6055 0-8.3555-3.75-8.3555-8.3555 0-4.6055 3.75-8.3555 8.3555-8.3555h60.781v60.781c0 4.6055-3.75 8.3555-8.3555 8.3555s-8.3555-3.75-8.3555-8.3555v-35.012l-499.24 399.82c-3.5703 2.8633-8.8281 2.3008-11.777-1.2695-2.8633-3.5703-2.3008-8.8281 1.2695-11.777l494.22-395.84zm-398.84 237.37c-7.7031 0-14.73 3.1016-19.809 8.207-5.0781 5.0781-8.207 12.105-8.207 19.809s3.1016 14.73 8.207 19.809c5.0781 5.0781 12.105 8.207 19.809 8.207s14.73-3.1016 19.809-8.207c5.0781-5.0781 8.207-12.105 8.207-19.809s-3.1016-14.73-8.207-19.809c-5.0781-5.0781-12.105-8.207-19.809-8.207zm40.176-121.71c-7.7031 0-14.73 3.1016-19.809 8.207-5.0781 5.0781-8.207 12.105-8.207 19.809s3.1016 14.73 8.207 19.809c5.0781 5.0781 12.105 8.207 19.809 8.207s14.73-3.1016 19.809-8.207c5.0781-5.0781 8.207-12.105 8.207-19.809s-3.1016-14.73-8.207-19.809c-5.0781-5.0781-12.105-8.207-19.809-8.207zm140.78-38.168c-7.7031 0-14.73 3.1016-19.809 8.207-5.0781 5.0781-8.207 12.105-8.207 19.809s3.1016 14.73 8.207 19.809c5.0781 5.0781 12.105 8.207 19.809 8.207s14.73-3.1016 19.809-8.207c5.0781-5.0781 8.207-12.105 8.207-19.809s-3.1016-14.73-8.207-19.809c-5.0781-5.0781-12.105-8.207-19.809-8.207zm31.027-125.22c-7.7031 0-14.73 3.1016-19.809 8.207-5.0781 5.0781-8.207 12.105-8.207 19.809s3.1016 14.73 8.207 19.809c5.0781 5.0781 12.105 8.207 19.809 8.207s14.73-3.1016 19.809-8.207c5.0781-5.0781 8.207-12.105 8.207-19.809s-3.1016-14.73-8.207-19.809c-5.0781-5.0781-12.105-8.207-19.809-8.207zm-4.7539 285.11c-7.7031 0-14.73 3.1016-19.809 8.207-5.0781 5.0781-8.207 12.105-8.207 19.809s3.1016 14.73 8.207 19.809c5.0781 5.0781 12.105 8.207 19.809 8.207s14.73-3.1016 19.809-8.207c5.0781-5.0781 8.207-12.105 8.207-19.809s-3.1016-14.73-8.207-19.809c-5.0781-5.0781-12.105-8.207-19.809-8.207zm-11.957 99.035c-7.7031 0-14.73 3.1016-19.809 8.207-5.0781 5.0781-8.207 12.105-8.207 19.809s3.1016 14.73 8.207 19.809c5.0781 5.0781 12.105 8.207 19.809 8.207 7.7031 0 14.73-3.1016 19.809-8.207 5.0781-5.0781 8.207-12.105 8.207-19.809s-3.1016-14.73-8.207-19.809c-5.0781-5.0781-12.105-8.207-19.809-8.207zm132.37-99.035c-7.7031 0-14.73 3.1016-19.809 8.207-5.0781 5.0781-8.207 12.105-8.207 19.809s3.1016 14.73 8.207 19.809c5.0781 5.0781 12.105 8.207 19.809 8.207s14.73-3.1016 19.809-8.207c5.0781-5.0781 8.207-12.105 8.207-19.809s-3.1016-14.73-8.207-19.809c-5.0781-5.0781-12.105-8.207-19.809-8.207zm-468.7-302.61v116.93l-35.867 0.03125c-4.6055 0-8.3555 3.75-8.3555 8.3555s3.75 8.3555 8.3555 8.3555h35.809v120.12l-35.809-0.03125c-4.6055 0-8.3555 3.75-8.3555 8.3555 0 4.6055 3.75 8.3555 8.3555 8.3555h35.809v120.12h-35.809c-4.6055 0-8.3555 3.75-8.3555 8.3555 0 4.6055 3.75 8.3555 8.3555 8.3555h35.809v125.37h125.37v49.387c0 4.6055 3.75 8.3555 8.3555 8.3555 4.6055 0 8.3555-3.75 8.3555-8.3555v-49.387h120.12v49.387c0 4.6055 3.75 8.3555 8.3555 8.3555s8.3555-3.75 8.3555-8.3555v-49.387h120.12v49.387c0 4.6055 3.75 8.3555 8.3555 8.3555s8.3555-3.75 8.3555-8.3555v-49.387h247.41c4.6055 0 8.3555-3.75 8.3555-8.3555 0-4.6055-3.75-8.3555-8.3555-8.3555h-247.41v-35.809c0-4.6055-3.75-8.3555-8.3555-8.3555s-8.3555 3.75-8.3555 8.3555v35.809h-120.12v-35.809c0-4.6055-3.75-8.3555-8.3555-8.3555s-8.3555 3.75-8.3555 8.3555v35.809h-120.12v-35.809c0-4.6055-3.75-8.3555-8.3555-8.3555-4.6055 0-8.3555 3.75-8.3555 8.3555v35.809h-108.57v-108.57h49.387c4.6055 0 8.3555-3.75 8.3555-8.3555s-3.75-8.3555-8.3555-8.3555h-49.387v-120.12h49.387c4.6055 0 8.3555-3.75 8.3555-8.3555s-3.75-8.3555-8.3555-8.3555h-49.387v-120.12h49.387c4.6055 0 8.3555-3.75 8.3555-8.3555s-3.75-8.3555-8.3555-8.3555h-49.387v-116.93c0-4.6055-3.75-8.3555-8.3555-8.3555s-8.3555 3.75-8.3555 8.3555z" fill-rule="evenodd"/>
</svg>
